<mxfile host="www.draw.io" modified="2019-12-30T04:53:00.236Z" agent="Mozilla/5.0 (Macintosh; Intel Mac OS X 10.15; rv:71.0) Gecko/20100101 Firefox/71.0" etag="7LUK6cG_XZn4l32dMYfm" version="12.4.7" type="github">
  <diagram id="QJIn47cg2YYleV7_LSAs" name="Page-1">
    <mxGraphModel dx="1426" dy="928" grid="1" gridSize="10" guides="1" tooltips="1" connect="1" arrows="1" fold="1" page="1" pageScale="1" pageWidth="850" pageHeight="1100" math="0" shadow="0">
      <root>
        <mxCell id="0"/>
        <mxCell id="1" parent="0"/>
        <mxCell id="3vJb4fIJzxed-R8o1brO-4" style="edgeStyle=orthogonalEdgeStyle;rounded=0;orthogonalLoop=1;jettySize=auto;html=1;fontSize=18;" edge="1" parent="1" source="3vJb4fIJzxed-R8o1brO-2" target="3vJb4fIJzxed-R8o1brO-3">
          <mxGeometry relative="1" as="geometry"/>
        </mxCell>
        <mxCell id="3vJb4fIJzxed-R8o1brO-13" value="&lt;div&gt;as&lt;/div&gt;&lt;div&gt;template&lt;br&gt;&lt;/div&gt;" style="text;html=1;align=center;verticalAlign=middle;resizable=0;points=[];labelBackgroundColor=#ffffff;fontSize=16;" vertex="1" connectable="0" parent="3vJb4fIJzxed-R8o1brO-4">
          <mxGeometry x="0.1731" y="-3" relative="1" as="geometry">
            <mxPoint x="3.14" as="offset"/>
          </mxGeometry>
        </mxCell>
        <mxCell id="3vJb4fIJzxed-R8o1brO-2" value="Word Document template (.docx)" style="shape=image;verticalLabelPosition=bottom;labelBackgroundColor=#ffffff;verticalAlign=top;aspect=fixed;imageAspect=0;image=data:image/png,iVBORw0KGgoAAAANSUhEUgAABnIAAAVQCAIAAADwVlPzAAAAAXNSR0IArs4c6QAAAGhlWElmTU0AKgAAAAgABAEGAAMAAAABAAIAAAESAAMAAAABAAEAAAEoAAMAAAABAAIAAIdpAAQAAAABAAAAPgAAAAAAA6ABAAMAAAABAAEAAKACAAQAAAABAAAGcqADAAQAAAABAAAFUAAAAAAXMUZ/AAACC2lUWHRYTUw6Y29tLmFkb2JlLnhtcAAAAAAAPHg6eG1wbWV0YSB4bWxuczp4PSJhZG9iZTpuczptZXRhLyIgeDp4bXB0az0iWE1QIENvcmUgNS40LjAiPgogICA8cmRmOlJERiB4bWxuczpyZGY9Imh0dHA6Ly93d3cudzMub3JnLzE5OTkvMDIvMjItcmRmLXN5bnRheC1ucyMiPgogICAgICA8cmRmOkRlc2NyaXB0aW9uIHJkZjphYm91dD0iIgogICAgICAgICAgICB4bWxuczp0aWZmPSJodHRwOi8vbnMuYWRvYmUuY29tL3RpZmYvMS4wLyI+CiAgICAgICAgIDx0aWZmOk9yaWVudGF0aW9uPjE8L3RpZmY6T3JpZW50YXRpb24+CiAgICAgICAgIDx0aWZmOlBob3RvbWV0cmljSW50ZXJwcmV0YXRpb24+MjwvdGlmZjpQaG90b21ldHJpY0ludGVycHJldGF0aW9uPgogICAgICAgICA8dGlmZjpSZXNvbHV0aW9uVW5pdD4yPC90aWZmOlJlc29sdXRpb25Vbml0PgogICAgICAgICA8dGlmZjpDb21wcmVzc2lvbj4xPC90aWZmOkNvbXByZXNzaW9uPgogICAgICA8L3JkZjpEZXNjcmlwdGlvbj4KICAgPC9yZGY6UkRGPgo8L3g6eG1wbWV0YT4Kpl32MAAAQABJREFUeAHs3Qm0PUddL3qiuTigQkSjQsCAoCLhYYAAYRQ0AsoQFUFE8bGMYgRhgSIEQZaAEoZ1EQRjXEE0igwXeQGBgFGUQRIGQR5hUAKJIfwvhlkBUfHyvqFivaZ3dZ19zh7+++zz+a//Oqt3VXV11ae6e5/+neruI/71Xz59Ff8IECBAgAABAgQIECBAgAABAgQIENiNwFfsprCyBAgQIECAAAECBAgQIECAAAECBAhcIXDkxR/8AAkCBAgQIECAAAECBAgQIECAAAECBHYlcOQXj/jKXa2gMAECBAgQIECAAAECBAgQIECAAAECR37FV7gP1G5AgAABAgQIECBAgAABAgQIECBAYHcCwmq781KaAAECBAhE4GUve9luHe51r3vtdhXlCRAgQIAAAQIECBDYZAFhtU0eHW0jQIAAgQ0VOOKIIx70oAfN37gzzzzT9PD5uZQkQIAAAQIECBAgsC8EGmG1//qv/9oXTddIAgQIECBwuAQSI/vKr9zFw0lT/otf/OLhaq3tEiBAgAABAgQIECCwZ4HOb/6NsNr/+T//59ChQ3vemBUJECBAYE6Ba13rWil5zDHHzFlesTULXHbZZdli8zsxs9V2Nfss5a9zneusuf02R4AAAQJbKdD5etrK/uoUAQIEDq9Arto6v/k3wmopnd/+D2+jbZ0AAQIHQaCcnTvn6IOAsMl9LEPT/E7cQ1jNQG/yWGsbAQIE9pFA5+tpH/VCUwkQILBfBHLWLSfeZoPbYbXOCs1aJBIgQIDAHgTKydYpdw9061mlM0DCausZAlshQIAAgVmBztfTbGEpBAgQILCgQM665cTbrKcdVmv+Zb65vkQCBAgQ2LNAOTt3ztF7rtmKSxEoQ9P8TkxWyZ1zQ7stP2e1ihEgQIDAARQoX0DNr6cDqKHLBAgQWLVA/zf5I2dPx0nZ1aXCqjugfgIECGyrQDkDO+Vu7Ph2Bmi335W7Lb+xJhpGgAABAoddoPP1dNjbpgEECBDYPoGcdcuJt9k1s9WaLBIJECCwDoESUBNWW4f1nrZRhqb5JXrCCSc85jGPOf300+ep+NGPfvScJeepTRkCBAgQOOACna+nAy6j+wQIEFiFQM665cTbrLwdVuus0KxFIgECBAjsQaCcbJ1y90C3nlX6A/QjP/Ijp5122lOe8pR+Yx71qEc99alP7ZeRS4AAAQIE5hfofz3NX4+SBAgQIDCPQM665cTbLPwVzVSJBAgQIECAwI4CJ598cqJmnWLJ3THu1lldFgECBAgQIECAAAECmywgrLbJo6NtBAgQILDpAp3Impjapg+e9hEgQIAAAQIECBBYTODIxVa3NgECBAh8mcDLXvayL/s8/eFe97rXdKacDRLYcUzz8LXZCNpsygZ1SVMIECBAYP8L7Pj1VLvoV45KYYEAAQJLFzji0KFDo0q/8IUvXHbZZaPE7ft40UUXvfvd787PT3/60+ndDW5wg5vf/OY3vvGNt6+nerRSgRxBv/d7v3fb2972Lne5y0o3pPL9JZDfdMuvsJ2F9OiYY47Jz+tc5zr7q3cHp7Uf+tCH0tnyndgZypJ1zjnn1Ps91xNTe//73/+Lv/iL9773vR/0oAcdnEHR08UF/u7v/u71r3/9W9/61o9+9KOp7Ra3uMXd7na3O9zhDovXrIaDIJD959xzz33Pe95T9p9v//Zvv+td75oT0UHo++b0cVdfT5vT7FFLchX2x3/8x5dffvl973tfV2EjHB+bArl+f9GLXjSbZReaNZEyJZAzzwUXXHDhhReWQNCdvvRvqnBNz1XbkUdOTkqbzKjrb+vC3/zN31x66aWJph133HEBzcVJQmy5DE5wbVu7rF9LF0hM7S//8i+XXq0KCRDYjwLlbtBE1tYWU/uDP/iD/QilzYddINexuTJJNO2Od7xjIiOJr73tbW97xCMekeDaYW+bBmy+wHD/+dznPpffqM8888yPf/zj4vubP3ab1sISU9u0VmnP5gtc97rXHf1N+qijjtr8ZmvhJggk5pPI7L//+7+XQNDnP//5pbTq4M5Wy+SC/FUkmsWxRL6PPvrohzzkIUuR3aZKfv3Xf/0JT3jCNvVoKX0JS63HbLVKMbtw0PafnFtmEZopieObrdaUGSaedNJJ55133jBlnctlOsBznvOcOTeaMc2ctXyPjH7bm3P1+YuFpRY2W61SzC4c3v1ntj0bkvKMZzwjc9Pq3xEzc+2JT3xi5hydddZZG9LCzWmGXWh2LEb7TyavPfrRj/7ar/3a+b/+Zuvc1pTV7T97+HraNOQXv/jFmdaQr8tc5Zpq1Bydg/YrdBNhlFiu2V15jViaH+0/syyZTZVfdRJKyzmnBoJmizVTzFZrslyl3J9V88rE40xCrikWCPQFcjSmQE7umUHaLyn3QAmUc0u5KzAd7ywcKJZ93dldjel6/jbzuMc9LqSJhrzuda/b17Yaf1gEHv7whw+3W27//Kd/+qdhomUCUwKj/Sfx2cRk7T9TXCtN39XX00pbstvK89tRfn9O+z/2sY8lrLbb1ZUnQIDAHgTe/va3J7KWZzftNqa247YO7k2gTZqv+qqvaqZLJDArUEKxB+FBhLN9l0KAwOEVKHGQ9773vYe3Gba+TQKZbbRN3dGXtQnkPuLE1BJZW9sWbWi/C/zt3/5tJjnmyjYx2de85jX7vTvaT4DAfhHIhJgEfDLbcekNFla7kjQn9yyt+radpY+fCgkQ2DSBehfMjgvlj8yb1n7tmRXYcSizSiljTGf1pGy+QB4/n0Z+z/d8z+Y3VQs3TSC/P59xxhmJyZ566qmb1raD0J79+PWUfSahtDzbehVXtgdh0PUxAonM5l8W8gSn448/3r5kr5hTIPcmZp/JKai8ryAhthve8IYJ8V/96lefs4apYl8xldFMHz5MqllgzsRNqyfNPv/88/OzPmdkzo6Mim1av5bVnlE39/xxWe3ZtHr2DDJacdP6taz2jLq554/Las+q60lgpcRW5lnYs8bsisOHbc3mzp+yafXM3/J+yUX6Nc9Q1jL9ZtTcRdpTK1niwrLas2n1LItoA/u1rCaF6M/+7M/yc8H3FSyrPZtWz7buQos75yb0VJKnquWtBb/8y7+84K/Qi7enjNSm1bPq/ad+9cyzkMas+legHfub+z1f/epXJ6Z2n/vcZ8fC8xdIv774xS/OX36q5GH3mWrYgumb1q8F25P3FeSEk1BafuaGvoRIanx5b1ALtqdudNPqqQ1bcGHT+pX27O14L/ebJ7KWmFpuAs0u9C3f8i1ZzrtTsiMtqGS22hWAORTjm1O8VzsvuD9ZnQABAgQIENhHAnn8fO7gyytBy53F+6jlmnp4Bb7t274t70tJTC1vks0rL/Ia0Hw8vE2y9c0XyHtj8wK+zBCp936Wdy/kzqw8ViVzRja/C1p4eAVytT68YP++7/u+Zz/72ZkCecIJJ1zrWtc6vG2z9Q0XyMknLRy9o/Lss89OuC3PXLvTne60SPuF1a6YRJpDMb7L/bPJIqNiXQIE9q9A/YvZjgv52/L+7eaBavmOQxmNUsaYHqgdYws6+5KXvORVr3pVnor12Mc+dgu6owvrFMiNM/mXLebZag972MPOPPPMBGe/+Zu/eZ1tsK19+vWUK6/R2GXCSFKE1UYsPu4okHv3MjMme9QnP/lJYbUduRSIwFd/9VcPHTLnMWG1D3zgA8JqQ5ZdLyemlr+WJKb20z/907te2QoECBCYESiBlfymu+PCzKoSNlRgx6Gsw72hHdAsAi2BxNQSCklM7clPfnIrXxqBuQQSSss8kcRn8xIVYbW5yJZXaN99PZ1yyimj3udCLJdj973vfYdTkEZlfCTQERhFSTolZR1wgaOOOmp1Art7ttoTnvCEpTRlQ+oZxtQWf0xdZDakX3WMltWeWuGCC8tqz6bVsyBLXX3T+rWs9tQOLriwrPZsWj0LstTVzzvvvLq8yMKm1bNIX4brLqtfwzqby7kZoZk+Slxbe0bbnfq4rPZsWj1T/d1t+gb2a8EmDWNqSwmFLNieOiKbVk9t2IILm9avZbWnsORRKnwWFOiv3hyvOb9uhjVv669A6dcRRxwx7OnelrfYZ28go7U202fxp2JtWr+W1Z7R8O3547Las8R69na8Zz5jYj7//M//PEvxDd/wDbOJu0o5uDeBLj2mtit3hQkQ2FaBfXpHxrYOx1L6Nf+Y5hGqT3nKUx71qEfl51I2rRICqxBYekxtFY1U58YKnHbaaY94xCNqNDa3X73nPe/Jy0A9nm+dQ5aYWvm6KZeXO35PlXlt62yhbRFYhUB29UxszPPmS+W5fS93ECdWYrbjKrS3r87cMlyiQPWW83JP+uL7z8ENq5UnZV7nOte54IILhnvMMcccszjrsELL2ypQdqHypNX8zMev+7qv84LnbR3u+fu17+7ImL9rB7bknGN6zjnnlGjaGiJruXcvw5FbrsrPfLzmNa/peeEHdhfdbcfL/pPfdl760pcO173RjW4kMjIEsdwUeNvb3pZb+XLjZyJrebBaXlmQFxck0NYsLHEVAvWPNzWytuP31CqaoU4C6xfIOSfPmM/LQHMV//nPf748lS8vLlh/S2xxPwrc+ta3fv/735/IWiY5JhqbS/hLL710KS+uPLhhtbIfzD4yM2ERYbXRQbKsGZujavf7xxyQtQs5IPMvp3hhtWpSF+w/lcLCHgSad77soZ5Vr1JjamVDq46sZbZR7VFeoJZ/+eYSVqsmdWG/7D+1wetcyMOwRpvLLiSsNjKxC41A8jEv/czvzyWalo+3uMUt7na3u9lzZqGSsor9p8bUyhbL101z6xL3u4BfoWdH8MQTT7zqVa9aoiHJzbS129zmNnXy2mz5g5xi/5kd/YTS8kj9zIZJcC0vBs3HXLzXmWuz5edPOeLQoUOj0l/4whfyhuNRoo8ECBAgMI9AvRFjx8L523Kmx6ZY/uC2Y2EFDotAmY76nOc8p7/1cu/nbJnRxc9sASkECBAgQGB+gamvlaT3HzZUprPNvyElCRAgQGAokKu2I4+cnJQmrDa0skyAAIG1CgirrZV79xsrYbX+n5pG89RGG5m6BBoV85EAAQIECPQF+l8oyT355JP7NcglQIAAgb0J9MNqu3sT6N5aYC0CBAgQILCVAv2YWrrs9pytHHedIkCAwJoF+jG1NCZfN/PPl19z422OAAEC2y0grLbd46t3BAgQILAqgR1jamXDImurGgD1EiBA4GAI7BhTKwynn366yNrB2CP0kgCBzRIQVtus8dAaAgQIENgXAnlcd+JlczY1JZ/1rGfNWVgxAgQIECBQBfL1Mf/XTSJr+Xqq61ogQIAAgTUICKutAdkmCBAgQIAAAQIECBAgQIAAAQIEtk1AWG3bRlR/CBAgQIAAAQIECBAgQIAAAQIE1iAgrLYGZJsgQIAAAQIECBAgQIAAAQIECBDYNgFhtW0bUf0hQIAAAQIECBAgQIAAAQIECBBYg8CRzW0cc8wxzXSJBAgQILB0gQ996ENLr1OFSxRofifu4ZnQBnqJg6IqAgQIEJgSaH5tTRWWToAAAQILCjTCakce2UhccDNWJ0CAAAECB1zA1+sB3wF0nwABAusR8HWzHmdbIUCAQBEQQbMnECBAgACBvQg861nP2stq1iFAgAABArsR8HWzGy1lCRAgsG4BYbV1i9seAQIECGyHwEMf+tD5O+KiaH4rJQkQIECgCvz4j/94XbZAgAABAhso4JUFGzgomkSAAAECBAgQIECAAAECBAgQILDpAsJqmz5C2keAAAECBAgQIECAAAECBAgQILCBAsJqGzgomkSAAAECBAgQIECAAAECBAgQILDpAsJqmz5C2keAAAECBAgQIECAAAECBAgQILCBAl5ZsIGDokkECBAgsA8EvIVgHwySJhIgQIAAAQIECBBYpcARhw4dWmX96iZAgAABAgQIECBAgAABAgQIECCwhQJuAt3CQdUlAgQIECBAgAABAgQIECBAgACBVQsIq61aWP0ECBAgQIAAAQIECBAgQIAAAQJbKCCstoWDqksECBAgQIAAAQIECBAgQIAAAQKrFhBWW7Ww+gkQIECAAAECBAgQIECAAAECBLZQQFhtCwdVlwgQIECAAAECBAgQIECAAAECBFYtIKy2amH1EyBAgAABAgQIECBAgAABAgQIbKGAsNoWDqouESBAgAABAgQIECBAgAABAgQIrFpAWG3VwuonQIAAAQIECBAgQIAAAQIECBDYQgFhtS0cVF0iQIAAAQIECBAgQIAAAQIECBBYtYCw2qqF1U+AAAECBAgQIECAAAECBAgQILCFAsJqWzioukSAAAECBAgQIECAAAECBAgQILBqAWG1VQurnwABAgQIECBAgAABAgQIECBAYAsFhNW2cFB1iQABAgQIECBAgAABAgQIECBAYNUCwmqrFlY/AQIECBAgQIAAAQIECBAgQIDAFgoIq23hoOoSAQIECBAgQIAAAQIECBAgQIDAqgWE1VYtrH4CBAgQIECAAAECBAgQIECAAIEtFBBW28JB1SUCBAgQIECAAAECBAgQIECAAIFVCwirrVpY/QQIECBAgAABAgQIECBAgAABAlsoIKy2hYOqSwQIECBAgAABAgQIECBAgAABAqsWEFZbtbD6CRAgQIAAAQIECBAgQIAAAQIEtlBAWG0LB1WXCBAgQIAAAQIECBAgQIAAAQIEVi0grLZqYfUTIECAAAECBAgQIECAAAECBAhsoYCw2hYOqi4RIECAAAECBAgQIECAAAECBAisWkBYbdXC6idAgAABAgQIECBAgAABAgQIENhCAWG1LRxUXSJAgAABAgQIECBAgAABAgQIEFi1gLDaqoXVT4AAAQIECBAgQIAAAQIECBAgsIUCwmpbOKi6RIAAAQIECBAgQIAAAQIECBAgsGoBYbVVC6ufAAECBAgQIECAAAECBAgQIEBgCwWE1bZwUHWJAAECBAgQIECAAAECBAgQIEBg1QLCaqsWVj8BAgQIECBAgAABAgQIECBAgMAWCgirbeGg6hIBAgQIECBAgAABAgQIECBAgMCqBYTVVi2sfgIECBAgQIAAAQIECBAgQIAAgS0UEFbbwkHVJQIECBAgQIAAAQIECBAgQIAAgVULHDm1gUsuuWQqSzoBAgQIECBAgAABAgQIECBAgACBgyBw7LHHTnVzMqyWFU488cSp1aQTIECAAAECBAgQIECAAAECBAgQ2G6B888/v9NBN4F2cGQRIECAAAECBAgQIECAAAECBAgQaAsIq7VdpBIgQIAAAQIECBAgQIAAAQIECBDoCAirdXBkESBAgAABAgQIECBAgAABAgQIEGgLCKu1XaQSIECAAAECBAgQIECAAAECBAgQ6AgIq3VwZBEgQIAAAQIECBAgQIAAAQIECBBoCwirtV2kEiBAgAABAgQIECBAgAABAgQIEOgICKt1cGQRIECAAAECBAgQIECAAAECBAgQaAsIq7VdpBIgQIAAAQIECBAgQIAAAQIECBDoCAirdXBkESBAgAABAgQIECBAgAABAgQIEGgLCKu1XaQSIECAAAECBAgQIECAAAECBAgQ6AgIq3VwZBEgQIAAAQIECBAgQIAAAQIECBBoCwirtV2kEiBAgAABAgQIECBAgAABAgQIEOgICKt1cGQRIECAAAECBAgQIECAAAECBAgQaAsIq7VdpBIgQIAAAQIECBAgQIAAAQIECBDoCAirdXBkESBAgAABAgQIECBAgAABAgQIEGgLCKu1XaQSIECAAAECBAgQIECAAAECBAgQ6AgIq3VwZBEgQIAAAQIECBAgQIAAAQIECBBoCwirtV2kEiBAgAABAgQIECBAgAABAgQIEOgICKt1cGQRIECAAAECBAgQIECAAAECBAgQaAsIq7VdpBIgQIAAAQIECBAgQIAAAQIECBDoCAirdXBkESBAgAABAgQIECBAgAABAgQIEGgLCKu1XaQSIECAAAECBAgQIECAAAECBAgQ6AgIq3VwZBEgQIAAAQIECBAgQIAAAQIECBBoCwirtV2kEiBAgAABAgQIECBAgAABAgQIEOgICKt1cGQRIECAAAECBAgQIECAAAECBAgQaAsIq7VdpBIgQIAAAQIECBAgQIAAAQIECBDoCAirdXBkESBAgAABAgQIECBAgAABAgQIEGgLCKu1XaQSIECAAAECBAgQIECAAAECBAgQ6AgIq3VwZBEgQIAAAQIECBAgQIAAAQIECBBoCwirtV2kEiBAgAABAgQIECBAgAABAgQIEOgICKt1cGQRIECAAAECBAgQIECAAAECBAgQaAsIq7VdpBIgQIAAAQIECBAgQIAAAQIECBDoCAirdXBkESBAgAABAgQIECBAgAABAgQIEGgLCKu1XaQSIECAAAECBAgQIECAAAECBAgQ6AgIq3VwZBEgQIAAAQIECBAgQIAAAQIECBBoCwirtV2kEiBAgAABAgQIECBAgAABAgQIEOgICKt1cGQRIECAAAECBAgQIECAAAECBAgQaAsIq7VdpBIgQIAAAQIECBAgQIAAAQIECBDoCAirdXBkESBAgAABAgQIECBAgAABAgQIEGgLCKu1XaQSIECAAAECBAgQIECAAAECBAgQ6AgIq3VwZBEgQIAAAQIECBAgQIAAAQIECBBoCwirtV2kEiBAgAABAgQIECBAgAABAgQIEOgICKt1cGQRIECAAAECBAgQIECAAAECBAgQaAsIq7VdpBIgQIAAAQIECBAgQIAAAQIECBDoCAirdXBkESBAgAABAgQIECBAgAABAgQIEGgLCKu1XaQSIECAAAECBAgQIECAAAECBAgQ6AgIq3VwZBEgQIAAAQIECBAgQIAAAQIECBBoCwirtV2kEiBAgAABAgQIECBAgAABAgQIEOgICKt1cGQRIECAAAECBAgQIECAAAECBAgQaAsIq7VdpBIgQIAAAQIECBAgQIAAAQIECBDoCAirdXBkESBAgAABAgQIECBAgAABAgQIEGgLCKu1XaQSIECAAAECBAgQIECAAAECBAgQ6AgIq3VwZBEgQIAAAQIECBAgQIAAAQIECBBoCwirtV2kEiBAgAABAgQIECBAgAABAgQIEOgICKt1cGQRIECAAAECBAgQIECAAAECBAgQaAsIq7VdpBIgQIAAAQIECBAgQIAAAQIECBDoCAirdXBkESBAgAABAgQIECBAgAABAgQIEGgLCKu1XaQSIECAAAECBAgQIECAAAECBAgQ6AgIq3VwZBEgQIAAAQIECBAgQIAAAQIECBBoCwirtV2kEiBAgAABAgQIECBAgAABAgQIEOgICKt1cGQRIECAAAECBAgQIECAAAECBAgQaAsIq7VdpBIgQIAAAQIECBAgQIAAAQIECBDoCAirdXBkESBAgAABAgQIECBAgAABAgQIEGgLCKu1XaQSIECAAAECBAgQIECAAAECBAgQ6AgIq3VwZBEgQIAAAQIECBAgQIAAAQIECBBoCwirtV2kEiBAgAABAgQIECBAgAABAgQIEOgICKt1cGQRIECAAAECBAgQIECAAAECBAgQaAsIq7VdpBIgQIAAAQIECBAgQIAAAQIECBDoCAirdXBkESBAgAABAgQIECBAgAABAgQIEGgLCKu1XaQSIECAAAECBAgQIECAAAECBAgQ6AgIq3VwZBEgQIAAAQIECBAgQIAAAQIECBBoCwirtV2kEiBAgAABAgQIECBAgAABAgQIEOgICKt1cGQRIECAAAECBAgQIECAAAECBAgQaAsIq7VdpBIgQIAAAQIECBAgQIAAAQIECBDoCAirdXBkESBAgAABAgQIECBAgAABAgQIEGgLCKu1XaQSIECAAAECBAgQIECAAAECBAgQ6AgIq3VwZBEgQIAAAQIECBAgQIAAAQIECBBoCwirtV2kEiBAgAABAgQIECBAgAABAgQIEOgICKt1cGQRIECAAAECBAgQIECAAAECBAgQaAsIq7VdpBIgQIAAAQIECBAgQIAAAQIECBDoCAirdXBkESBAgAABAgQIECBAgAABAgQIEGgLCKu1XaQSIECAAAECBAgQIECAAAECBAgQ6AgIq3VwZBEgQIAAAQIECBAgQIAAAQIECBBoCwirtV2kEiBAgAABAgQIECBAgAABAgQIEOgICKt1cGQRIECAAAECBAgQIECAAAECBAgQaAsIq7VdpBIgQIAAAQIECBAgQIAAAQIECBDoCAirdXBkESBAgAABAgQIECBAgAABAgQIEGgLCKu1XaQSIECAAAECBAgQIECAAAECBAgQ6AgIq3VwZBEgQIAAAQIECBAgQIAAAQIECBBoCwirtV2kEiBAgAABAgQIECBAgAABAgQIEOgICKt1cGQRIECAAAECBAgQIECAAAECBAgQaAsIq7VdpBIgQIAAAQIECBAgQIAAAQIECBDoCAirdXBkESBAgAABAgQIECBAgAABAgQIEGgLCKu1XaQSIECAAAECBAgQIECAAAECBAgQ6AgIq3VwZBEgQIAAAQIECBAgQIAAAQIECBBoCwirtV2kEiBAgAABAgQIECBAgAABAgQIEOgICKt1cGQRIECAAAECBAgQIECAAAECBAgQaAsIq7VdpBIgQIAAAQIECBAgQIAAAQIECBDoCAirdXBkESBAgAABAgQIECBAgAABAgQIEGgLCKu1XaQSIECAAAECBAgQIECAAAECBAgQ6AgIq3VwZBEgQIAAAQIECBAgQIAAAQIECBBoCwirtV2kEiBAgAABAgQIECBAgAABAgQIEOgICKt1cGQRIECAAAECBAgQIECAAAECBAgQaAsIq7VdpBIgQIAAAQIECBAgQIAAAQIECBDoCAirdXBkESBAgAABAgQIECBAgAABAgQIEGgLCKu1XaQSIECAAAECBAgQIECAAAECBAgQ6AgIq3VwZBEgQIAAAQIECBAgQIAAAQIECBBoCwirtV2kEiBAgAABAgQIECBAgAABAgQIEOgICKt1cGQRIECAAAECBAgQIECAAAECBAgQaAsIq7VdpBIgQIAAAQIECBAgQIAAAQIECBDoCAirdXBkESBAgAABAgQIECBAgAABAgQIEGgLCKu1XaQSIECAAAECBAgQIECAAAECBAgQ6AgIq3VwZBEgQIAAAQIECBAgQIAAAQIECBBoCwirtV2kEiBAgAABAgQIECBAgAABAgQIEOgICKt1cGQRIECAAAECBAgQIECAAAECBAgQaAsIq7VdpBIgQIAAAQIECBAgQIAAAQIECBDoCAirdXBkESBAgAABAgQIECBAgAABAgQIEGgLCKu1XaQSIECAAAECBAgQIECAAAECBAgQ6AgIq3VwZBEgQIAAAQIECBAgQIAAAQIECBBoCwirtV2kEiBAgAABAgQIECBAgAABAgQIEOgICKt1cGQRIECAAAECBAgQIECAAAECBAgQaAsIq7VdpBIgQIAAAQIECBAgQIAAAQIECBDoCAirdXBkESBAgAABAgQIECBAgAABAgQIEGgLCKu1XaQSIECAAAECBAgQIECAAAECBAgQ6AgIq3VwZBEgQIAAAQIECBAgQIAAAQIECBBoCwirtV2kEiBAgAABAgQIECBAgAABAgQIEOgICKt1cGQRIECAAAECBAgQIECAAAECBAgQaAsIq7VdpBIgQIAAAQIECBAgQIAAAQIECBDoCAirdXBkESBAgAABAgQIECBAgAABAgQIEGgLCKu1XaQSIECAAAECBAgQIECAAAECBAgQ6AgIq3VwZBEgQIAAAQIECBAgQIAAAQIECBBoCwirtV2kEiBAgAABAgQIECBAgAABAgQIEOgICKt1cGQRIECAAAECBAgQIECAAAECBAgQaAsIq7VdpBIgQIAAAQIECBAgQIAAAQIECBDoCAirdXBkESBAgAABAgQIECBAgAABAgQIEGgLCKu1XaQSIECAAAECBAgQIECAAAECBAgQ6AgIq3VwZBEgQIAAAQIECBAgQIAAAQIECBBoCwirtV2kEiBAgAABAgQIECBAgAABAgQIEOgICKt1cGQRIECAAAECBAgQIECAAAECBAgQaAsIq7VdpBIgQIAAAQIECBAgQIAAAQIECBDoCAirdXBkESBAgAABAgQIECBAgAABAgQIEGgLCKu1XaQSIECAAAECBAgQIECAAAECBAgQ6AgIq3VwZBEgQIAAAQIECBAgQIAAAQIECBBoCwirtV2kEiBAgAABAgQIECBAgAABAgQIEOgICKt1cGQRIECAAAECBAgQIECAAAECBAgQaAsIq7VdpBIgQIAAAQIECBAgQIAAAQIECBDoCAirdXBkESBAgAABAgQIECBAgAABAgQIEGgLCKu1XaQSIECAAAECBAgQIECAAAECBAgQ6AgIq3VwZBEgQIAAAQIECBAgQIAAAQIECBBoCwirtV2kEiBAgAABAgQIECBAgAABAgQIEOgICKt1cGQRIECAAAECBAgQIECAAAECBAgQaAsIq7VdpBIgQIAAAQIECBAgQIAAAQIECBDoCAirdXBkESBAgAABAgQIECBAgAABAgQIEGgLCKu1XaQSIECAAAECBAgQIECAAAECBAgQ6AgIq3VwZBEgQIAAAQIECBAgQIAAAQIECBBoCwirtV2kEiBAgAABAgQIECBAgAABAgQIEOgICKt1cGQRIECAAAECBAgQIECAAAECBAgQaAsIq7VdpBIgQIAAAQIECBAgQIAAAQIECBDoCAirdXBkESBAgAABAgQIECBAgAABAgQIEGgLCKu1XaQSIECAAAECBAgQIECAAAECBAgQ6AgIq3VwZBEgQIAAAQIECBAgQIAAAQIECBBoCwirtV2kEiBAgAABAgQIECBAgAABAgQIEOgICKt1cGQRIECAAAECBAgQIECAAAECBAgQaAsIq7VdpBIgQIAAAQIECBAgQIAAAQIECBDoCAirdXBkESBAgAABAgQIECBAgAABAgQIEGgLCKu1XaQSIECAAAECBAgQIECAAAECBAgQ6AgIq3VwZBEgQIAAAQIECBAgQIAAAQIECBBoCwirtV2kEiBAgAABAgQIECBAgAABAgQIEOgICKt1cGQRIECAAAECBAgQIECAAAECBAgQaAsIq7VdpBIgQIAAAQIECBAgQIAAAQIECBDoCAirdXBkESBAgAABAgQIECBAgAABAgQIEGgLCKu1XaQSIECAAAECBAgQIECAAAECBAgQ6AgIq3VwZBEgQIAAAQIECBAgQIAAAQIECBBoCwirtV2kEiBAgAABAgQIECBAgAABAgQIEOgICKt1cGQRIECAAAECBAgQIECAAAECBAgQaAsIq7VdpBIgQIAAAQIECBAgQIAAAQIECBDoCAirdXBkESBAgAABAgQIECBAgAABAgQIEGgLCKu1XaQSIECAAAECBAgQIECAAAECBAgQ6AgIq3VwZBEgQIAAAQIECBAgQIAAAQIECBBoCwirtV2kEiBAgAABAgQIECBAgAABAgQIEOgICKt1cGQRIECAAAECBAgQIECAAAECBAgQaAsIq7VdpBIgQIAAAQIECBAgQIAAAQIECBDoCAirdXBkESBAgAABAgQIECBAgAABAgQIEGgLCKu1XaQSIECAAAECBAgQIECAAAECBAgQ6AgIq3VwZBEgQIAAAQIECBAgQIAAAQIECBBoCwirtV2kEiBAgAABAgQIECBAgAABAgQIEOgICKt1cGQRIECAAAECBAgQIECAAAECBAgQaAsIq7VdpBIgQIAAAQIECBAgQIAAAQIECBDoCAirdXBkESBAgAABAgQIECBAgAABAgQIEGgLCKu1XaQSIECAAAECBAgQIECAAAECBAgQ6AgIq3VwZBEgQIAAAQIECBAgQIAAAQIECBBoCwirtV2kEiBAgAABAgQIECBAgAABAgQIEOgICKt1cGQRIECAAAECBAgQIECAAAECBAgQaAsIq7VdpBIgQIAAAQIECBAgQIAAAQIECBDoCAirdXBkESBAgAABAgQIECBAgAABAgQIEGgLCKu1XaQSIECAAAECBAgQIECAAAECBAgQ6AgIq3VwZBEgQIAAAQIECBAgQIAAAQIECBBoCwirtV2kEiBAgAABAgQIECBAgAABAgQIEOgICKt1cGQRIECAAAECBAgQIECAAAECBAgQaAsIq7VdpBIgQIAAAQIECBAgQIAAAQIECBDoCAirdXBkESBAgAABAgQIECBAgAABAgQIEGgLCKu1XaQSIECAAAECBAgQIECAAAECBAgQ6AgIq3VwZBEgQIAAAQIECBAgQIAAAQIECBBoCwirtV2kEiBAgAABAgQIECBAgAABAgQIEOgICKt1cGQRIECAAAECBAgQIECAAAECBAgQaAsIq7VdpBIgQIAAAQIECBAgQIAAAQIECBDoCAirdXBkESBAgAABAgQIECBAgAABAgQIEGgLCKu1XaQSIECAAAECBAgQIECAAAECBAgQ6AgIq3VwZBEgQIAAAQIECBAgQIAAAQIECBBoCwirtV2kEiBAgAABAgQIECBAgAABAgQIEOgICKt1cGQRIECAAAECBAgQIECAAAECBAgQaAsIq7VdpBIgQIAAAQIECBAgQIAAAQIECBDoCAirdXBkESBAgAABAgQIECBAgAABAgQIEGgLCKu1XaQSIECAAAECBAgQIECAAAECBAgQ6AgIq3VwZBEgQIAAAQIECBAgQIAAAQIECBBoCwirtV2kEiBAgAABAgQIECBAgAABAgQIEOgICKt1cGQRIECAAAECBAgQIECAAAECBAgQaAsIq7VdpBIgQIAAAQIECBAgQIAAAQIECBDoCAirdXBkESBAgAABAgQIECBAgAABAgQIEGgLCKu1XaQSIECAAAECBAgQIECAAAECBAgQ6AgIq3VwZBEgQIAAAQIECBAgQIAAAQIECBBoCwirtV2kEiBAgAABAgQIECBAgAABAgQIEOgICKt1cGQRIECAAAECBAgQIECAAAECBAgQaAsIq7VdpBIgQIAAAQIECBAgQIAAAQIECBDoCAirdXBkESBAgAABAgQIECBAgAABAgQIEGgLCKu1XaQSIECAAAECBAgQIECAAAECBAgQ6AgIq3VwZBEgQIAAAQIECBAgQIAAAQIECBBoCwirtV2kEiBAgAABAgQIECBAgAABAgQIEOgICKt1cGQRIECAAAECBAgQIECAAAECBAgQaAsIq7VdpBIgQIAAAQIECBAgQIAAAQIECBDoCAirdXBkESBAgAABAgQIECBAgAABAgQIEGgLCKu1XaQSIECAAAECBAgQIECAAAECBAgQ6AgIq3VwZBEgQIAAAQIECBAgQIAAAQIECBBoCwirtV2kEiBAgAABAgQIECBAgAABAgQIEOgIHNnJk0WAAAECGyjwwldf+MJz33XJoU+Vtj3kfrc65UdvtoHt1CQCBAgQIECgL/D6v/unh57+qlLm2Gtd45Y3OeYxp9y+v4pcAgQIENgoAWG1jRoOjSFAgMAOAq94/T+e/tw3DAt99t/+Y/jRMgECBAgQILAfBfIHs/I3M5G1/Th82kyAwIEVEFY7sEOv4wQI7EuBl//1+0q78zft5/zaD1/76G/YVTf+33/8519++ms++snPNte68Q2OPvobr3bj7zj6bre7wW5rLhVmJt2b33XZ5Z/47LsvurxuIk293jFHpdo9zKr78OX/cu4bL3rLuy67+MOfqs1OO693rWv84G1ucIebf3vdShYe/rRX//VbLr7a1/yPFz/9Prtqf50s8MCTj3/Y/W89rHO0fNZL3/7sF7w5iXe/w3c+6Ze+f5Q79fH+p/3ZEKQWS1OPvfYVMqnt//rOb6npswu1hc969A+Nej1buKRkldOeed5n/+0/43/OM+83VWyU/ltnveHFr7lwlFg+fvNRV7veta+YSbHjON72AWdluztijrYypTQqlo/zI8yuu2NK3P7iTRddfOhTdchqx/d8XOy4UQUWEZjac+Y/vhbZ+p7X/fnfePlbLvxwGnnGY+/RP/z3vImVrljZc0J+6sNPmueUu7czw0p7sQmV55T+9//r1LSkfIVl4ZWv/wdhtU0YGm0gQIDAnALCanNCKUaAAIGNEHj3B64MV939jt81z2XMqNGXfuTTNTg1ysrHxBHefZWrJDKVyNGdbnm9B97r+Pkv9hJvetGrL2xWXv78nmqfd87b73OX4/pxq2GrEuLJ1UUCNMPEK9t50eWZuJfLuQfd+xY1zJT4VLaS8onE7Rj6GdaZMEr5eKcTrjdMn11OH0titp6+zOlTAzSjCtPUK8wvujyRrETWTr3vCVNj+i+f/feybl0YVTX78f957XsLXfwzOnOC1B1stsIMbv4nEPCK1/3DIx5wm8o+W7Jst/yczZ1KmVKaKr/09ATUznzJ22abUTueHfiH7/BdLneXLr9ghbNDViqc//hasAF7Wz2HUlZMI3NanvNMsrcNrWityp6FM1701nn+zLC3M8OK2r+B1eY7N19haVigcjrqnGM3sPGaRIAAgYMsIKx2kEdf3wkQ2H8C5bIk7f7Wb/q6RVqfS6DEcYY1ZF7YO973kQve+aE3v+vDiSPkl/vMEXvgyTfbMRyTFZ/+R28qFwOZeZHI1K1vep3jv/tbS4QouW94+6WZwlYCXs875x25Bnv8qd83FT8qTcpaD/7NV5Z7YTJX6O53/M7jv/vbyjVGaedfvfmDaV6qyiNp6tPl0tQEPkL012+9eMdmD/ueLudjZnX1L25znROZumK20i9fS5aFhOFGEZlU+I73/e9XvO4fU23idJkh9fwn/9horT1/jE9dN8u7Akm8ctSSMo6vDfuFH864ZB7ciqbYzCrVXqx0oc5DzFYSU77VTY65/c2uW/bSDNM//tPHE0xMxxMADeYeJoqutPG18mc+/4IcYjkM//bsU2riZi5EtTxPallzD2f3nJUeX4ur3vK4a5fZatf91qsvXtvhrWFXf2Y4vE3d5K0Pv1Dm/wvKJvdI2wgQIHBABLwJ9IAMtG4SIEBgB4FEEMqNjef9/gNy+16uzBOfyrS1hBv6ayb+VWJquUrM3ZclYFejZln4ibse94xH3vXs3/zRxK1SVa4kf/UZ53XqHMbUcqmc9mSCW/27fWlnKsy2Ev5IPeWuzFJhblHMQsJtud21s4lhVm5cLcGyTAAcps8uZ/5XEtOLRPqykHDYbJldpaRT6dofPunk0GXFNDsT9HZVw1ThjFqJwJaaYz4/SLPOMo6///h7ZkRSIJU/72XvaJbcj4k1ppbBTZQne1d22roPZ5gSlMyNtI/+2dtn6BNc+6OXv3Mzu1kGvfzczBbWVtWoQV2oWctaWN3xtZQW5mjKrX8JgA6DKUupeZ2VlJNwtviU571xndu1LQIECBAgsDkCwmqbMxZaQoAAgU0RSKznyQ87KZG1NChBq8xEmGrZY3/nr8qcslxc5SqxRiJmy+fSMYGJTINKVj9+9Btn/E2pM9PQRtO7htVmWwl/pExpZ8n6/ltdvyxkKtmwcGc5M+lKbp6c1SmWrDL/Kz3N7Ll8TDAu02H6q8yTm45k+l7pRQlQzrNWv0xpamJqP3X3m5aS84P0a86IlKjispra39wacjOIJTKbmFqmodUA7uymE2tLDLTsw7O5UjZTYBXH12b29LC0KmeDEmrPWb3zTXFY2majBAgQIEBgPQLCautxthUCBAgsQWCdFy0JLiSyVhr9zD+5oNn6TIAqTUqgIRGuZplRYp5sXeJHeWhaZqWNcvMxc8cytSoLmTo3z32LKTO83y1r7TboUyNQnZhg2lPnf937pO+pj2Ar89dme7HblGw6D4bLWgnVLTitLJWkhmJ451tdP+NYQBafW1c7daubXDG3Lv/WuUOWLa7i5/88+02pNrvlEx585/4+kGIpkNtjO9HeVbRQnQsKLPf4WrAx27f6z9zzpuWsPvVNsX1dXkOPFv8iWEMjbYIAAQIEioCwmj2BAAECBNoCiciUaQiJ9eSZTbOF6m2AeW/AbG4zJde3eeh7snKfWvNOuhee+67k5iItz+9v1rBjYgn6ZL7bPFPJEsUrd8wlAtWveRh9y8y7K2+u/O+Zbv1158nNK0FLsTy/fJ7ynTJlYloMM7sqxZY7ty4Vfu3XXLWz9f2VlR2gTI3Mbrmv78XbX+zrb+0Sj6/1N37Dt5izev+bYsPbr3kECBAgQGBBgSMXXN/qBAgQILDFApmGkGe0p4OZ6zR6g2fmmpXbADNVrXPf3CxOrbMEqoYFEgi78pbSE66XS7Vh1vzLucArs6jyfs8dG1buAK0RqKmt1Plf5dltKZaFzAhLSC6z2OaZVTdV8yrSy8S02tTMrctj7LOhzK3bEWQV7dnkOvMShtK87JZLaWfidNmpLr7sk2VPTp25t/R6xxyV25NHLwkZbi57fnl+fx5BWKJ7qSdtKy9mLZHfHGgJ5o4Ow1LJST9/dnk+YK3ze3/8jLqchcxYzDMKhyl1OQdLXgBy4fsvrzWUDWVWZucYvO0Dzkqr6ttC0v7sXbWSdPm4GxzdfLPtw5/26tHtw7mRPP9re7JQEYaJ61nOae0l570nh3ZuaSxbDN1xNzy6P3y1bTlR5IR54UWX19EP5vWudY0fvM0NZg+9/vslinB9n0OpubxPJptbsFVlgHKqXFYoObtlTjvZhdL9/p5TraYWckbNbl/3pRTbww6Zvfrlf/2+1FOPnZwGRyfqEWlMcs7MeaCz29c27+2oqatbIECAAIEtExBW27IB1R0CBA6KwHpeHpcLjFzJ5yIz10u5ch5eGeb9nsW6zNua3z115jIpV6258sxF7PAaJoGwUk+uQuevcFQyF4q5QErl5f2eo9zhxxoZrBGoYe5wuc7/qs9fyxVaeetogoOjq7XhivMvX/LhT5bCeYnq/GvNlswwlfhIfcxcQMogzsYxZ1efJ6XGX9azE87TpL2VyQ5Q7paNz3A/3Fttkc/9pDWeUitJSv4nlvSCc9+Vm6CbG6qP7S9zFfP09xrWqfUkJf9Tz7LeQ5ru5+UhUxtKfKTzIuASrbj8E59NJWe86K0lkF2bemWX33pxbiQfnjRqgfUvzHN8JaBTDuph87K3x7w/fKV8goMjh6SXUUt69rHRG5CLYfk53GJZLullx8ibTMqfN2qx2qqERPs34DdbVQYorSqvqanVLrLwsJ+6dbaVZmd/yItr9lBVQsnPfenb6+ml1lAMI9DZnQpX2SHrm6lHNeQ0Xg/A2bEuJjlJ9o+vRY6a2h4LBAgQILBlAsJqWzagukOAwEERWNYsgx29EgIroYd3vO9/D6+QL3z/la/aPP67v23HSkYF8hyxcjH/jvd9ZBhlyCyPlMzcseGGRuvO8zHv9MxD6HN5luu0ciNkc61z33hlFO9H7nyjZoGaWOd/DVubYFwutoOTWQ8LDkdqKMjRHm6iNmD+hfK4t0xmGc6NSlNTf648F59bd0Uo6ku3viZ2uWCv5+/UikrW0HDYF9xEYmqnPfO8CGfvzf2ktzv+umUfDle2knln8c8+f59fefEZj71Hx+0DH/rEk896ferJCN73rseVMG52idSfkc3+lov/vHs3b/8YNrjORKvxl7xiclhgdjm73KlP+vMSjMiuUqdTlV3xRV96PW55k0Mnavy5f/uPNCZNKr1OPelaaki8Jg9PTOUxGfW3xoBSpkxSK+8Onm3hElPmOb5q+Ck7dk4gkS9HYtqZ0FXkM3zp7FTM5f6n/Vk5p+WVJjmf1NHPSSbRnGRlB8g8uOZkw35P6/y+TC6r+1XObH/+un9ItWlYClTVUVUnP+wFGZ0kJqiX+9zLybDsk2X19O6zn//PqdVHtfU/ZvQTOE6TUuce5sHVXbc09fY3u27xz56fP7dc0c7W7jRq0nCHTFC4DGJqOPMlb0vD8j/vw8mrdYakdadN2C5baR5fdStLOWpqbc2FHPizgcVmSYkECBAgsDkCnq22OWOhJQQIENhEge+4zjeWZpUr8NrEi790tZaPewiBHf2NVyv1JIhQK8xCuQKsT0EaZu1quc4pq2/5bK5ewkO5jOl3IVdl5TrnVjc5ZlhPnQ5W5rINs3a1nKvcX3/Oa7NKYhPzP6VuahOlU/WtAqVYQFJ5lkvu1LrzpGcmSNkTTvmxm89TfpPLfPCyK2cI1p18b63NxXaJqSUikyhSXmhQ96iEBhLLyJV87pdM5aHLTLTOVnK7bsokNJNXjiaeldVLcCEVJvaRaEXWzWGS8GinknmysstlQ9krcpthAlu1wYmLZbvZeqIbqSezt9K7qQpLGKL2uoQL8zMCp51yh6yVTdQnME5Vsur0eY6vRKnSl7Qk8glZFvnSsIRdIl+mX0U+U7FmG5yQUEI2Sc8op3DFzNilqrzjIqvnPHO13T+UMDHWBM4inGEa7lfZqVJtGaMUKI0fNSyBwnJGTauyB9Y/MJR9MquX3Smrp/ujdff28VEPvF1Zsb+TNyvPdMJEt3P/b2lq2e1TMpjRe+DJx2c5u9No1t6oqrpDvvjp96mDmBrS2RimcIKbCYCmy2XPD2ndabOVHY+vpRw1ozaPPh59zSu/HEfpPhIgQIDAJgsIq23y6GgbAQIEvkygXt/mCu3LMlb5IVeVpfrymKfRpkqwZpS448dv/aavK2VymVQL197lUUQ1cW8LuSQrF5ydKFIutnOJlfpzId3fSp3/Va9LS/nIlIEoc9n6lTRzcxGYC/LMYMrVbyR/6SdvXS/Im+V3TEy0pZCW68Na/gqQL8UE0+XqXHPnXMi1d7kiTflcqNcdY87VN7BYnRWy4I23iRyFPSOYd4mWq/TZzuYivwxK4i/9oFh2yIRmalhhWFWiAGWXWzCSmwaUgEuCX81dLlvPHYvpUfrVj4slWpEJXLO9zu5RjqyEMIZdWOfy/MdX7j1MwxLWiXyzhelOGb7UOTqCcibJ1Lyslf5mlKdWz4zCqdzmKiUx/kW4OUxljFIy08RGlaSRaWoS0+yp7WZ3KvM0S/dHNezhY3aDclrITl62Pn8liaYl+DW7I5UaMsuv7PllRnOn2sI1e/jUPwOkbdmxm/eT5sFqyUrlzS+OJR41nfbLIkCAAIH9KOAm0P04atpMgMBBFMjFW71AzSO0DztBmZ2x+Myy2pH6BsylvGgydzwlhJSL0lwLNa8q6x2gO4aHmvO/SrNzIZ3ZE4nOZEZb87q39i4LKTk11SL1PPBex09dUg4r6S+XpubCcraqzK0r+08iMrO5o2ozuKNn3g8LZOZIk3RYZs/LHaXUmWhpLr/3XPloxTyJqaTMXoSPSnY+Jn5RYHd8l2iiGCmZvSXDNAWYPWEqslPakHmICViUo6/Tqn5W7vFMgWB2dv6Y5Cnv2VYeHj9V21QIo5TP7M4ik0o6G5qqfLfpnT2nf3zlFFECrP25ov//u1Yu/PDwCMqtnTnPpLU5hHfb5h3LJ5Y0ddtp1q1jlP0h++GwVSUYmiBR9rrOVu5xx+/Kuun+aPXOKv2svKciZ5iAPPNPLljuoJc9v4SDp9rQ2SHTmHJ7ddZtxtSSHs88oCBfHBd/+Io7Z0f/lnXUjKodfcxflcrRnWOnP3ajFX0kQIAAgcMoYLbaYcS3aQIECMwrkGuePBSmXPvlSmkV12/zNmWflMvMss68g3TiFa+7YoJJJmsMr0VnO5dL7nLN3HyLQr1uLDPaZlefJ6VEUvrNmKee7CSd+Xdp6oJz62obcqNipq0lklhTDvJCnThWd4aORrk5twxTs1i9s7iZm8Rv/u8bqDPcU2X66VmxnEl2fFPHcTf8llRVYi7NOlNDJyJ5rW/++rLWRz72mebq60nc8fgq83BzdPQj4+lpojZp82jebhnNZix78Q6m8R3h1H/rm16nbOU9H/zocHMlGLrjEOcRZmWtzj45rHbH5bS2TOvLbpNXne43ZsgAAEAASURBVO5Yfv4C8/y5pb9Dlj8C5ZzfGehSphwgw7Yt8agZVju7HL3yzZU2/PxvvHzPh/lszVIIECBAYHUCZqutzlbNBAgQWI5Afreu1zy5JMiUisVDMMtp2WbXkkus/ME/dJnoN7o0zbVKmfWQ+Tj9TpT5X1OX3BmIjEgmF5Ri/apyvVRnH6RJeZL9C899V5qRRubJ4qOH0PeraubW+M5Up3KJnhk9uVrbcW5dOpUbskZbKW3O4+rS4HQ5TxObmvQxWnFXH4dKu1rxcBUuO1L2kHmOygSqys1xe57AVR8Dl9md82xxlqWeTOq92LNlSsrXfe1Vy8LetlWDF3VW4NSGlpI+3HN2dXyVCNQ8z7S62pdARt0p7xg9buG3XuwNod6/XB8UmHpqDKhE0js11xPjqFOdVXbMyg2buS8+55mcbe590vfUTey44iYXWNtRk4M659U/ecU7s8X8f8CvvTRRtr89+5RNxtE2AgQIEBBWsw8QIECAQE8gF6glu75noHzMBVsunMolZW/9w5eX9/ElAJTtz76Ar0ag6ssNms3M1Wm5mrr7Ha98wNxsscSwEmPq3G06u0pScqmZ+XT5X95Jl9BMni9eHoveLD9P4pWvKz3u2lPRlkynyoVuqsrcuhrymKfmUqa2OVG58oT+/Myjwbfjsnl+h1HJEo+YJyiTFWugalTJOj/WAEp2ufxf56bXtq26r85zfOU8loblKO7c+NxpeZnNOs9cqk4le85qHn31hvrOjbF73uI8Kz7sp26dXSsyecPDgqe1eTa3hjLrPGpycs7LT9fQKZsgQIAAgWUJuAl0WZLqIUCAwKoE8jCpvB/tyvuPvjRLqIa6VrXJQb3veN9HyqfRxIcSRyiXlIPicy3WF4Be/5ij6gp12sXoHqtaYLcLuTgpbS7BteHqJWXHG6xq9G1q/lfqXPAlm3mQVqaGpZ5MX1rkfp+Eukp0oHPbV8JtZVvzzK0bco2WA5u3KyQxo/9HL3/nKHcffawvxygzyPZRy9fZ1BxE1/3Wq69zi0vc1rKOr2GT8vit4cctWM58qOGpePEeJYK/59NaXo2SkFxuM7/tA85KoLP+L38SWLxt66lhkaMm3S9npIxLgpKmqq1nyGyFAAECiwiYrbaInnUJECCwJoEERPLg6v/7seckdFJiGfV2wlW3oD4XaXTdlclr7/7Stne8o3C2hR/970fF16cvpUymXeQqIr377Of+Y3aVvaWU2x4zFywRqzqHK8vlxr08Ur1fbX3FZ+7E6ZdMbua1DbeyY/la4H53u0mZNJSnjPcfV19XmV2oD3d79gvenP+zBYYpQZ56k8OwWGc58+zy9sDsjQtG6DqbWENWfU7ZZ5a3y62h2cvaRK7Y53ke3LI2d7jqmfP4at74fLjavKztDm+MXVadc9bzqAferpw2czqa8zUjiSXlRQflzwNzbmX9xVZ91ORLpEb586Leg3CErn8QbZEAAQJLFzBbbemkKiRAgMBKBBJ1Ks87T+3rjGXUuWP14dale2X2XJb/8Z8+vtsOX3jRFe8WTBBtdCtieVx0Yl7Lmo5Xr0nqhUq2W2Y9ZOuJDXVaXud/dcqMsurstlF6/2Od2ZFh3XPHd7tL7Lb8bBfK3lgClLO5+yKlPqfswvfv8fH/+6KbB7yRSzm+DrjhHrqfP2OU02/+3jA8/U5VlUB//rqQmFrOzIkGJnr19//r1OH/JE6tu03p5bED6VHmu9Xvr23qoL4QIEBgKwXMVtvKYdUpAgS2UyAvfSvXJ2uLZSTKU+IvmcoxeojP8d/9bc+7yjsCXeNuc6LXyWKztyve8rhr5wlHqefcN150yo/ebM4KO8VyaZfwX7hy12ed3/fmd304q3Tu6ywV1vlfr3zO/Ud9n93iST9/di4IM7stj+uezd0xpT6gbW8dr68rffTP3r4fK0xLytOm9jy3rvblcD1MqjZg8YVctT75rNdn7l7ZJRapcM4plnVa3GG8rbI+JLE2ZpGO74t1+8dX4hc5eOccwU3rbw3EJxpV21b3rs/929Jm/tbK51849b4n5C8NOb5ecO67+hGi9OJ557w9Ned0nXnZO55v52/Dskqu7aip36fH3XDb7jVe1liohwABAhsoYLbaBg6KJhEgQGBTBPKw/1wUpTWzQajhk8vqpd087c6tjqXY99/q+qPydSsvevUVT9Zfyr+73/G7Uk8umzP7LAt1DtoP3uYG/fpLPDGRvnmu8crUrbqVfs2zuYkhlqviV7zuH2Zzd0wpTd1x/l2pp976ure5dTs2Zn8VKLHdDFxCk3treXnS1pxTLPMe1WwlcZx6S/LeNrrIWt/57dcsqx+cOXr94+t6175GQOYcwVn5K596+YEr/h6w/n95oXDZaP7OUbeevaucT8q84Jq+5oWcOcsUs/yxpH981S+aJzz4zvOcb9fckWxubUdNfTdCzhLr76YtEiBAgMDeBITV9uZmLQIECGy/QKaVlfslc93YnDtW34+Z173NyZGoVnldQKa/zc5fyNVgnoaWqhLmeObzL5izzn6x+q7PMvusvGEtVyyj+09HldT5X3eeif2NSpaP9QalOsetWayTWEKKubYv4b9OyVFWhqncN1SDkqMCo4+ZzlYu2OqT40YF5vxYYnklpjDnKhtY7IH3Or60KpHcXUWHa19ud/x1y3JmGtbE5kLqL2j1bu5msaUkdvpSA+KLz9FbSlPXM2muc3zVabM7jmCzv8d96ZUjiRzlSGwWWCQxO0xnKFNzCdQmiDY6oZVO5XyyilbN36PM3i1nm/5fSsofb1LtYQw39zu1aUdNv7VyCRAgQGDNAsJqawa3OQIECCxHYJ6n1SyypVzL/fpzXpurnVywPeIBt2lWVS+Z0pj+ZISyeup84pmvK8sPuvctmnX+ys/cpsyzSERvngBTNp0bMDslM/chM86yrRLRKKGEGhBstqEWTkt2vKey1JCrwRJgKluZqraTXmfP7TYwVyed1Ro6WylZC86tSyVhzxV7FmpIYseNbmaBDFwJiSaS+/Q/etOOjcw+nCdA/fxvvLyWrNfbOwbmEn0u4YMahK2VLGuhvlekvsC3WfPSg9fNrfQT65t/P3jZJ/sll5Jbj47Z46u+zHfHEWy2pNbcf1Vlbr7ew58KcpQ9+DdfORVZq3+l+OE7XDEnd/ivzgXe8QUmw7VWsfywn7rivvgcX7911ht2rH+qp0nf86l1x43OWWATjpo5m6oYAQIECKxZQFhtzeA2R4AAgX0gkKBJ3jpa4iYPPPlmo3kQww487kF3LFGwXLz1LxpLnbm4yuoPud+tpupMFOyXfvKKy7AEIE575nkvnL4btAQ4ylOuh02aXS4zzlJhrmxLA/oTu+r8r13FjMrdptnKPBHG2UYGpAbmpq4tZ9dKSpl0tuP8u+G6NawzG2IYFptazsV8XtiX3Az9z9zzplPF9kt6HrpX5DOPMvGyDn7Zh/Nz1LUaOOhEQHJ0lBWDv7opOfXVuhe880OjRg4/ZtRq8Hq2O8OSq1vOkV7asGO4JCeB2z7grO/98TPmictMNbhzfKUlJSxVQqudHaBZeWougftINo/9nE9OftgLsneVoGqzkk5iiazNTjpLO//n2VcEgpuHYeYCZ0ZwcjOVtX9mntr0UthTeW3JK18/eYd7DQfnbtDZ9uSEkyOrfB/N5q4tZT1HTXm66No6ZUMECBAgsBQBryxYCqNKCBAgsO8FcpGWGS4f+NAncvlXLmBytXbaKXeYvVVz2NVcUj75YScl/pUrxued846EeDIRLC9YrGuVEFWunMuNiqkzcbrmLaW12kwQy31heYJ16jz9uW/489f9Q6JgebRNtlXK5PI1UYPyMOykdIJ0pXwq/J0/vSC1lftPcw3cj2vU+V91xkdtW2chc17KxJB0tt/BqUoyGyKGaef8Ly7IBeeVgcIv3Tw7VfMovcytyyjvGNEYrZjNvfEdl+byOI3MUGboE5IYldmPH/OU9F99xnm5oM1eep9feXH2t7weJNOpSu/KPpy9olzxJgb3+FO/b9jN7O0pk8lKIc3qCZzlQVdld81hladfZR8u62aI66szhjUsazkbTYA1u0RamxBP2Q8TH8lj1PJqxbqV9KsetglM/9WbP5gn7uVVv3U0c4h95GOfydPTs4ekO3t7EUfd3NRCwtblbJN4WWIW2Xp2sIR6M2W1tiTrRi/7Wxbq09ynKuynd46vDMoVaG+5OP8vfP/lOYnVEUydGdxLP/LpK3aDd12WYn979imjDWV/yLinkTkDpJE5b5QTYFaJZD1e6llxtHrnY05WF3/4U9mvTn3Snyf2lxpy8Ganyikic+vKsZ+/Qwy5am1PffhJJRqVs0p27OzVw1NfqA999F+zY2QCb54u9/uPv2ddsSwsiz21PeqBt3vAr720DOJoK+VjTtEvPPdd6WY5AebG6nL4pJG5bT+GKZbjLgWaq68nMcibcNSsp7O2QoAAAQK7EhBW2xWXwgQIENgSgVxL5/9UZxIxySVcudCdKlPTc/1zxmPvkRcR5Io0l3m5LkpWs/LMnsj1VT+kVapNOCBxtDNf8rYEI8r/urnhQirMzaTlAmyYPrtcLuBL+o5z0Or8r11dBueiK1etuXzN/1xOz9PNUTvvfdL3FL28uGDOwFydbrarpma7NcRQgy/DxsQ8k4OGKaPlXOLm1uC+fMJM/dviHnjy8bPxmh3XSkuaK45auKuPGbvnP/nHEtwpEZBcxpcr+VEl5bhoxsWSmHcFllhwBrG8JHe4emfdYbHFlzOBtIS5E+Ipcd5S5zCslpSMXWIEme6UUEUJJ53+3MU3vrsaEj67+LJPpgGjQU9Yqhkn2l3tM6X7x9czHnnX7ABpSTmJzY5gqS/jOFPxVdLanANz13zFHJ0A5z/1jSo/9tpHJWZXYr4jpZRMYzp/+UirEi/+jTP+Jmekzlk09ZSXNow2vcSPORnmBNU8pupW0tQSBJztZsqUOZ4j1bru2hY24ahZW2dtiAABAgTmFxBWm99KSQIECBxmgW+42lct2ILrfuvVy2SW2XpyhZZLuOtd6xrH3fBb5nygWK0kV025KE0sKXNkcgl3+cc/W6ZRpEA2d/Q1r5a3JZZ5FnWVHRdyAZP/ZbbCxYc+lcvCskpp524r/JE73ygzTTJdIu2pLzFotiG9KI1P4KlZoJN4zzt9d7qfAvk5DKulzdl0fnbWTVYug8vFZ9Wr5evQ14WSlZk1WchF+3Bzda3OQkIMuXxNq0YzgAJbqWdXTzTtescclZlN/T0k7elUMlttSdnbWlO17SE9obGEkjMPKLtKpgjVUSi9jkw/1pnc7Fq5iy2jf8mHP1nm5pTdNfHWgHdCRXVY68JU+2uBujAqWa78/+QV78zIljak/T9xt5uMiuVjOcQyly2PvS/hrVomY3G1r/4f+TmctFVzszDnLt0vVuI+eaRdduOincMzx90oRpxpVmV3yhAM21CX+1upxTrHVymTHSCbLiexOoLJKiexcm7MnL5a4XAhB+A5z7xfgtTZeap8VjzuhkfXyWvD8llOs+vPUdbwY5qdmG+puZxekpuh2XGnSrGsm2los2fRZGWvuNrXXjWkafkIvGx9WeylthLVTWQtvW6erNLUAhj/ip9G5o0QJaaWXhSxUuHo5zz7QHbprFV+jlavH3cclEWOmrqVeRY6nZ1ndWUIECBAYJ0CRxw6dKi5vUsuueTEE09sZkkkQIAAgcMlUOcQ5SqleS10uBpmuwQIECCwLIFyqk9EqTk7cllbUc+mCfiK37QR0R4CBAgUgfPPP//YY4+d0vDKgikZ6QQIECBAgAABAgQIECBAgAABAgQmBYTVJmlkECBAgAABAgQIECBAgAABAgQIEJgSEFabkpFOgACBTRSoz1vJKzs3sX3aRIAAAQIECOxeIM+PqyvlQah12QIBAgQIbLiAsNqGD5DmESBA4MsE6kO78/K+L8vwgQABAgQIENi3AvXNznnZRfPFDvu2ZxpOgACBLRfwJtAtH2DdI0BgywTquyYvOfSp8mzjB558/MPuf+st66buECBAgACBgyCQSWoPPf1Vw57e/Y7fOfxomQABAgQ2XEBYbcMHSPMIECDwZQJ5++dnPvcfLzz3XQmrlYyrfc1Vv6yEDwQIECCwzwVyv/9n/+0/613/+7w3mj+vwLHXusYtb3KMP5XN66UcAQIENkPgiEOHDjVbcskll5x44onNLIkECBAgQIAAAQIECBAgQIAAAQIEtl7g/PPPP/bYY6e66dlqUzLSCRAgQIAAAQIECBAgQIAAAQIECEwKCKtN0sggQIAAAQIECBAgQIAAAQIECBAgMCUgrDYlI50AAQIECBAgQIAAAQIECBAgQIDApICw2iSNDAIECBAgQIAAAQIECBAgQIAAAQJTAsJqUzLSCRAgQIAAAQIECBAgQIAAAQIECEwKCKtN0sggQIAAAQIECBAgQIAAAQIECBAgMCUgrDYlI50AAQIECBAgQIAAAQIECBAgQIDApICw2iSNDAIECBAgQIAAAQIECBAgQIAAAQJTAsJqUzLSCRAgQIAAAQIECBAgQIAAAQIECEwKCKtN0sggQIAAAQIECBAgQIAAAQIECBAgMCUgrDYlI50AAQIECBAgQIAAAQIECBAgQIDApICw2iSNDAIECBAgQIAAAQIECBAgQIAAAQJTAsJqUzLSCRAgQIAAAQIECBAgQIAAAQIECEwKCKtN0sggQIAAAQIECBAgQIAAAQIECBAgMCUgrDYlI50AAQIECBAgQIAAAQIECBAgQIDApICw2iSNDAIECBAgQIAAAQIECBAgQIAAAQJTAsJqUzLSCRAgQIAAAQIECBAgQIAAAQIECEwKCKtN0sggQIAAAQIECBAgQIAAAQIECBAgMCUgrDYlI50AAQIECBAgQIAAAQIECBAgQIDApICw2iSNDAIECBAgQIAAAQIECBAgQIAAAQJTAsJqUzLSCRAgQIAAAQIECBAgQIAAAQIECEwKCKtN0sggQIAAAQIECBAgQIAAAQIECBAgMCUgrDYlI50AAQIECBAgQIAAAQIECBAgQIDApICw2iSNDAIECBAgQIAAAQIECBAgQIAAAQJTAsJqUzLSCRAgQIAAAQIECBAgQIAAAQIECEwKCKtN0sggQIAAAQIECBAgQIAAAQIECBAgMCUgrDYlI50AAQIECBAgQIAAAQIECBAgQIDApICw2iSNDAIECBAgQIAAAQIECBAgQIAAAQJTAsJqUzLSCRAgQIAAAQIECBAgQIAAAQIECEwKCKtN0sggQIAAAQIECBAgQIAAAQIECBAgMCUgrDYlI50AAQIECBAgQIAAAQIECBAgQIDApICw2iSNDAIECBAgQIAAAQIECBAgQIAAAQJTAsJqUzLSCRAgQIAAAQIECBAgQIAAAQIECEwKCKtN0sggQIAAAQIECBAgQIAAAQIECBAgMCUgrDYlI50AAQIECBAgQIAAAQIECBAgQIDApICw2iSNDAIECBAgQIAAAQIECBAgQIAAAQJTAsJqUzLSCRAgQIAAAQIECBAgQIAAAQIECEwKCKtN0sggQIAAAQIECBAgQIAAAQIECBAgMCUgrDYlI50AAQIECBAgQIAAAQIECBAgQIDApICw2iSNDAIECBAgQIAAAQIECBAgQIAAAQJTAsJqUzLSCRAgQIAAAQIECBAgQIAAAQIECEwKCKtN0sggQIAAAQIECBAgQIAAAQIECBAgMCUgrDYlI50AAQIECBAgQIAAAQIECBAgQIDApICw2iSNDAIECBAgQIAAAQIECBAgQIAAAQJTAsJqUzLSCRAgQIAAAQIECBAgQIAAAQIECEwKCKtN0sggQIAAAQIECBAgQIAAAQIECBAgMCUgrDYlI50AAQIECBAgQIAAAQIECBAgQIDApICw2iSNDAIECBAgQIAAAQIECBAgQIAAAQJTAsJqUzLSCRAgQIAAAQIECBAgQIAAAQIECEwKCKtN0sggQIAAAQIECBAgQIAAAQIECBAgMCUgrDYlI50AAQIECBAgQIAAAQIECBAgQIDApICw2iSNDAIECBAgQIAAAQIECBAgQIAAAQJTAsJqUzLSCRAgQIAAAQIECBAgQIAAAQIECEwKCKtN0sggQIAAAQIECBAgQIAAAQIECBAgMCUgrDYlI50AAQIECBAgQIAAAQIECBAgQIDApICw2iSNDAIECBAgQIAAAQIECBAgQIAAAQJTAsJqUzLSCRAgQIAAAQIECBAgQIAAAQIECEwKCKtN0sggQIAAAQIECBAgQIAAAQIECBAgMCUgrDYlI50AAQIECBAgQIAAAQIECBAgQIDApICw2iSNDAIECBAgQIAAAQIECBAgQIAAAQJTAsJqUzLSCRAgQIAAAQIECBAgQIAAAQIECEwKCKtN0sggQIAAAQIECBAgQIAAAQIECBAgMCUgrDYlI50AAQIECBAgQIAAAQIECBAgQIDApICw2iSNDAIECBAgQIAAAQIECBAgQIAAAQJTAsJqUzLSCRAgQIAAAQIECBAgQIAAAQIECEwKCKtN0sggQIAAAQIECBAgQIAAAQIECBAgMCUgrDYlI50AAQIECBAgQIAAAQIECBAgQIDApMCRkzkyCBAgQGAZAs9+9rMf8pCH5GepzDIH+4B9YLf7QMR2u4rydjP7wAHfB7IDFAE/CRAgQGClAkccOnSouYFLLrnkxBNPbGZJJECAAAECBAgQIECAAIENFCh/z9vAhmkSAQIE9qnA+eeff+yxx0413k2gUzLSCRAgsByBOk9tOdUtXMumtWfhDm1oBZw3dGA0iwABAgQIECBAgMDyBITVlmepJgIECBAgQIAAAQIECBxWAbd/HlZ+GydA4MAJCKsduCHXYQIECBAgQIAAAQIEtlXAdOltHVn9IkBgMwWE1TZzXLSKAIHtEdi0PxpvWnu2Z6S/vCecv9zDJwIECBAgQIAAAQJbKCCstoWDqksECGyUwKb90XjT2rNRg7XExnBeIqaqCBAgQIAAAQIECGymgLDaZo6LVhEgQIAAAQIECBAgQGDXAqZL75rMCgQIEFhAQFhtATyrEiBAgMDqBV71qlcd8aV/N7jBDT74wQ+ufoPr3sI73/nOn/iJnyh9vOtd77ruzdseAQIEDpJAOd+eeeaZm9DpfMF94zd+Y87/+YJ76lOfuqwmmS69LEn1ECBAYB6BI+cppAwBAgQI7Flg0/5ovGnt2RH2wgsvLGU+8IEPHDp06PrXv/6Oq2xCgTmdP/7xj//Yj/1Yulba/JrXvGYTGq8NBAgQ2FaBT33qU+napz/96U3oYL7gPvnJT6Yl+RZ41KMelYVf/dVf3YSGaQMBAgQIzC9gttr8VkoSIEBgLwKb9kfjRdpTJ46VqVUb8tf+vYzK6teZ0/m8886rMbU06ju+4zv6Tavz2soQlJ8nnHDCL/7iL2Z0+usmNzPjfu3Xfi3l6+pl3Te+8Y39dTNPMDMpMpmurJjpFWnJC1/4wrpWaVhqqynNhVJDWtvJzSY6szbShdr4upCJHqmz2YtavjPVMZsrVfVnCzbxs0pWT3h0tkdlEspQabZMDqLai9mF5Obf7Frzp2SvSLPjUyrPAGUH6FDMX/NWloxMdqTKlYXRfr6VvT68nZrz6Du8jVzd1q9+9asPK//93//94UfLBAgQILAvBITV9sUwaSQBAgSucsEFFzzykY+8xz3u8fCHP/zVr371YRF5/OMfP9zu0572tOHHRZZroGcq4LJI5Zu87qWXXlqal4Daxz72sYsuuqjf2jLPYlTmbW972xlnnPHDP/zDYUwUaZRbPibuk3jK937v9/7Wb/1WytcyZd3b3/72CR80Y0MpmcDQLW5xi8ykqJPpMr3iRS960f3ud78Elcpad7rTnVIytU01ILmJWZQa7nCHO9QG1IWam5TOteW//uu/1lXqQkKTEUgv0seaWBZq+Ux1HGXVj3VzaV4n5NTEzyqRqQ61ziyUSSh1iIdZdXl1U2YyLmlV9oqMVA3dZoCyA2Q0+8G+2rwDtRCTHIbZkSpXFsp+3ozYHiic1XV2zqNvdQ04vDU/6EEP+uIXv/h7v/d7pRl131uwVXNOl15wK1YnQIAAgSIgrGZPIECAwD4Q+KVf+qUTTzzx6U9/+ite8Yrf/u3fvtvd7vZzP/dzX/jCF9bZ9IQbhuGYbDoXAJ0Yyq7aVmvuBDV2VeF+Kfza1762NDXzYq55zWvO2ey73OUuuRIr/xKMe+UrX3nqqadm3TAmvNUclERYEk9Jmayb8sN1k5L0hA/uf//7zzYgsYaEzxIhSsThBS94QTaXdfMzy0lJUOm5z31u1rr3ve9d1n3xi188W0lJydS8LBx11FEnnXTSbJmXvOQlSSwdya614+S7N7zhDVcSfPGL6VFCRVk9fdxtBCTls7msXmoo3ZltXk15ylOeUrebFfMxWZF/3OMeV8vsYaHWOVzIJXf+7aG2ElMrQcyQ/v3f/32pNgv5mNHMmO6h2j2skr0xE+UycW8P6y6ySmb5ZbsJFs9ZSc48Jaaf3aDuWuHK+GY///qv//o561FsVwK7Pfrmr7zMFW2eDOevZG0lb3zjG9dt7fYMVlccLsw5XXq4imUCBAgQ2LOAsNqe6axIgACBuQQW/6Nxfj+e/RX5rLPOetKTnjRXC7680J7bU8MN973vfWuVnRhKLXMwF/bsvFuuBON+6Id+6Hd/93cTWkrEKhGTPKxtNO8st1mVwGViBJnqmPJlK2XdpJRgVqIwo0lMuSgt8ZfEGt785jcnSFFif/mZ5cytKyumtqSUHSPhuakuZKdNVq1kVKxMWkkUqdSTCPKoQOdjelS3O3uwdFZM1p/+6Z/m5ylf+peFWk9/rZKbJ/3lQUgFIbOc5lllPWUe/OAHlxFP9DP7xk1vetOy3SzkY6JF2VXW05IyW7BM3FvPFstWyjTA5gTDZjMS8y2NzA5wu9vdrpQJV8Y3+3kFbK4rcc8Cixx9/Y2W0ayTVfuF5RIgQIAAgUUEhNUW0bMuAQIEdhbY7UX+qMZMSTvttNNGieXjb/7mb37mM59pZnUS99yeGm44+eSTa2StGUpILKbMFMjP0WSBzAcpz3iqN3uW2z9rgxPZKQUye6smDhfyl/zEZUqZrDsKA9WSiSslllTvLU35TNdqPgOrNilNzb8US+G0vD9basdie3auXdjtQkJLT37yk7NWplCVmV+lhlCcfvrpWc6stKmHYT/xiU/MlJyUeexjH1vWKj9LhQnBZPRLQG2Ym+XEaGqd2TGSkq03Z1vU2Y53v/vdR5XkY5m0kjYkflHqya41Cg7OrjVMSYSrTLubP5KS1bOJsgtlAl2ZQ5f294d+uNGyfOyxx84mHsaU7MblaH3MYx6Tg2W2JUH+xCc+MZt+kFPq3bj75aUoWzBYSzn6tsBBFwgQIEBgvwsIq+33EdR+AgS2XCCvCZuKnSXillkn6+l/LtQTbijbSvShBD7yMTMCZmMQmSBQZgrk52iyQL3Hsy6UOTWzvaibG2Zlgl6en1UDfFk3c6kSLBuWyXICJTe84Q3zxKth5QnYJSXp6cuwfG1Jnl6XOyjLfXNpeX0D6bBwWU4MqBY7++yzZwvsIeUa17jGHtYarZKpXiU6VuaFldw6DeehD33oqHz9WOeahb36RKZQJzQzT6whxcocqDIDpVZem5GFNK/OlRsWKKuUcG2tp9w0OizWX95VGK5UVXAyFy8dzL89TJTrN+mw5Na3HPzsz/7s/A3IXp0Q8/Bp/fnYjJCWuHNqzh6SMiWGnhWzPByCchtmDtjShhIKz89RpC+rDCPgqS311KOytj8tqetmOZWUChM6H50BSlYO9qxbw/QpXFlqnc2FZpeHJUu/0s5hYlkumx61p4Tgc1ilp5WrdLNy5ZRV/waQSuoxWDcx7H5OubVwFuoZeDQco2aUqlImzx8sTSqAWW7K1GanMWU5bU4787Gs2ITKRpOb8rXlnYX5j7660VmZMhx1i7Vk2W52v9La5niVfa/s8ynQlB+6VfZSuETkRx2cchsVW/XHtU2XXnVH1E+AAIF9ISCsti+GSSMJEDi4Ap///Oc7nd/VxJxOPTtm1euuxB0Sginzespau7pZb3ZD5YFWs+klPDRKL8GsUWKun4cX4bmsKs8CGxUrHxMvS+ysXs0Oy2RWYIkGlsTRC9qGJVexfLOb3Wwp1ZbAUOKJtY+vf/3rS83NeFbdaB7YV5bf+973loW3vOUtZaE5v6yuOFzIdWk+Nq82S6SvNG+4Slkuq9znPvcpH0s9f/iHfzhbciol416iqHe+852nysymn3POOUnMDaAlq8SL05iqN7vKbEp5QF6ZKzebu/6Uv/iLv8hGS6xwzq0nGpIAxOhp/fmYxHrsD6vKkRKlHKQpU46aBGSznJjCrugyare61a1yCGfsAlgMU09qbu5FOeMlMpVWDWPrWT2Jw+btYbk+HPCe97xnM2BU6yzz2obniprVOSEnap+YfuXK6oUr566g5ZRV/waQruUcNTynDetPT/Mailo4C/kYq/zLiNf6MxxhGb3BI9qBzfMHhyfSLP/CL/zCFODojw15/0amOpaTczN6Xm7lvvnNb17b3FmY/+irf56pC7XaOs2wpsy58Pa3vz3yUSp/wsmIFPkojWpI4DK2cavspXBGrZypRuXzcdZttsww5UY3utHw4+LL658uvXib1UCAAIF9LJAXYzX/velNbxo+NNcyAQIECBwWgdmriOFXzkc/+tH1tKo+iSmPaipbHMZHymPsa0vywO/ayPrw75JbLpuTm4VaPgu1/Cg9WeWR8LVA7mvL5vJv2IC8Rq3WVjeRVbJuSiYr0/qG8bukN8tnlVJVypcVa7HRQtlKWOrj/0cF5vxYYYdN6qxbtjurVFfJABWrKr/jKmXd9LesWFuShZLSp6ibzkI0yiojljqtMgvD8mW5tDkDVLNqPbnirYlloe5dtYNpXmookrngH7V2tnytsFxOp8F1lSyU9tf9vBbOQpGsPklJDeXBatn6bNdKVcPyw9rKckWezdpzStlujpQ5a6jaOaZqL5JYD5nRaJb68zO9LlBxy+ZK+vBgTAOqf7MxZRP5ORzoSjpMrPVkKylfRj8FyqAksba8bKjAdo6U2faU/bD0IiuOel3Ld4Zsdg/JWrWFqTk4scq/+lDCst9GvnS2tiEF6hazMOp+6WwSy+r1ZxmOIcvIMAdIRqropdrk1paMAGuz6yincP5lrTLWSU9Hmo0sxYZZs8spU6hrJVkoKaUXw1Vq92vLa+7UQJeqZstnxdq1lMnqpQFVPmNRK89C2ll4s9fVXSJW9QtodKDVymfdhtXOLpcG52fdymyZ+VN+53d+Z/7CShIgQIDAjgKJjzXjZiXxKlN5wmo7yipAgACBeQQW/+126m6O/J18ngaMyuyhPfktv/7GXy+B6kVIskZXQfUSKFmjq5p6yZGFYcNq/aP0lKkXsSmT5bpWvSobpg8TR9elaXm5Okr5XCDVemqTkj6KCNQye1jY0TntqRe02XRaPs9WSmtnleq6Fb/K77hKXTfNyL+KXOVrgXkWykyWEX65Dk9Ws4ZygTrCL4NVG1NXrB0srR3+TE/r/jlbvoLUrGwxq4+uoktjmsJFcrjFspymNq+ES+5sF2oDslCRZ6sdgQzX6i/Ps91hDWXIZrsczJI1PF6yYqk/iaOdNinJGtVTx2u4xbJcziHRmx21st2hQK0nu9awfJab/S2wo8bMtmGUknGsZ4lUm2bMjmwdstG6+Vj2kNGIl8RUO4pblT5mK82DJeWH9Q+7P0yv5+FR/ZVlaDhccbhcutxsdpo3K1BPs6MzfzmhjfaW4YaGy7s6+mr3szCsJMtTA132itnyWaWOyCi3nKay4nATpVMhGu51pUCNrA2zSuVNt2G1s8t1fwjgaFeZLbxjyo5fQDvWoAABAgQIDAX6YTU3gZavXT8JECCwuQJPe9rTfuAHfmDUvvzmnft9Rokr+lhv88xVRH1u/fA+0HIvz4q2Pqz2Nre5Tf2YJ2HV5XofUL1vMVk/+ZM/WQtkIS2/5S1vWVLqvTzDAlnOs8lGKSv6mPuMvumbvqmOYK5Oh91Z0UbXU2251MwtacObAcste4985CNn25Cb3UrucI9KsXI1W+4pm11rNiVHxPOf//y6f84WmE3JkZXE+qDAUuABD3hAFnJnXPMuvNlKkpI7wnIj3uiGu2bJDUzMrliiJLOP3gtmGbIcL8PR/P/Yu//Yq6o73//wvf7R5BtEPvhHh3G8DNCkBgyMgEqVZDRRqHZmNFIB68x1rq38KGPiOIKCpmNUFEadiZ2CmJLbGBWwNRojFHAiyUBEQRuJmGkiUC5paZMBPiqTjJNM4n2Vt75Zrv3j7PNj73POPs/PHx/WWXvt9eOx9jmH/f6svbeN4sEHH4wO2m9/+9valCyZNWr73NCfB5KzZkfRyy+/nNxXj9cIyyttgQz/EEjuUjxHF0p/+OGHivhYjEMymln1sPigstrS8Rw9TtTGqONWz/0I97riiiv0UgdVmOlpDd/TSvi75rnnngvrF4tqVoEiLP7BGNZsaXU7efG45t3Mo8u09a7XXnfffXeynmROp959yZoL5mho/shX28UvhA+n2walwuFRZ+X9aUJ6SnLUaKpbVCZ6+dJLL1l8U2+3adOmZV2WG+2V9TLrr3FZ5clHAAEEEGhHgLBaO3rsiwACCFQh8JWvfEW3dtYfnxVc0zMH9VvPZ9y7d29HbnLfcAA6wfDoTxiA0DmGnRaqBoVFiscgGrbYQoF3333X9tKtf3J2b+quWzn1tL8pvLZXqy2ybtDTQkO//vWvW9hLu3RqBu3+aAoK+AMHPHDjIYCwh1ZMIYAoRmP1KK6RdaMrW2midSIKSup0VOeiulNSWHN+OqtXCiLYyW34NNWwqmhRj7phbwTdeqmdyFr4F1FLVxPk1U2gbHTJ6InyJ0+ebFv9jntOce6553o6TGTFrMMylraSuhOcJi76sUhrchflJKMbVsw/BFL3Kp6p+iV/6NAhHVcWXFNnnnzyyeI1pJZM3qvRcpLDyYK1aqPy/jK5l2+K+qN3uu6Xp6iNm4d/jYgKZz3l9rbbblPJMPqsG5BZKDD1bR5V2/K7L6qnnZfJGfHa/GhXP21QHnHzMkp4HDP5fJsst3D3KK3a9I7wNWttfiBzb7WIl5cIIIBAqQKE1UrlpXIEEEBgRKf+aKx6FID41a9+pd/33nvvOeec0xpus/3x4Iia0x2a7alq9js89Q2Ltdaxmu2V7zxu3Dgfb/LO4r6phcT7779ve/lCDAu/hjcpT61WN4Ww/HBJoOVkBbZS69HJoS2T8TWML774okpqeUsUOLPdbdGKzifDQ0tprdewAql3RvemFTtQUFJLdZSjSmxpiW/NSfid+LVsMGraTqQLLpSTsxq1xTuKrIXrXHJar2CTPUihYUNFVjM1rKS1ArZKTr91cEY/tin1gGmtrRb20nGlVUh2MGtm2wxztNCBMnZR5FeBGz2jQH8scXM74JtqTjhR9NkWNaeu6krW3Kl3X7LmzuaEf//obM3J2vTRoQC9HfnaWs2fzZLdIAcBBBBAoAUBwmotoLELAggg0IRA+3801m1WdFHSXXfd9Wd/9md6lpz+bK60qvVlJk30ZsSIZvvjwZH8Vuw5j/llKtiaswBBrXugwU4IS+1PvrPiBVpmpVNQ64NO2rUsoiP9sVinxQKsQn/GaH4TP//5z628P5POQkXK9E0Fe2gP1lRPLMZkXbLlLVENvmglyg9fFomUaaWV9fb+++8P981JN6xW57f5YmHlfgWlr3MJt1acttVzCpr0TowvVcDehtHqv3DVXnR1ZGolpWYqaKtrXa0JjzuX2mKplet5r/qoURMyD+/e5e/0plq3NbYWfdaRZouaCz41uLPvvqa63bOFN27caOs31UOtgW1I1LMDoWMIIIDAAAoQVhvASWfICCDQHwKffvqpQjMXX3zxn/zJnyj+8k//9E9aDqBLk7Zv36703/zN38yaNeuP//iP//7v/14BmpKGpAUa4ZK0nFZ0PpAagwgjMiqQdbWRX/mS00SRTX7NmgpHq5x04qdAg1Vy7bXXFqmt1DI6Y1fUwAfufWunUZ2J2WKH8PZGfs7sK0SSTfhZsSIyfu2Y1p1Z93TC3FSAxq8C0xpGD5x5Zti6LWRTEDAMpnhaZ/4qrKU0Rc4wLbCl4etitLCJ1LRfsBbea9zbVcIiPjliqdX2SKZfrK0T9YZd8sWJqWsSP/jgA6vBFz82rLB4Abul1y9+8Yviu1RfMnlx5YUXXlh9NzrSooXA9G2yfPlyv4Cx5ZrtImW943Tk2GplfVykXkocNdHCuy9c3hvVVupLP+x1p+pkQ/6V52+iZJniOb48Vk9O8HaL7x6VzF8uHRXmJQIIIIBAmwKE1doEZHcEEECgFAHFEbQwTbGz5E1bwvaOHj2qxRQqWdJisfDSznB1gwcgdPsh74+FSPTSlzsprYiMna7rVOqqq67Kutpo0qRJVo/ibnaxlZ+xeP1FEjob8ZVoalphEYsHqTbdSMhr8LiD5zSbUG26cnBoaKhIECench94TpmCmzRGu8u1olS2kMR21PmzRdYEkhqfEpGGY1PjN+G2fR9++GEltOmBBx5I7YbWv4RtWRmtxbMFU7qjuR0VYbQurEdd0ktb3RbmW9rjekWWTOp83oKATz31VLKqKOfZZ59VTlavtMkGlcoVVWUvrUKlw4M/tWQFmeq8UTz22GOp7yNlzpw50zapw/aWSa6v1IFhl+jabLbZ8+RFlDfeeKPqVOA+tZNtNme76+8QbdZjLCLymb3ggguszui9r6OlI8HxNjucs7vF3KPbfmmWW1PS29NWxeoPGPYOLXictPDu88uBw7/TaKQ6cnSQ5wy55XtNep324amYl32VeL4SusmpfuvYaD8KpnpsdpRIvY+b8pv6Sb6dm9qdwggggAACTQkQVmuKi8IIIIBA0wIt/NFYoQ3dxaz4+cBHH330ve99z68ozO9iU/3xaJ3O0lNXN4RLkHxdm5Y7+QopRWRmz56tCJQeqJcVU1OH/axJZdRWeGut/OEkt9qpjuXrFkJ25yzdqMuvr1HfkpGgZD05OQoU2vmzeuvxlKh8U87a1y9Qjepp+FIne+qPAmoao/qjczyfNd9Xy+IsdKLjSiU9iqF9FQu47LLLDEdB0miWBeUhOQViFEewc0vbUTFB3RhOsUVvyBMWuJSSHRX2eE3fagnVZodEeBRFZexEXZUkgzJRSb2844479FuN5hdW561XOdFVu5ZN3WsYWROmlKxCLTPxtX7J7lWZY49oVP91VCj06TOuhB0qmvFRo0apS+qw7tWohIaggXhJzY6CrTrV15FjVw621n9fZ/T444+rBk2NxdmVnjdvnh2WCrjL2Q4t5asP6rOOLu9MC03bmjL132ZQVYW16WDWh0z4OaDDWDIq7AePyvvMishn1mP3t956q41Fu2hfvbla6GeVuyQjRBqjzXJr3bBVsUKz4//222+P6pGMYEXtCz9bfvfZR4EORatK9eggyflTjUWWn3jiCZXUTxQDjfqZ89KuK9eBJCivJDw27MaOOTUU2eRHXZHClEEAAQQQ6DkB3Soi9UernX0xAgkEEEAAgZYF9ATPpvb9z//8Tz36s7VvC51FN2yreH/8j+fqjOIFWTWHKxTs4YwqqaVtdsIcDkQ5ukmc5egEL6zQLvcLCyttBXQbIM/3+m2T50e1qbe+KUqoZHTdn51qWrGwSzlpdcOr1fBTSxZ09tajIaTWqUwv7x0IE9qqWUvdV8J2nhmW97SmRjG11B3De8B5eU+oxcjTKlGml1HlqTXbkZN1Bajt4geGjhzLcfzoYNBWP2IVYvYWk+X9IEztue9oB3A4v/n4KhlV6ALJhGuHh3eymLbqx7vUVEIDtyEkq01Od1ZQXiW3bt0atWsVJv3VVdsUlY/c9NILpH5QeIe11Uv6PHqOJ6z+sFpt0lxEww8lvQmvJCrsBZQIDycrH67S9ZI6ku2TJ2xI5a17UabyjSvqtvJTR5qaaZ2xDiSnI9muV6LBaqutNdPuloh6mNzdmgt/h2/z1Deyt+jDbPndl3qoaCBWodfv3TNenx0lfFPW0Ly3EWbqdFvNEZqayKrcW09NeNOqNmo9tXzDzIJfQA3roQACCCCAgAkoPpYaN7NMVquFX7ikEUAAge4L/O53v9Nd1Vrrh5attbZj6l76nrB8nbrcfPPNqWWUGS5E8jsxadHTrl27LG6iMgro6PTjww8/vPzyy+30NXrMmcrrXMJOSLy8teh3MtKOvvLFNnmcaPr06ZZjvx955BHVppNhL6B91RmdHenOdL7qxAr7Qjk/yQyrSk1ruYp1VdWGw08t3NnMyM0qV2d0Pq8ha3Q+nKhdCetSLwnIwabA99V5qaYmXLkT7isuLXZL9VTAJelp+2ovD25mhWx27typwllXgFo96rbNiw4ny7E1VkpHB4NyNHY75KzmrPJWlUpGR4KV99/W7bCqVHwdY6pKPlqzE1UYOnu1USL/IRtR4aZe6ijVtGpy/W2l3YWpd6KWqkXTrSmOjg2V1AyqZNbdsnwivFc2luSon3/+eWFavrjs2k/bS/OrTqpL4bvPjmeFUbTVK7dEsnLl27xEs6O5CD+CVH94Ayxrzo4Wq1mFNV417U34zAon6ob0dPB7n5WQ3v79+3NmM7nJcqJuq6EkrLfuffMcJSwzuVeyZh0SUrVRa1GnwtCaF+XYezDZQ1WemumtC9nf3eH9HL2A3qTWPZ/0lt99OhjCCdXs2HdKeD9Nb1cJ3T9OBVRMafXB+6mXJpMcmht6wirUdEcfgKpWFSpTrViZ6Hey8qhA2S+bXS5ddn+oHwEEEKi3wEg/a4rGqfv16GbYUSYvEUAAAQSaFdAtTpr6D64+fvUggmZbsfK/+tWvovvmJOtptj/JGsgpIlDQWRcW2fWkOp9XiKpIzZRBAAEEekRA0WS7+lUr16Kwco/0sC+6oauJdbcE66qidQqAttntgl9AbbbC7ggggMDgCOzduzfnJOucwYFgpAgggEBXBJqKqVXQw+L9mXj7/62gP7Vp4vDG/xmOpaCz1tlZWE1LyXQDIM5LQ0PSCCDQ4wJ26zEt3eKzq52Z8oXeqsQfjtFOheyLAAIIIFClAGG1KrVpCwEEBlGg1/5oXLw/UZxoECevjTEXdL744outEV2Qpacr6GKlU6dOtdEsuyKAAAIVCWiNld3Q0B7xUVGr9WrGl/vZsHR5KQHKes0wo0EAgYEQIKw2ENPMIBFAoI8E9LyCP/3TP22twy0/66C15tirfQE9BFOhNHsgpmrzRPs1UwMCCCBQqsALL7yg+hUJyroBX6mt16PyY8eOhQOxxxmHOa2lCy6Xbq1y9kIAAQQQiAQIq0UgvEQAAQS6LPDVr37Vburc5X7QfCUCWpig6X700Ue3bNmiBsO7y1fSPo0ggAACLQpopZX2vOeee1rcn91GjJgyZYr9ZUXRScXUsp6B0CxVweXSzVZLeQQQQACBVAEeWZDKQiYCCCCAwAjurdbUQcA1s01xURgBBBBAoCQBwmolwVItAggMrACPLBjYqWfgCCDQEwK99r/b4v0hTtTOAVTcuZ1W2BcBBBBAAAEEEEAAAQS6KPD/dbFtmkYAAQQQQAABBBBAAAEEEOigAPdW6yAmVSGAAAINBbi3WkMiCiCAAAIdENDaJatF/9ntelo96XofesGh7D7g3DvHfNlzXXb9kiy7CerncOUYqNkxoAm1EfEbAQQQQKBUAe6tViovlSOAAAIIIIAAAggggAAC1QlwF4LqrGkJAQQGQyD/3mpcBDoYRwGjRACB7gn4urDudeFLLfdaf77UuRq9wLlGk8lQEEAAAQQQQAABBBBIFyCslu5CLgIIIIAAAggggAACCCDQdwJc/tl3U0aHEUCgrwUIq/X19NF5BBBAAAEEEEAAAQQQQOCsAMulz1qQQgABBMoXIKxWvjEtIIDAYAv02h+Ne60/dT06cK7rzDIuBBBAAAEEEEAAAQRcgLCaU5BAAAEEShHotT8a91p/SkHvgUpx7oFJoAsIIIAAAggggAACCJQrQFitXF9qRwABBBBAAAEEEEAAAQQqE2C5dGXUNIQAAghIgLAahwECCCCAQD8JHDlyZNKkSSNHjhwaGtq2bVs/dT2jrwcOHFiwYIFGpJ+5c+dmlCIbAQQQQKDOAvpG0/eavgj0Hbd27dp2hspy6Xb02BcBBBBoVoCwWrNilEcAAQSaE+i1Pxr3Wn+a0xwx4vXXXz98+LD2Gh4efvbZZ5vdvbLyBZ1Pnjx50003bdmyxTq2Y8eOynpIQwgggAACvSNw8OBBfa+pP/qOW7FiRZuRtd4ZFz1BAAEEai9AWK32U8wAEUCgywK99kfjgv3RorBVq1bNnDnzzCKqzxdSKUf5XQbtk+YLOnuU0IY1ceLE/PH5ujafFyU0TUuXLi2ydk8r46JptX337NmT367mXed4Wkxn7WpJhXqyefNm38s6pto8JzVhNai3OVvVRM75pIYQjt3SWtyhOlNH4eVzDl01Z/XkrxZMxdcu2l3h0eSIbOFJqJQss2HDhuRwPEdb9ZPcq3iOjgp12xZ4qlpNEO/iHD0dJDqQnEuJ6DjP2ZdNTQno3Spbe4/YkZn1Fm6q2jYL6+2md7TeI23W09ruo0ePDnd85plnwpekEUAAAQR6V+B4xs+bb775GT8IIIAAAm0L/PCHP2y7jk5WUKQ/mzZtGjNmTOpX15w5czrZm+br0p/xLfakHm7durX5Cirao4izurJmzRpz1qBOnDjRsHPyT50Xy5wxY8Z7772XWokqX7lyZc6+8+fPz+pA/vFgez399NNWeVYH1CtbZqhiqjDZSd+qAtJIFrCc3bt354xCY4x29PJKRJv8ZRjNVDc8P0rk4Es+qWf91BRH9YQv/QBIHZRU9ROWL55Wf7I6rPdO6hQUr7yWJWWSOgvKzDl4aklR9qCWLFmSRV120/n1+1smv1ipW/WWd5xSG6JyBBBAAIHiAoqPZUTOfp/NajX/5iKBAAII9LrAp59++s477/zHf/xHqR3Veo2FCxfapSilNtRa5RMmTDh06JC+BU+dOnXddde1Vknv7PXGG29YZ7QuZuzYsQU7pnM//3+AoicKL9ppqg6Pq666SuuzkvVoCcbq1auVr309HGn72pmkLkT9zne+k9xRi63seFDsSXEHCx7pt9LK0VWrGzdu1F7z5s2zfV988cVkJZajpXlKKKZzzTXXJMv87Gc/U6YNRLGthovvwkiHRqTAlnbXGFPXrCWb8xyVV3Pa3Wqw4fjWZCIMk2lHi4tJ/oEHHkgWLp7jExomFp35KV6Jl9TqOc24XVMsUo91KqGXendrTr1wqQlbLahFSaW2kqxcy460BkrroZKbUnNsnZo26TDwQ0tcml8d56NGjUrdi8wWBPTWXr9+vXZUKN+j2DLXkRkGuFuouf1d9P2iSuyjoP3aWqth8uTJvmOzn2a+Y8Hl0l6eBAIIIIBAOwKE1drRY18EEECgsUDBe2w1rOhf/uVf/uiP/kjXcP3BH/zBc88917B8VoGG/Xn88cd9X639CcMoOgs677zzfCuJHIGGzjn7NrVJwTiFF9etW6fQkiJWipjoZm3RNYm6SlFxH1WrGMH27ds9HGn7KseCWYrCRFcsKiZi8RedZ7799tsKUljsT7+VVnzTdlTNytHhoYTfJy45ih//+MfK9EqiAnbFk+JIVs9rr70WFch5qRF5u82eT77wwguq+btnfpTwenKa8006CV++fLkhWKTAN3U38f3vf99mXNFPHRtTp061/iihl4oW6VCppoenT59WQ9WH6T/++GO1+9FHHxUcpmK+1kkdAFd4g9TTAABAAElEQVReeaXtJS7Nr45zByxYG8VyBOyemIqg6dPGwlgqLHMdmaLO2bGCTeqD4tr79++voC2aQAABBBCojQBhtdpMJQNBAIEeFWj2JD91GFqn9u1vf/u222777W9/e/fdd3/ve98rfroYVdiwP+EtqB555JEwjKKzIP1EFeqlMrU0xm8IpXSymHKsgFaRKOij2+jYS0V8PK0VW1Hl6ozffMeWL3mO8sMFTXY7JFsUYwtPbEf9Vv3hoLyJ6OY+3n9LRJEp38sSNt6oD2GZhs5h4Y6kFVp69NFHVZUWgNjKL6tWA3nssceU1qo0xQhS23rooYdsncj9998fFrAKFYJRrMGOhHCr0joL9TpvuOEG5aj11BUWmgIL9HzrW9+KKtFLWzKmPih+YfUoSpU/BVElOj+3ZXdNvTXUhB2rWkBna+jU//C4ilpJfTl+/PjU/G5lKhhqwUGFxVOXawlZiz271b3ebNfCcOqbB3p6s5816JW9Q5Of9jUYGkNAAAEEEBhMAcJqgznvjBoBBPpMQKtL7FREd135r//6L7satIIxpF5OGLarqIQCTFrQZJeb2SallaOFdWFY5NixY7ZVCe3iS3t0FaQvnElGNHwJifY999xz9Vv3L7BFJfqt56ZZnfqtffVbmYqJaGmV6vdiSisniqwpmDJ79mxFH6yY1+OJf/u3f/N0lFAMyMarfTv1NNKOLAPUUi+Ljtm6MOu2G955553RQPylrzUTo0+6xCw6o9BMkViDitlU2vovr9y7oYS652vlwgK2i61T83rsotGwWH46PN7yS/pWw9HhoQHqp4WFcl5V7yT8KQe333578V7pqFYA2sLTiiwroZepEVJtTcavrXw4BXYZpt5l1gcPW0eRPu2i2Lo+LqxAVhxcPVEB21dpJay8dtTu4TBtkx6kqEy9T71dZwkLJ9OpQw6L2bhMIMxX2pqO+mMheL2tNFKRakd1yYbpXPo4cgFV4u9Brz8cvj7ivLASHgXWG9br13RE3bCqVEb347cumYzSqTLebXXG0uqz+qmXtmMqlBrVVpX3nmcl9u3b58PPKmP5Nt3mpso1ZAuFR3tlddjnK7U528utrP+agrByr1k1qIC9R9Sf1JnSjiomZCtmVuHv5OSGbXUqXdly6U51mHoQQACB/hbIuu8ajywIb25CGgEEEGhZoOCt67Pq19Uot95661e+8pXoy+acc87R/+n37t2btWNWfsP++GV9alFREl02aNeBplZoYYiob/5SVfledgsqq9MLKKEaFDT0nHAX7ev1qydWlW7B44VVp9fvmVmJsGaLwWWVVL6ayxl12Af10PsQJho6W2FbYKUWw7GE9URpK6/fUb6/9OcSeP99Qr1MasIHpcsGrYASRuT3YkvdMcy0tnyywk0KXam25CMFrIx20VYdCfbS6kkdpvdTibB+P4oiyazytq8dYP5YABty1uwbflS/6smaFNNLlg+7ra1WLMxsM22hVYEXr8e7YZ0JfzuO12Zb/fAIC6tRP/DCO6+HZcK3jGbNeqsCYtSPHQl66cehtWvzqAJ+PId1KtO75x8aYQGlkwPxXZTwzwR1IDq0wmJKu1WUr5fqnhqKZtwy1boPzTsmLrVrBTxTCZVUflh//vBlpZ9k/dHbzd8jYVuWDgGt3dRu29BsypK7aEfbFLUbDkRpddUateFHW6OX/oGmmtUl7eL7+pFmu2R12GdW7UaV+yb/iLPJVVVhydSarRsy908t20V1+kRoR9vXCtvvqHzYkKU1Li+ffygm9/Wcgl9AXp4EAggggEC+QP4jC37/Z//UH8Jq+axsRQABBMoW0PWefosf/092MnH55ZerZAc742ca3pZOEnRuo/yoFTvTs2I6G7GTHBULz3t9Lztd8TpVRuW11Qr4qbUSYSthecuPGvXCXlIJVWJnI2FhjcILh6dq1gGV9HOh/NNvq8ROlrSLn4955U0lvFE7X224r7Wr31kl/ZTVBFSs4S5WlZ/LeU98ymxms1oM86VhExGx+Pl86iml9VknzF6V12Oz4/lK+Jz6ANU91WCSmvqot8nyXpsqt976LkpYTvIMXHuZpPsoRzXY0a7Wk0OzqsLy3rQnHNlz2k9Yu/mhjbAV11ZAykehTA9hRLNp9eu3Rm1QcvP3VPT2cf+wRU9bE/odTrSThplej9pVeZt9FbBJUab33Co32Jx3ivfBE3Yc2ui0YzRqL5YzZckjRHt5D1WzcGSlH/+QtONW8jZY74MKeItKRMO3wSrTdvffNh0hS2SoN4hmyvRUrbZ6TyJA77bPsgrrR3vZXCtfA0ntpBULN0Vpb1QmSkdNe2E/MsODSoVtvNERntNhO8zCeK41YVMZfumkHjZes3qrAjZqn6moWr1UMbXoOEpYB8JR+BhTE6rBfrIOwtS9wkzCaqEGaQQQQKB9AcJq7RtSAwIIINC6QGv/u9UViF//+te/+K91g3+/+tWvqnzBLhbpj04Y7LwlalinMX6qoOb81EjnDFHrvqOfFfi5qDZF5yHa187TbC8/xfJzKuV7PeHpper0dr3F6GTPO6kCXthPk+ws1PK9h9rqJVtONHSWZNi3hiei1hPreU4P3cfPnBvu4mM0Q1d1EC9QJKFzVNWjoYWFbX7D09dwq52IRuecdgR6Z7y8D9Bn3BMaaXh82i5e3kG8KrWofaOj0TqTKmyS3pwn1FU/Pr1yJaxAcghhGUf22jwRgYR75aeLtBvWYFOWHLIwbVP0Brf6lRkdtBY7iOpx/7BFS1tgInrD2iZrNxTwenRohbOsdOp4DTbqTLIPUY7m0Q48q1PdSM6sT1m0r17aERLNuGWqWv9ksx1tjGoo9c2i8mH94fDDfA/uRPU7S2gY7himbcip3Vb3kgKad/MJPz9VoX2gRUdL2FCYdkarSkqRjwobUdQx5fuRE1ZozqkddqXoiLX6w/Cc9UpVJWuWUvQZ4l9bYWEbToRmHVBzYcmctB8bwkyy5Ozomxp+AXlJEggggAACRQTyw2rcW82+/viNAAII9JCAbhl21VVX/fKXvyzYp9/97ne6gVHqnW4K1hAV0+Wluru8nSOFm1avXh3eNMfvVqbC4b1jlPa9wtufeWbyti8333yzb/XbtPmzIHU+k3pDLt8lTFx66aXhzfXD28mn3lsn3LeytG6vc/755/sN5nTSpRt7VdZ6qQ1ZWEo3Pwq17R5t99xzT7Jpv4ObPTHAC9jhZ48H9cychM4/n3/++XDqcwrbpn/4h39Qwp6Q4IX/6q/+SmkdhH54+6ashG6xd/311+tuSlkFejlfh6JFSZK33hOmTZne4OFs2nAefPDB6KDVY1W0KVkya/ivvPKKNunTJjlrdhS9/PLLyX31eI2wvNIWT/FnDiR3KZ6jz5kPP/xQoSiLa0hGM6seFh9UVls6nqPHidoYddzquR/hXldccYVeZt3zUcMPC/u7Ro+HDusXi2pWySIs+swM6wzT6nbys1fzbuY/+clPwsJ2yzM9VCfMzErrUSfiVWTKgnp6x02bNs3vcaa9/MicN29eVImNWkTJb73UDrtSeLtGr7/gLQhVc7R+/Jvf/KZ1LHl42J1Ao24Xf/nSSy8Zi956YtEt84rvayWTX7LN1kB5BBBAAIHiAoTViltREgEEEKhI4C//8i8VKWuqMa1N+Ou//uv//u//bmqvnMI6cdLJnk579Nd7+/+9Fdb/8v3+1h7/yqmn4CadEPrf53/605/aXjt37rSETmsL1pNfzJ9C4OGAJ554wqInOj2zx2WqhunTp+fX0/7W06dPeyUS7tQAVeevf/1rr7mpRPEoUn61FiHVGa+fwfrpq5/chjVYMYUAfFJsq9WjIzB55mwFbOWIjnwFJXWI6sgMY75hE6nprF4piGAHfPg01bCGaO2MumHxEQWd24msJf9SqgdQhO2WlH7rrbes5mT0RPmTJ0+2rf7e8W5kBQ40EV4mP2El9TbXxEU/FodN3T2MqYUF3n333fBly2nVL/lDhw7puLIPJXXmySefbLlC23H06NFRDZaTHE4WrO0elfeXyb18U9Su3un6DFekxs319ICojL8M/yzhmUrosdT6HUaf9eQECwWmvs3DfT2tt7weNq04pn/L6EET/gQGP+TCrlqfv/Od73glUSK1w6KwN2n4LJcXX3xR+yY/eaIK/WVyBn2Td1U51tBdd93lsTaB2xOWr732Wt8lP6EvRL07/DuxhQ/n6h9FnT8itiKAAAL1FiCsVu/5ZXQIINB9gWb/aKy//+uijxb6rfNALbJouGNT/dFpj9YU6LRHf6j3mlOXkPjWKDFlypQoJ+ulnY1oq04ndBbhUQ/lfOtb38raq7X8W265xXa0Uxctr9NyP18eEi6da61+7ZXvPG7cOK9ZZ5LthGO8Hku8//77lvCFFfaM0YYxUN1o1Xb8xje+EdWZFdiKitlLnRDaMhlbi6RMO33V8pYocGblbcmYJiJa8Kg1GlYg9bmitkm/dcKsoKSW6iitSlIfEeiFw4RHh7VsMGrajoSCC+XkrEZt8Y4ia34uHbbVlbSesVuk3SKrmYrU00IZxUy1l37r4Ix+bFPqAdNCQ63touPq7bfftoNZM9tCaKO1dkvdSx81CtYsXrxYS2Xd3D/6ijctnCj6bIuL9U2RFc7Lqlzl9S2za9cuq9BXTfrDo72fYUK1qfyoUaOyqo3ybRWqfbnYJgvdFlxbF9WW89I++dWQPlgsCChwHc/6Ha00zKlEHyP6QrR3gYp15DnROc2xCQEEEECgTQHCam0CsjsCCCDQQKCpPxp/+umnurSqQY3Zm/WX/48++ih7+++3NNUfq0qnPdFlSpbvf0tXTCG51sZyUpfA2O7Rb7+gRvlawaQzKCugc6filUR1Zr286KKLvPNRGYUmw2upoq3FX+Y7K16gZVYerNRJu8KIxSvPKWnnihYLsGKXXHKJJfKb+PnPf27FhGMJCxUp7Zssv+Hv7373uyqjnliMybpky1uifcPgabTJXxaJlOkIsd7aqhDfNyfRsFqd0+aLhZV7LCBctxIWqDJtEWq9g3onxpc6fAujRKv/wk+S1I+d1KpKytRHn38ge9y5pLYqqFaXWOqjRg3JPLxjl7/Tm+qDrbG16LOONLukveU/gehT1z4PPZbkq8PCQyJMnzp1qvhntT4i7HjbuHGjhqk1cdZQ8bV1BXEefvhhldRY9CFscUAlBK4QbfGAozqpwJy1qPWwDT+sCvaNYggggAACJQkQVisJlmoRQACBVgS2b99+9OjRVvY8s48uHfUlQi1XUnxHj93oGqL2T+C16sdOe9QBrVzwS0Ht5K14r4qU1DVEdk6lAITF19S00jqBqebKO3XSgpUe3fMwYpH+Z5XR2ZeNK1yC4efMvj4rubufFQvBz/10ymrd0wlzU/PrZ6oKj3rgzDPD1v06rPBs2dO2bFNLaYqcVVpgS8P3i8jChqK0X7Cm4KY3FybsUMwRiyrsqZd+tziLIOT3zRcnpq5J/OCDD2x3X/yYX1tTW+2WXr/4xS+a2qviwsmLKy+88MKK+9Cp5iwEpoiPVocVD0hltW4flXrH6cixS7n1cdHOn0A8jmYt+gXIxaPbWV21fAvbWZS/5bV1+U2oq/ok1zejIsL79++3jxQlBO6fq/k12FZfKqt7z7X21stfLl2kD5RBAAEEECguQFituBUlEUAAgdIFWrv8M+xW+2cguiBO97JR3MEvelKdYWzr6quvthb97F2BD13t4uEMhWCUViWTJk0K+9Yw7a3ozMf/Vt/y8oec5jyGdd999+niWZ38aOGDYjfFT2A0XkENDQ35qHOay9nULFFOVZommauATupcUi91/myRNUXHUuNTmi8Nxy4EE0jYhK280KYHHnggzPe01r+EbVm+1uLZgild0WyBszBa5/sqYStcbHVbmG9pj+sVCRbrfN6CgE899VSyqijn2WefVU5Wr7TJBpXKFVVlL61CpX2tX2qxajLVeaPQ7QJTPxCUOXPmTNukDlsMMbm+UgeGXaJrs9lm5/3zxOu58cYbldabPbWTXqydhN7d7eyufY1FRD6zF1xwgdUZvfd1tPgHS5uNlrS7xdyju49plltT0tvT/rKiy7TtHdrOcaJuWCzJ/wzgf2h59NFHOwLit2vU8WZv7Y5/udhNM/XllRqkLj4KmymVDxdxF99dJZNv56Z2pzACCCCAQFMChNWa4qIwAggg0LRAU3809rUhTTfzxQ4Nnx9apD8Kduj5dzozt3tO6S5X9hd+NaJMf26an70rXycS2sXK654ySqsSPzf4oncN/k2e5Ohstp3lD1nt+To7Dc36bDEyRZd076Hk+X9Uj06Z7PxZ8SaPp0RlijiHuxS8E1a4i6V1Oqr+KKCmsag/Egtvy21ltHTCQicLFy5USY9iaF+dXl522WUWxNQ92qM1LJpiD8kpEKM4gnZRnbajYoK6MZxii8leWchVSnbk2I2NomKqzWJ5qQvZrLCdqKuShpOi8nfccYd+q9H8wuq89crjwlHH9NIORXWvYWRNmFKyCrW0pKk1Kcl2O5Vjj2hU/3VUKPTpM66EHSqacbsvlTp87733ql0NQQPxkpodvR30FtaRY1cOttY3v43g448/rho0NR5x0BMe7bDUg4/lbIeWyqgP6rOOLu9MC03bmjL132ZQVYW16WDWW17j9Zp1GEtGhf3gUXmfWRH5zHq459Zbb7WxaBftqzeX19abCXsvK3oVUtsst9ZhWxUrNDv+/avBa5OMYEXtCz+lqhx9zPqHiQr7waZ0eB136pGpzqu8pkY/3lCRhMcBb7rpJr019F3W8S8XD1LrZp3+zaIjWcg6QvzIz++tH4H5xdiKAAIIINBDArpVROrPm2++GV4NQRoBBBBAoDWBH/7wh8V3/PrXv97mN4RCWvnNNexPTgcUjQrvyKOG9NLWxaTupU3eGd1cxsvYMxx9U5iw02wvqahKuFVp7etbVadv9UydOnqmEqnt5sf71IdomGGFSod9SPbQCjd0tmK+NCPqdtSiv/TyPt4woa0amhcOE/kzpSErphaW93R4D7iwLUurxdTrKJXphVW51xYmLGSmgyrMjNLqttWje97ZJsdPHkU+rbray+tJlvcne6T23He0QzGc33x8lYwqdIFkwrXD4zNZTFv1411qKqGB2xCS1San266PSy25devWqF0rlvRXV21TVD5y00svoPnN6qSqCt+GPo++ryes/rBabdJcRDWHkj5SryQq7AWUCA8nK6/pCwtYWkey4qpKhw2pvHUvylS+cUXdVn7qSFMzrTPWenI6ku16JRqstvpfFywR9TC5uzUX/g7f5qlvZG/Rh+nv6CSgcvx94a1kHZkqHL43Vb5Ih/29r901Wd6KJ1InJatmH12Ir/dL6tAsMzlAb9oTXq12CWv2AkUSBb+AilRFGQQQQAABCSg+lho3s0xWq+V897EJAQQQqFpA9ztv86vr3//939vstP4fr/MNO5GwqnQOphMYnQ/oHjHRaia91J2Yda4Sllc0TeWVqU3eGb8hkWrzBSy+1RO2PMHbTa5y0hIbPwEOHzPq0b3p06d7bUok29ViB3UvLBOltZAh67JEK6nlKjZe9STZw6i2zr5MfSScOqMp08Tp3nxZD0/UTOlSL02ixu6A6pv21UzpYa9ZSz+0SEeL3VS5zm8dWTWoHp1AqkVfxROOVJkWYlBm1onxzp07tTWf2heY6HZ7Vr8/+y95FPnFp1ZzVnmrSv1P7bntpd/W7bCqVHw72uWjNTtRhaGzVxslovtJRVvbeamjVNMavTcV+1DgQEvVounWFEfHhkpqBlUya0WPT4R30saSHPXzzz8vTMsXl137aXtpftVJdckiO5Zpx7PiL9rqlVsiWbnybV6i2dFcaKL9na76/S5y2sWa863KUWH73PMmfGaFY637b+np4Pc+K2EfjzmzmdxkOVG31UQS1tv1vnmOEpaZ3CtZsw4JqdqotahTYWjNi3LsPZjsoSpPzfTWhezv7vB+jl5Ab1Lrnk+65lR02ss+Qq2kAJWj/kSHpbbah4/67GO3eRH4j370I2/IE/kd9gWSqi25ts4rSdJpU7JmN/eEvlx+8IMfqLDed/5VruCjHy1as+atlJpodrl0qZ2hcgQQQKD2AiMVXUsdpO6ZPWvWrNRNZCKAAAIIFBfQLU4K/gdXt7Wy65WKV55aUmcOdkek1K3F+5O6ew0ydTnS4sWLNRCdWb366qs61bRB6dIbnVfb1UzK0UlRO4Mt6KyLg+x6Up1kKkTVTovsiwACCFQsoO8su/pVwaMorFxxT3qhOV28rOviUz/MdQWorgxVJxWC9y+d1D57ySKFU2tQZsEvoKzdyUcAAQQQiAT27t0b3Zw0LHBO+II0AggggEDHBQrG1NTuX/zFX+iOSHqaZzt90J/Zw1UAyaoa9mfi7f83uVe9cuZO+N9HbUT/6/+MGPF/fLz/Y8T/v2bC//78QrZmHQ5v/J+hUkNnK6y1dRZW01IyrXTgvDQ0JI0AAj0uYLdC01ozPrs0U3aLTH+qTzh3n3zyib30Z1+EW8N0eIvVhoXDHUkjgAACCHRLgLBat+RpFwEEBkWg+B+NL7/88t/+9rdluzTsTxQeKrs/1dfvq9VymtZVacuXL88p0HBTQ2er4eKLL7aELoDSffG0gE7PJG1YOQUQQACBrgtoXZXd0DD5tJmu960rHbBr8PUEXl1xHC5JE5RdHKo/euXEH33pn3Vel7vmFO7KAGkUAQQQQCBVgHurpbKQiQACCCBQWwFdJOs3RUodpFZetBlTS602NVMPwfR7BqmAbuuWWoxMBBBAoNcEXnjhBXVJ0Z+sG/D1WofL7s+iRYv0ea6PcV3vaQ8A1WX+SuilblOo7x3dZzCnD8eOHQu32qONw5zi6YLLpYtXSEkEEEAAgRwBwmo5OGxCAAEEEKihgP7+r2cv2A3adULoI7TbZuvGN8k7lHuZjifUmfDG6vkX8Ha8dSpEAAEEWhawm4Hec889LddQsx39ERz6JNc6Pl3grx8tQNYjF+yhFvmrz/QQHvsri76Y2lwxreXSNbNlOAgggEAvC/DIgl6eHfqGAAIIdEGg2XuKdaGLPdlk7S+e7Ul1OoUAAgggEAsUvAtBvBuvEUAAAQQyBHhkQQYM2QgggEAlAr32v9uG/SE81JHjoqFzR1qhEgQQQAABBBBAAAEEEOiiAKvVuohP0wggMBACCq9onLrRiSVI48AxwDFQ/BhQSbiKc2GFFceAHwPcYU0U/CCAAAIdEchfrUZYrSPIVIIAAggggAACCCCAAAIIIIAAAgggUDeB/LAajyyo23wzHgQQQAABBBBAAAEEEEAAAQQQQACBCgQIq1WATBMIIIAAAggggAACCCCAAAIIIIAAAnUTIKxWtxllPAgggAACCCCAAAIIIIAAAggggAACFQgQVqsAmSYQQAABBBBAAAEEEEAAAQQQQAABBOomQFitbjPKeBBAAAEEEEAAAQQQQAABBBBAAAEEKhAgrFYBMk0ggAACCCCAAAIIIIAAAggggAACCNRNgLBa3WaU8SCAAAIIIIAAAggggAACCCCAAAIIVCBAWK0CZJpAAAEEEEAAAQQQQAABBBBAAAEEEKibAGG1us0o40EAAQQQQAABBBBAAAEEEEAAAQQQqECAsFoFyDSBAAIIIIAAAggggAACCCCAAAIIIFA3AcJqdZtRxoMAAggggAACCCCAAAIIIIAAAgggUIEAYbUKkGkCAQQQQAABBBBAAAEEEEAAAQQQQKBuAoTV6jajjAcBBBBAAAEEEEAAAQQQQAABBBBAoAIBwmoVINMEAggggAACCCCAAAIIIIAAAggggEDdBAir1W1GGQ8CCCCAAAIIIIAAAggggAACCCCAQAUChNUqQKYJBBBAAAEEEEAAAQQQQAABBBBAAIG6CRBWq9uMMh4EEEAAAQQQQAABBBBAAAEEEEAAgQoECKtVgEwTCCCAAAIIIIAAAggggAACCCCAAAJ1EyCsVrcZZTwIIIAAAggggAACCCCAAAIIIIAAAhUIEFarAJkmEEAAAQQQQAABBBBAAAEEEEAAAQTqJkBYrW4zyngQQAABBBBAAAEEEEAAAQQQQAABBCoQIKxWATJNIIAAAggggAACCCCAAAIIIIAAAgjUTYCwWt1mlPEggAACCCCAAAIIIIAAAggggAACCFQgQFitAmSaQAABBBBAAAEEEEAAAQQQQAABBBComwBhtbrNKONBAAEEEEAAAQQQQAABBBBAAAEEEKhAgLBaBcg0gQACCCCAAAIIIIAAAggggAACCCBQNwHCanWbUcaDAAIIIIAAAggggAACCCCAAAIIIFCBAGG1CpBpAgEEEEAAAQQQQAABBBBAAAEEEECgbgKE1eo2o4wHAQQQQAABBBBAAAEEEEAAAQQQQKACAcJqFSDTBAIIIIAAAggggAACCCCAAAIIIIBA3QQIq9VtRhkPAggggAACCCCAAAIIIIAAAggggEAFAoTVKkCmCQQQQAABBBBAAAEEEEAAAQQQQACBugkQVqvbjDIeBBBAAAEEEEAAAQQQQAABBBBAAIEKBAirVYBMEwgggAACCCCAAAIIIIAAAggggAACdRMgrFa3GWU8CCCAAAIIIIAAAggggAACCCCAAAIVCBBWqwCZJhBAAAEEEEAAAQQQQAABBBBAAAEE6iZAWK1uM8p4EEAAAQQQQAABBBBAAAEEEEAAAQQqECCsVgEyTSCAAAIIIIAAAggggAACCCCAAAII1E2AsFrdZpTxIIAAAggggAACCCCAAAIIIIAAAghUIEBYrQJkmkAAAQQQQAABBBBAAAEEEEAAAQQQqJsAYbW6zSjjQQABBBBAAAEEEEAAAQQQQAABBBCoQICwWgXINIEAAggggAACCCCAAAIIIIAAAgggUDcBwmp1m1HGgwACCCCAAAIIIIAAAggggAACCCBQgQBhtQqQaQIBBBBAAAEEEEAAAQQQQAABBBBAoG4ChNXqNqOMBwEEEEAAAQQQQAABBBBAAAEEEECgAgHCahUg0wQCCCCAAAIIIIAAAggggAACCCCAQN0ECKvVbUYZDwIIIIAAAggggAACCCCAAAIIIIBABQKE1SpApgkEEEAAAQQQQAABBBBAAAEEEEAAgboJEFar24wyHgQQQAABBBBAAAEEEEAAAQQQQACBCgQIq1WATBMIIIAAAggggAACCCCAAAIIIIAAAnUTIKxWtxllPAgggAACCCCAAAIIIIAAAggggAACFQgQVqsAmSYQQAABBBBAAAEEEEAAAQQQQAABBOomQFitbjPKeBBAAAEEEEAAAQQQQAABBBBAAAEEKhAgrFYBMk0ggAACCCCAAAIIIIAAAggggAACCNRNgLBa3WaU8SCAAAIIIIAAAggggAACCCCAAAIIVCBAWK0CZJpAAAEEEEAAAQQQQAABBBBAAAEEEKibAGG1us0o40EAAQQQQAABBBBAAAEEEEAAAQQQqECAsFoFyDSBAAIIIIAAAggggAACCCCAAAIIIFA3AcJqdZtRxoMAAggggAACCCCAAAIIIIAAAgggUIHAORW0QRMIIIAAAhL453/+Z/1etmyZJUjjwDHAMVDwGChYjI8XQWHF24pjQMeAPg3OvBv4hQACCCBQusDI48ePpzZy9OjRWbNmpW4iEwEEEECgKQH+g9sUV18UZk77YproJAIIIDBoAnw9DdqMM14EEKhAYO/evePHj89qiItAs2TIRwABBBBAAAEEEEAAAQQQQAABBBBAIFOAsFomDRsQQAABBBBAAAEEEEAAAQQQQAABBBDIEuAi0CwZ8hFAAAEEEEAAAQQQQAABBBBAAAEEBlqAi0AHevoZPAII9IKAbnTSC92gDx0UYE47iElVCCCAAAKdEuDrqVOS1IMAAggUFOAi0IJQFEMAAQQQQAABBBBAAAEEEEAAAQQQQOCsAGG1sxakEEAAAQQQQAABBBBAAAEEEEAAAQQQKChAWK0gFMUQQACB1gWWLVvW+s7s2Q2BAwcOLFiwYOSZn7lz5ya7wJwmTchBAAEEEOi6AF9PXZ8COoAAAoMmQFht0Gac8SKAQBcEuNFJF9DbaPLkyZM33XTTli1brI4dO3YkK2NOkybkIIAAAgh0XYCvp65PAR1AAIFBEyCsNmgzzngRQAABBBoIvP7664cPH/ZCEydO9DQJBBBAAAEEEEAAAQQQQMAFCKs5BQkEEEAAAQR+L3Ds2DGDUEDtxIkThw4dwgUBBBBAAAEEEEAAAQQQSAoQVkuakIMAAgh0WIAbnXQYtOTq3njjDWth0qRJY8eOTW2NOU1lIRMBBBBAoLsCfD1115/WEUBgAAUIqw3gpDNkBBCoWoAbnVQtXn57zGn5xrSAAAIIINC0AF9PTZOxAwIIINCeAGG19vzYGwEEEEAAAQQQQAABBBBAAAEEEEBgIAUIqw3ktDNoBBBAAIECAuedd16BUhRBAAEEEEAAAQQQQACBARUgrDagE8+wEUCgSgFudFKldgfbuuSSS7JqY06zZMhHAAEEEOiiAF9PXcSnaQQQGEwBwmqDOe+MGgEEKhXgRieVcrfd2L59+xrWwZw2JKIAAggggED1Anw9VW9OiwggMOAChNUG/ABg+AgggAACZwVOnjy5dOnS4eFhy5o3b97ZbaQQQAABBBBAAAEEEEAAgS8LnPPll7xCAAEEEEBgQAUOHDgwbdo0H/ymTZsmTJjgL0kggAACCCCAAAIIIIAAApEAq9UiEF4igAACnRfgRiedNy2hxtOnT3uta9asWbBggb9MJpjTpAk5CCCAAAJdF+DrqetTQAcQQGDQBAirDdqMM14EEOiCADc66QJ6802OGzfOd1qxYsWqVav8ZTLBnCZNyEEAAQQQ6LoAX09dnwI6gAACgyZAWG3QZpzxIoAAAgikC+iSzxMnTixZssQ2r169WpeFphclFwEEEEAAAQQQQAABBBAYMYKwGkcBAggggAACnwuMHTt23bp1EydOtNc7duyABgEEEEAAAQQQQAABBBDIEiCsliVDPgIIINAxAW500jHKSiqaNGlSw3aY04ZEFEAAAQQQqF6Ar6fqzWkRAQQGXICw2oAfAAwfAQSqEOBGJ1Uol9DGG2+8kVUrc5olQz4CCCCAQBcF+HrqIj5NI4DAYAoQVhvMeWfUCCCAAAIIIIAAAggggAACCCCAAAJtCRBWa4uPnRFAAAEEEEAAAQQQQAABBBBAAAEEBlOAsNpgzjujRgCBSgW40Uml3JU0xpxWwkwjCCCAAALNCfD11JwXpRFAAIG2BQirtU1IBQgggEAjAW500kiot7ZPnz7dOnTo0KGTJ0+mdo45TWUhEwEEEECguwJ8PXXXn9YRQGAABQirDeCkM2QEEEAAgTyBiy++2DYfPnz4/PPPHxoayivNNgQQQAABBBBAAAEEEBhUAcJqgzrzjBsBBBBAIEPgmmuuGTNmjG8cHh72NAkEEEAAAQQQQAABBBBAwAUIqzkFCQQQQKAsAW50UpZsOfWOHTt2165d8+fPt+rnzJmTbIc5TZqQgwACCCDQdQG+nro+BXQAAQQGTYCw2qDNOONFAIEuCHCjky6gt9fk1KlTN2/e/NmZn+3btycrY06TJuQggAACCHRdgK+nrk8BHUAAgUETIKw2aDPOeBFAAAEEEEAAAQQQQAABBBBAAAEEOiBAWK0DiFSBAAIIIIAAAggggAACCCCAAAIIIDBoAiOPHz+eOuajR4/OmjUrdROZCCCAAAIIIIAAAggggAACCCCAAAII1F5g796948ePzxomq9WyZMhHAAEEOibAjU46RtkzFTGnPTMVdAQBBBBA4KwAX09nLUghgAAClQgQVquEmUYQQAABBBBAAAEEEEAAAQQQQAABBOolQFitXvPJaBBAAAEEEEAAAQQQQAABBBBAAAEEKhHg3mqVMNMIAggggAACCCCAAAIIIIAAAggggEC/CXBvtX6bMfqLAAK1E+BGJ7Wb0hHMaf3mlBEhgAACNRDg66kGk8gQEECgvwS4CLS/5oveIoAAAggggAACCCCAAAIIIIAAAgj0hABhtZ6YBjqBAAIIIIAAAggggAACCCCAAAIIINBfAtxbrb/mi94igAACCCCAAAIIIIAAAggggAACCFQkwL3VKoKmGQQQQCBLgBudZMn0bz5z2r9zR88RQACBGgvw9VTjyWVoCCDQmwJcBNqb80KvEEAAgbMC27ZtG5n2M2nSpAULFmzYsOHkyZNnS6eljhw5omJz584dGhrymvRy1apV2pS2x9m8AwcOLF26dObMmbajatDLPXv2WAlV6xVu3rz57G5fTnkx7f7lLZ+/8vpVm8aVNaJ8Cu9V2IRqsx6q22F+mC7YergLaQQQQAABBBBAAAEEEECAsBrHAAIIINDrAgcPHkzt4uHDh7ds2bJ48eKvfe1rilulllHm2rVrJ06cqGI7duwYHh72Ynq5evVqbVJwzTPDhGJbCttNmzZt/fr177zzjm1SDXo5e/Zsi1JdfvnlvssTTzzh6Sjx4x//2HJSw2oKlnn9KqZxvf7661EN9jKfwnsV7qva7GVWALF462G1pBFAAAEEEEAAAQQQQAABwmocAwgggEDpAsuWLSu1DYW6FDVLXY2lzBUrVuS3ruBacl/F1LScTWG7rH0VXNPqsKlTpyowZ2UUGksNXSnTo2b33HNPssLXXnstynzllVeinIIv1SuFEQsWtmKttV72nDY1BAojgAACCCBgAnw9cSQggAACFQsQVqsYnOYQQGAQBTp4o5Pdu3d/dubnxIkTW7dunTNnjoMqohStWdNLZXqBNWvWaOmW7f7ee+/Nnz/fN6lYdAnnk08+6bGwMWPGPP3002pR++q36lGO73vHHXd4OnWVWZh5zTXXeGFLKH7nnfQuKZyXdR2o7+4UGtSSJUs8/7HHHvN0w0TLrXdwTht2kgIIIIAAAggUFODrqSAUxRBAAIFOCRBW65Qk9SCAAAKVCowdO/a6667bvn27glze8H333edpBYzCl5s2bVq+fPmECROsgFaZKY62cuVKLx9ewqn1ZVrCZpsUQdu1a9eiRYvUonL0W/Uo4jZjxoxRo0YpZ968eV6JX+zpOUp4pnbxDngBD7pp1VvY4Z/97GdeJj+hOtetW6fKrVh4oWv+jtrafusNm6AAAggggAACCCCAAAII1FWAsFpdZ5ZxIYDAoAgoyOVr1hRR0p3CbOQKGHmASYu5dJe0pMjf/u3f+rqz8BLOjRs3euF7771XMTh/aQlFsvbv32/5SntIK6zESoZXgH73u9+N6tFLv95TS9XCS0o9GJfcJTXHon6pm3IyO9V6ThNsQgABBBBAAAEEEEAAgboKEFar68wyLgQQ6CGBsm90cuedd/po/ab+//qv/+qZ3/rWtzwdJhSKuvbaaz3nl7/8paXDW6qFi9G8ZJQI42W+/svKhC+TV4Aq6OZt3XzzzdrFrwNNRuiiRqOXhw4dshwPFEYFki/bab3sOU32lhwEEEAAAQQaCvD11JCIAggggEBnBQirddaT2hBAAIEUgbJvdHLZZZd5q2+88YalFTPyzD/8wz/0dJS45JJLPMdDcv70TIWokpdtenlPhPGyaJXZyy+/bMUaXgFqa98suGa7hIvmvK1k4sCBA1qL531OXZeX3Es5HvLT9afNtl72nKZ2mEwEEEAAAQTyBfh6yvdhKwIIINBxAcJqHSelQgQQQKBqgYbXP1rMqIVuXXrppUX2iq4D9acNKLFjxw6r4e67705W5TE4X6QWXgfqC9mSOypn9uzZI8/8TJs2zUsqePfQQw+llk9mttN6sjZyEEAAAQQQQAABBBBAYNAECKsN2owzXgQQQKAUgdTrQH05mJoMV7RZD8LbroWL1DzEpgVoWolWsLtaWKenN+gZDg2DjGW0XrCTFEMAAQQQQAABBBBAAIE6CRBWq9NsMhYEEOhRgbJvdBJe73neeeclFQoGp0aPHh3tu2/fvign62V4CzZ/DoAnFClLRrv8Gk+/BtMqD0NsGzZsyGoxytfzGT7++ONkK1Exf9lm62XPqfeTBAIIIIAAAsUF+HoqbkVJBBBAoCMChNU6wkglCCCAQJ5A2Tc68UcNqBPhvdK8T7/5zW88HSX8XmzKnzx5crRVsSq/ojPaFL1UPMtXmemSTO2lH78284YbbojK66Vv1ao0u5zTL+r0wps3b/Z0lNi9e/dnn32m3/4c0tWrVxcPw7XZetlzGg2WlwgggAACCBQR4OupiBJlEEAAgQ4KEFbrICZVIYAAAt0ReOqpp7zhb3zjG5a++uqrPfO1117zdJhQ5MvvfaaLKK+88krb6gEyvfRVXeGOqekwdqbLP/OvANUCOn/IQGptlqm43rZt23IKqM8eIFOx++67T4PKKW+bOtV6w4YogAACCCCAAAIIIIAAAjUWIKxW48llaAggMBACWp/loTFdTemhsTlz5vj4169fn3od6Pe//30vEz5AMwyQPfbYY6n7+o6eCO+epss/868ALb6s7Nlnn/UmUhN6YMKSJUtsk8JwYTgvtbwyO9h6VhPkI4AAAggggAACCCCAQO0FCKvVfooZIAIIdF+gjBudaE2WlnEpFrZ48WIfYbhsTY/UDCNrV111lS6o9Luwad+5c+f6Oi8tVfu7v/s7r0fVKkJnLxWosn19FZiibApLTZo0KbpCM7oOdOfOnVZDGKTzJnxfrYzTtZzJH++AOulN++5RIuz8/fffH21Nvmy/9TLmNNlPchBAAAEEEGhKgK+nprgojAACCLQvQFitfUNqQAABBBoIdPBGJ7Nnz7YbkJ1//vnXX3+9x8XUA63Yuu6668KurFu3TvEyy1F0bOHChYpV2e7a19e4qcBzzz2nNV/hvi+99FK0r1r0e58plqdLOI8dOxbuonQYQVOLylEl4To4K6+gnm2NdrGt9ju8ELXhAjR13mOI6phHzcIKPd2R1js4p94xEggggAACCLQpwNdTm4DsjgACCDQrQFitWTHKI4AAAj0noNDVpk2bFESLeqZg065du/yO/tFWe6lAm+76H8XjtEmL3bSvLxlL3ffCCy+M8nUdqAfjbFMypqb88F5v4aWjYW3h80B/8pOfhJtS0+EitfzyZbSe2iUyEUAAAQQQQAABBBBAoN4ChNXqPb+MDgEE6iAwZcqU1GEoXqYlXQqoffjhh6nRK+2l6Nj+/fu3bt2qtWxhfE3xMtv30KFDfju2qBXtq62qXyXDYJnWhak21ZlsVNeB+m3OVJv2uuWWW6Jq9dKvRVVh7ZIsoBy17h3et2+flfFAnmoeNWpUuKNGkSyvAh4Z9OV4LbceNkcaAQQQQAABBBBAAAEEEBh5/PjxVIWjR4/OmjUrdROZCCCAAAIIIIAAAggggAACCCCAAAII1F5g796948ePzxomq9WyZMhHAAEEOibAjU46RtkzFTGnPTMVdAQBBBBA4KwAX09nLUghgAAClQgQVquEmUYQQAABBBBAAAEEEEAAAQQQQAABBOolQFitXvPJaBBAAAEEEEAAAQQQQAABBBBAAAEEKhHg3mqVMNMIAggggAACCCCAAAIIIIAAAggggEC/CXBvtX6bMfqLAAK1E+BGJ7Wb0hHMaf3mlBEhgAACNRDg66kGk8gQEECgvwS4CLS/5oveIoAAAggggAACCCCAAAIIIIAAAgj0hABhtZ6YBjqBAAIIIIAAAggggAACCCCAAAIIINBfAtxbrb/mi94igAACCCCAAAIIIIAAAggggAACCFQkwL3VKoKmGQQQQCBLgBudZMn0bz5z2r9zR88RQACBGgvw9VTjyWVoCCDQmwJcBNqb80KvEEAAAQQQQAABBBBAAAEEEEAAAQR6WoCwWk9PD51DAAEEEEAAAQQQQAABBBBAAAEEEOhNAe6t1pvzQq8QQAABBBBAAAEEEEAAAQQQQAABBLoswL3VujwBNI8AAghwo5P6HQPMaf3mlBEhgAACNRDg66kGk8gQEECgvwS4CLS/5oveIoAAAggggAACCCCAAAIIIIAAAgj0hABhtZ6YBjqBAAIIIIAAAggggAACCCCAAAIIINBfAtxbrb/mi94igAACCCCAAAIIIIAAAggggAACCFQkwL3VKoKmGQQQQCBLgBudZMn0bz5z2r9zR88RQACBGgvw9VTjyWVoCCDQmwJcBNqb80KvEEAAAQRigW3bto1M+5k5c+bSpUv37NkT7XDgwIGhoSHbY/PmzdFWf7lq1aq0Wj/PUw1ekgQCCCCAAAIIIIAAAgggEAoQVgs1SCOAAAII9K7AwYMHUzv3zjvvrF+/fvbs2VHs7PTp08PDw7bLsWPHUvdV5rvvvpu1SfleQ04ZNiGAAAIIIIAAAggggMBgChBWG8x5Z9QIIFCpwLJlyyptb1AbW7hwYXLNWpsYY8aMSa2BOU1lIRMBBBBAoLsCfD1115/WEUBgAAUIqw3gpDNkBBCoWoAbnXRcfPfu3Z+d+XnvvfdmzJjh9b/55puebiFhdYa/T506lVoPc5rKQiYCCCCAQHcF+Hrqrj+tI4DAAAoQVhvASWfICCCAQH0Epk6d+o//+I/1GQ8jQQABBBBAAAEEEEAAgf4RIKzWP3NFTxFAAAEEGgmMHj26URG2I4AAAggggAACCCCAAAKdESCs1hlHakEAAQRyBLjRSQ5Om5v0uM+77rrLKtF90ObNm9dmhQV3Z04LQlEMAQQQQKBKAb6eqtSmLQQQQEAChNU4DBBAAIHSBbjRSceJ9dzPkWd+pk2bpieBqv45c+bs2rVr7Nix7bRldfrvoaGhrNqY0ywZ8hFAAAEEuijA11MX8WkaAQQGU4Cw2mDOO6NGAAEE6iawb9++HTt2dHZUw8PDna2Q2hBAAAEEEEAAAQQQQKBOAoTV6jSbjAUBBBAYXAGFwFasWLFgwYIOEuiq0g7WRlUIIIAAAggggAACCCBQMwHCajWbUIaDAAK9KMCNTjo+K7t37/7szM+JEyc2bdrk8a8tW7Zs27at5easTv996tSprKqY0ywZ8hFAAAEEuijA11MX8WkaAQQGU4Cw2mDOO6NGAIFKBbjRSXncupmaVqg999xz3sRrr73m6fISzGl5ttSMAAIIINCyAF9PLdOxIwIIINCaAGG11tzYCwEEEECghwSuu+46782RI0c8TQIBBBBAAAEEEEAAAQQQKE+AsFp5ttSMAAIIIFCRwJ49e7yl6dOne5oEAggggAACCCCAAAIIIFCeAGG18mypGQEEEPhcgBudlHoo6GZqt912mzdxxRVXeLq8BHNani01I4AAAgi0LMDXU8t07IgAAgi0JkBYrTU39kIAAQSaEOBGJ01gFSs6e/bskV/8XH/99YcPH7b95syZE14Q6pXpIaFfFP/839RnhkZl9HJoaMgrCRPMaahBGgEEEECgRwT4euqRiaAbCCAwOAKE1QZnrhkpAgggUHMBxdSef/75goP86KOPipQcHh4uUowyCCCAAAIIIIAAAgggMIAChNUGcNIZMgIIINCXAlOmTEnt98SJE5csWbJ79+7t27frwaBeZty4cWPGjPGXUeK8886znPx7seXUEFXISwQQQAABBBBAAAEEEBg0gZHHjx9PHfPRo0dnzZqVuolMBBBAAAEEEEAAAQQQQAABBBBAAAEEai+wd+/e8ePHZw2T1WpZMuQjgAACHRPgRicdo+yZipjTnpkKOoIAAgggcFaAr6ezFqQQQACBSgQIq1XCTCMIIIAAAggggAACCCCAAAIIIIAAAvUSIKxWr/lkNAgggAACCCCAAAIIIIAAAggggAAClQhwb7VKmGkEAQQQQAABBBBAAAEEEEAAAQQQQKDfBLi3Wr/NGP1FAIHaCXCjk9pN6QjmtH5zyogQQACBGgjw9VSDSWQICCDQXwJcBNpf80VvEUAAAQQQQAABBBBAAAEEEEAAAQR6QoCwWk9MA51AAAEEEEAAAQQQQAABBBBAAAEEEOgvAe6t1l/zRW8RQAABBBBAAAEEEEAAAQQQQAABBCoS4N5qFUHTDAIIIJAlwI1OsmT6N5857d+5o+cIIIBAjQX4eqrx5DI0BBDoTQEuAu3NeaFXCCCAAAIIIIAAAggggAACCCCAAAI9LUBYraenh84hgAACCCCAAAIIIIAAAggggAACCPSmAPdW6815oVcIIIAAAggggAACCCCAAAIIIIAAAl0W4N5qXZ4AmkcAAQS40Un9jgHmtH5zyogQQACBGgjw9VSDSWQICCDQXwJcBNpf80VvEUAAAQQQQAABBBBAAAEEEEAAAQR6QoCwWk9MA51AAAEEEOgpgblz544887N27dqe6hidQQABBBBAAAEEEEAAgd4R4N5qvTMX9AQBBBBAoCcEDhw4MG3aNOvKmDFjTp061RPdohMIIIAAAggggAACCCBQuQD3VqucnAYRQACBLwuUcaOTI0eOaCGVL6rSyqoFCxZs3rz5yy3z6nOBoaEhW32W/3vmzJkFycqY04JNUwwBBBBAAIEsAb6esmTIRwABBEoS4CLQkmCpFgEEEChRQAG1iRMnrlixYseOHd7Mli1bFi5cqMDQyZMnPbPUxKpVqyxKNWnSpFIbSlauYVrTS5cuTW5N5gwPDyczkznvvPOOMqdOnTpnzhzbeu+99yaLkYMAAggggAACCCCAAAIISICwGocBAggg0GcCCiQpoJbVaQWGNm7cmLW1s/nvvvuuVXj48OHO1tywNot/qZhW7TUsrAK6lrNIsRkzZlix7du3f3bmZ/ny5UV2pAwCCCCAAAIIIIAAAggMoABhtQGcdIaMAAJVCyxbtqxTTW7btm39+vVe28qVKxXSsgDQpk2btITNN5EIBXR/NFOy375Jq9LC/P379/um/EQH5zS/IbYigAACCCBQXICvp+JWlEQAAQQ6IkBYrSOMVIIAAgjkCXTwRid33nmnt6Q42iOPPDJhwgTL0b3V3n777SVLlowePdrLKKFrQnXRqF81qWsndUc25SSvFdU6OLuyUvfst710daflqPI9e/Z4tXb5Z3gJqhXT72j5mPbSvn5rM3Uj2bSaswIqqSZsF6tQHYjK20C8J+qDl/TM9hPOpdZTa+vgnKbWTyYCCCCAAAItCPD11AIauyCAAALtCBBWa0ePfRFAAIFKBbRUzS+31DIrC0KFPRg7duy6desWLVrkmXqIwde+9jVdNOpXTWqTQlHKUb7iWV5SCY+IvfXWWwq9qYw3pxu3zZ49Wx2w8n75Z7i7pY8fP+6Zir5pL+3rtzZTN5JNnz592gp89NFHCmPZLlaJOqDy6ozXGQ7EM5XwroaZLae9lTfeeKPlStgRAQQQQAABBBBAAAEE6i1AWK3e88voEEAAAQQQQAABBBBAAAEEEEAAAQRKESCsVgorlSKAAAJlCLz22mte7W233ebprIQWo+nZoL5SLCqm/Kuuuip5KaiKLV682JdrhXv5JajTp08P88P0uHHj7OWGDRtWr14dbvK0mr7pppv8pSdsGZ2/9IQ6o2V39tKfKuBbLcF95SIQXiKAAAIIIIAAAggggEDZAoTVyhamfgQQQGBEp+4f7BdpyvSiiy5qKKvLJ73MmjVrTpw4odvzv/feex6ZUngr67GhenTm008/rfK6uNIjVkrbdaO6p5s26UJUr99v/G/3elO07r777rOt8+fP144qoA6oTstUjkfKvBJLqForrz77pldeecXSeqqAqvJ8f+bAoUOHPLOCRKfmtIKu0gQCCCCAwOAI8PU0OHPNSBFAoEcECKv1yETQDQQQqLNAGfcPnjp1aj6ZYnD+SAE9x2D58uW685p20Y7bt29X1Mx2/+lPf5paz6uvvmr3aFOY7OGHH/Yyug+ap3MSr7/+uq+S+9GPfmSxNnVAdXow7v3330/WoK3qnpVXnz2ip9uuJQt3MaeMOe3iVdyRHgAAQABJREFUcGgaAQQQQKAeAnw91WMeGQUCCPSRAGG1PposuooAAgg0IbBv3z4vfcstt3haCYW3Lr30UstJvdhTm6688krf5YILLvD0J5984umcxLFjx3zr+eef788JVcKDfanPPbj66qt9RyX0JFB7mXqxaliSNAIIIIAAAggggAACCCBQsQBhtYrBaQ4BBBDojED0EM9kpWFgK7k1il4lC2TlHDx4MGtTmN/xB2hmhf/CRkkjgAACCCCAAAIIIIAAAlUKEFarUpu2EEBgQAXKuNHJb37zm37XzHnuQe8PrYw57f1R00MEEEAAgR4X4OupxyeI7iGAQP0ECKvVb04ZEQII9JxAp250cuONN/rYnnrqKU+nJkaPHp2ab5m+msxvspZTuIVNdnM029GfZhAl9NyDFmrukV06Nac9Mhy6gQACCCBQDwG+nuoxj4wCAQT6SICwWh9NFl1FAIFBF7jmmmucQHcoy3qSppWZPHmyF37hhRc8rYTuU+Y3OLv22mvDTU2lw9hZtGP4RIU9e/ZEW9t/6Y8yaL8qakAAAQQQQAABBBBAAAEEWhMgrNaaG3shgAACXRBQGEvP9PSGFy5cuHbtWj3x03KUUKBt7ty5S5cuVY6eOeAr0davX79hwwa7679uyqYyXskNN9zg6WYT48eP9122bdumtN/xLYwA/vmf/7k65s8cUJRt1apVQ0ND3nOvpHjCH2WgJzNYPd60KtEA7SEJ8ileJyURQAABBBBAAAEEEEAAgaYECKs1xUVhBBBAoBWBDt7o5KGHHpoxY4Z3YsWKFVq3ZSEkJRRo0zI0D1c9+uijXnLx4sX2RM5p06b57f/nzJmzYMECL9Ns4sILL/Rdrr/+enVDldvatDACODw8rI7580Bnz569evVqZR4/ftx3bzbhC+VUjwmoaatEHfC1ePJptuaC5Ts4pwVbpBgCCCCAAAINBfh6akhEAQQQQKCzAoTVOutJbQgggECKQAdvdDJ27Njt27crHJbSzBdZHnJatGjRypUrv8iO/1Ulzz//fJzbzGstScu5GFMRwPx+jhs3rpnWvlRWQ/vS68pfdHBOK+87DSKAAAII1FaAr6faTi0DQwCBXhUgrNarM0O/EEAAgQwBi6zt3r1bF4SGUS2tYps/f/6mTZsUz/Jd9ViAqKSuDLViCs+pKi+phMfjwgVxyh81apRfTzplyhTfRbvv3LlTtdlWq1kXn1oB66f64wWUrzKKta1Zs+bw4cPeXFb9Ku9loi7p3m0al4ft5KA6rV11wPM90zb5b3fz+n2TJbxAXz+uNBoULxFAAAEEEEAAAQQQQKCzAiOzrsE5evTorFmzOtsYtSGAAAKDKaA/HXNRRs2mnjmt2YQyHAQQQKAeAnw91WMeGQUCCPSUwN69e8ObSkd9I6wWgfASAQQQQAABBBBAAAEEEEAAAQQQQACB3wvkh9W4CJSjBAEEEChdgBudlE5ceQPMaeXkNIgAAggg0FiAr6fGRpRAAAEEOipAWK2jnFSGAAIIIIAAAggggAACCCCAAAIIIDAYAoTVBmOeGSUCCCCAAAIIIIAAAggggAACCCCAQEcFuLdaRzmpDAEEEEAAAQQQQAABBBBAAAEEEECgLgLcW60uM8k4EECgbwW40UnfTl1mx5nTTBo2IIAAAgh0T4Cvp+7Z0zICCAyoABeBDujEM2wEEEAAAQQQQAABBBBAAAEEEEAAgXYECKu1o8e+CCCAAAIIIIAAAggggAACCCCAAAIDKsC91QZ04hk2AggggAACCCCAAAIIIIAAAggggEC+APdWy/dhKwIIIFC6ADc6KZ248gaY08rJaRABBBBAoLEAX0+NjSiBAAIIdFSAi0A7ykllCCCAAAIIIIAAAggggAACCCCAAAKDIUBYbTDmmVEigAACCCCAAAIIIIAAAggggAACCHRUgHurdZSTyhBAAAEEEEAAAQQQQAABBBBAAAEE6iLAvdXqMpOMAwEE+laAG5307dRldpw5zaRhAwIIIIBA9wT4euqePS0jgMCACnAR6IBOPMNGAAEEEEAAAQQQQAABBBBAAAEEEGhHgLBaO3rsiwACCCBQK4Ft27YNDQ2NHDly0qRJa9eurdXYGAwCCCCAAAIIIIAAAgh0WoCwWqdFqQ8BBBBICCxbtiyRR0YvChw8eHB4eFg9O3z48IoVK3Iia8xpL84ffUIAAQQGXoCvp4E/BABAAIGqBQirVS1OewggMIAC3OikXyZ99OjRYVefeeaZ8GWYZk5DDdIIIIAAAj0iwNdTj0wE3UAAgcERIKw2OHPNSBFAAAEEGggsWrTos88+e/rpp62c1qw12IHNCCCAAAIIIIAAAgggMMAChNUGePIZOgIIIIBAmsDkyZM9e8+ePZ4mgQACCCCAAAIIIIAAAgiEAoTVQg3SCCCAQCkC3OikFNauVsqcdpWfxhFAAAEE0gX4ekp3IRcBBBAoTYCwWmm0VIwAAgh8ITDgNzpZunSpnq2pnwMHDpw8eVLPAdBzNi1nwYIFyjQnPYVz5syZlq+EXn7h96V/jxw5ogq9BiX0UplfKnTmxebNm+fOnWsV6vmeaks5yWKt5Qz4nLaGxl4IIIAAAmUL8PVUtjD1I4AAApEAYbUIhJcIIIAAAh0W8JjXW2+9pTiXnrDp9yzbsmXLtGnTFEFTaOz6669/5513rG0l9DIZBVPOjBkz1q9f7zUooZcTJ06MCqvChQsX7tixwyrU8z3VlnI8itfhQVIdAggggAACCCCAAAIIDJ7AOYM3ZEaMAAIIINAdgcWLF6c2rAhaar5CY1pi5psUEVNczF9GCW269NJLJ0yYoHzF6RRriwrYy9OnT6fmh5kXXXRR+JI0AggggAACCCCAAAIIIJAqwGq1VBYyEUAAgU4KcKMT1xwzZoyes6mnbe7evVtpz1diyZIlJ06c0OozrUezfC0xC58YoGVulq8C2l2V6Gfr1q1ez+OPP24FDh48aAmtYlOFKqaaN23apJejRo2yTTm/x44d61s/+eQTT4cJ5jTUII0AAggg0CMCfD31yETQDQQQGBwBwmqDM9eMFAEEuibAjU6c/tVXX120aJFeXnnllYqjeb7S69atUzxLy80efPBBz//ggw8srStJ/YpOFdDuln/dddfde++9lt6/f7/vGCVUsxa+HTp0aOrUqdGm1JcKwFn+D37wg9TrRpnTVDcyEUAAAQS6K8DXU3f9aR0BBAZQgLDaAE46Q0YAAQS6JuDhMPVg9OjR3o9bbrnF0+eee66nP/74Y0sfP37cM3XRqD2IwH77Kja/NduFF15ohW3tmy4mDVe9eT05iZdeeskWwalO3f1NNeQUZhMCCCCAAAIIIIAAAggMpgBhtcGcd0aNAAII9JnAm2++WbzHWpgWXkmq+6zNnj1bzwwtHlzTojYF1HzNmj91oXgfKIkAAggggAACCCCAAAK1FyCsVvspZoAIINB9AW50Us0ceChNzemC0DVr1vht15SjlWsKrhWMrJ08eXL+/PnaxXp+3nnnRUNgTiMQXiKAAAII9IIAX0+9MAv0AQEEBkqAsNpATTeDRQCB7ghwo5P23f26TlXlzys489CCs7+ie6stX7781KlTeqbBnDlzvAMF52Ljxo1+Sama27x5s9dgiYL1RHvxEgEEEEAAgVIF+HoqlZfKEUAAgaQAYbWkCTkIIIAAAj0ncNFFF3mfmrogVM802L59u5ae2e5btmzxenISzzzzjG1duXJleD+4nF3YhAACCCCAAAIIIIAAAoMmQFht0Gac8SKAAAJ9KaCbnfmdzvSMgrVr1/r9zvSkzg0bNujWab6mTE8YmDt37rZt23Qtp0arkn45p1eSr+Dlv/nNb+aXZCsCCCCAAAIIIIAAAggMrMA5AztyBo4AAghUJsCNTjpC/fDDDy9cuNCqUmRNP1G1x44dsxzF0Xac+YkK6OUdd9yRzIxyPGAX5YcvmdNQgzQCCCCAQI8I8PXUIxNBNxBAYHAEWK02OHPNSBFAoGsC3OikI/R6vqcuycypyu+/NmHChNRieqbB7bffnropzDx+/Hj4MjXNnKaykIkAAggg0F0Bvp6660/rCCAwgAKsVhvASWfICCCAQKUCHuQKn9SpHkyZMsX6oed1jho1yvs0btw45QwPDyvHI2W29ZFHHtFVmS+88MLOnTv9Ok09kWD69OnK95ugPfTQQ6rh3Xff1ZI121FlbrvtNgXmvBUSCCCAAAIIIIAAAggggECbAoTV2gRkdwQQQACBBgLrzvwkC+lhAnqKZzJfYTg9wTOZbzmKnXn4LKvM2LFjFYDL2ko+AggggAACCCCAAAIIINARAS4C7QgjlSCAAAJ5AtzoJE+n97Z98MEH3qnwCaSeqQRzGmqQRgABBBDoEQG+nnpkIugGAggMjgBhtcGZa0aKAAJdE+BGJ12jb7JhPUt05MiRixcvtv302FAtfEutgzlNZSETAQQQQKC7Anw9ddef1hFAYAAFCKsN4KQzZAQQQACBdAF/lqhtLvLY0PSKyEUAAQQQQAABBBBAAIEBECCsNgCTzBARQAABBIoJ6CkKetaBymqd2po1a5YvX15sP0ohgAACCCCAAAIIIIDAIAqMPH78eOq4jx49OmvWrNRNZCKAAAIIIIAAAggggAACCCCAAAIIIFB7gb17944fPz5rmKxWy5IhHwEEEOiYADc66Rhlz1TEnPbMVNARBBBAAIGzAnw9nbUghQACCFQiwGq1SphpBAEEBlvA/o+rh3P5f3ZJ2xGBAw4cA/nHgLZClE+EDz4cA6nHgGXyGwEEEECgfYH81WqE1doXpgYEEEAAAQQQQAABBBBAAAEEEEAAgRoK5IfVuAi0hlPOkBBAAAEEEEAAAQQQQAABBBBAAAEEyhYgrFa2MPUjgAACCCCAAAIIIIAAAggggAACCNRQgLBaDSeVISGAAAIIIIAAAggggAACCCCAAAIIlC1AWK1sYepHAAEEEEAAAQQQQAABBBBAAAEEEKihAGG1Gk4qQ0IAAQQQQAABBBBAAAEEEEAAAQQQKFuAsFrZwtSPAAIIIIAAAggggAACCCCAAAIIIFBDAcJqNZxUhoQAAggggAACCCCAAAIIIIAAAgggULYAYbWyhakfAQQQQAABBBBAAAEEEEAAAQQQQKCGAoTVajipDAkBBBBAAAEEEEAAAQQQQAABBBBAoGwBwmplC1M/AggggAACCCCAAAIIIIAAAggggEANBQir1XBSGRICCCCAAAIIIIAAAggggAACCCCAQNkChNXKFqZ+BBBAAAEEEEAAAQQQQAABBBBAAIEaChBWq+GkMiQEEEAAAQQQQAABBBBAAAEEEEAAgbIFCKuVLUz9CCCAAAIIIIAAAggggAACCCCAAAI1FCCsVsNJZUgIIIAAAggggAACCCCAAAIIIIAAAmULEFYrW5j6EUAAAQQQQAABBBBAAAEEEEAAAQRqKEBYrYaTypAQQAABBBBAAAEEEEAAAQQQQAABBMoWIKxWtjD1I4AAAggggAACCCCAAAIIIIAAAgjUUICwWg0nlSEhgAACCCCAAAIIIIAAAggggAACCJQtQFitbGHqRwABBBBAAAEEEEAAAQQQQAABBBCooQBhtRpOKkNCAAEEEEAAAQQQQAABBBBAAAEEEChbgLBa2cLUjwACCCCAAAIIIIAAAggggAACCCBQQwHCajWcVIaEAAIIIIAAAggggAACCCCAAAIIIFC2AGG1soWpHwEEEEAAAQQQQAABBBBAAAEEEECghgKE1Wo4qQwJAQQQQAABBBBAAAEEEEAAAQQQQKBsAcJqZQtTPwIIIIAAAggggAACCCCAAAIIIIBADQUIq9VwUhkSAggggAACCCCAAAIIIIAAAggggEDZAoTVyhamfgQQQAABBBBAAAEEEEAAAQQQQACBGgoQVqvhpDIkBBBAAAEEEEAAAQQQQAABBBBAAIGyBQirlS1M/QgggAACCCCAAAIIIIAAAggggAACNRQgrFbDSWVICCCAAAIIIIAAAggggAACCCCAAAJlCxBWK1uY+hFAAAEEEEAAAQQQQAABBBBAAAEEaihAWK2Gk8qQEEAAAQQQQAABBBBAAAEEEEAAAQTKFiCsVrYw9SOAAAIIIIAAAggggAACCCCAAAII1FCAsFoNJ5UhIYAAAggggAACCCCAAAIIIIAAAgiULUBYrWxh6kcAAQQQQAABBBBAAAEEEEAAAQQQqKEAYbUaTipDQgABBBBAAAEEEEAAAQQQQAABBBAoW4CwWtnC1I8AAggggAACCCCAAAIIIIAAAgggUEMBwmo1nFSGhAACCCCAAAIIIIAAAggggAACCCBQtgBhtbKFqR8BBBBAAAEEEEAAAQQQQAABBBBAoIYChNVqOKkMCQEEEEAAAQQQQAABBBBAAAEEEECgbAHCamULUz8CCCCAAAIIIIAAAggggAACCCCAQA0FCKvVcFIZEgIIIIAAAggggAACCCCAAAIIIIBA2QKE1coWpn4EEEAAAQQQQAABBBBAAAEEEEAAgRoKEFar4aQyJAQQQAABBBBAAAEEEEAAAQQQQACBsgUIq5UtTP0IIIAAAggggAACCCCAAAIIIIAAAjUUIKxWw0llSAgggAACCCCAAAIIIIAAAggggAACZQsQVitbmPoRQAABBBBAAAEEEEAAAQQQQAABBGooQFithpPKkBBAAAEEEEAAAQQQQAABBBBAAAEEyhYgrFa2MPUjgAACCCCAAAIIIIAAAggggAACCNRQgLBaDSeVISGAAAIIIIAAAggggAACCCCAAAIIlC1AWK1sYepHAAEEEEAAAQQQQAABBBBAAAEEEKihAGG1Gk4qQ0IAAQQQQAABBBBAAAEEEEAAAQQQKFuAsFrZwtSPAAIIIIAAAggggAACCCCAAAIIIFBDAcJqNZxUhoQAAggggAACCCCAAAIIIIAAAgggULYAYbWyhakfAQQQQAABBBBAAAEEEEAAAQQQQKCGAoTVajipDAkBBBBAAAEEEEAAAQQQQAABBBBAoGwBwmplC1M/AggggAACCCCAAAIIIIAAAggggEANBQir1XBSGRICCCCAAAIIIIAAAggggAACCCCAQNkChNXKFqZ+BBBAAAEEEEAAAQQQQAABBBBAAIEaChBWq+GkMiQEEEAAAQQQQAABBBBAAAEEEEAAgbIFCKuVLUz9CCCAAAIIIIAAAggggAACCCCAAAI1FCCsVsNJZUgIIIAAAggggAACCCCAAAIIIIAAAmULEFYrW5j6EUAAAQQQQAABBBBAAAEEEEAAAQRqKEBYrYaTypAQQAABBBBAAAEEEEAAAQQQQAABBMoWIKxWtjD1I4AAAggggAACCCCAAAIIIIAAAgjUUICwWg0nlSEhgAACCCCAAAIIIIAAAggggAACCJQtQFitbGHqH3HgwIEFCxaMPPMzd+5cRBBAAAEEEMgR2LZt29DQkL40Jk2atHbt2pySbEIAAQQQQAABBBBAoLsC53S3eVqvvcDJkydvuummw4cP20h37NhR+yEzQAQQQACBdgQOHjw4PDysGvTdsWLFCiWWL1/eToXsiwACCCCAAAIIIIBASQKsVisJlmo/F3j99dc9pqasiRMn5tP4ujZb3Wa/Z86cuXTpUq1fyN9XW7UybtWqVSrvu9u+e/bsyd/3yJEjWhOhxXS2oxZKqCebN2/2vaxjqs1zUhNWg3qbs1VN5Ky/0BC8857Qkg3VmToKL68hpDaqTDVnVeWvFkzF1y7aXeHRZOW2nCRUSpbZsGGDjyKZ0NbkLsVzdEioz8KxmjU7mv0ch+I1169k6kRUKaYDWMdS/tFSNru/WcJDUYexOiafPjpyysYsu/6GEz169OiwzDPPPBO+JI0AAggggAACCCCAQA8JHM/4efPNNz/jB4G2BdasWWOHuwJqJ06caFjfnDlzct4eM2bMeO+991IrUeUrV67M2Xf+/PlZHdi0adOYMWNS91V/bK+nn37aCmR1QL3yAKIqTHbSt6oeaSQLWM7u3btTe2KZGmO0o5dXItrkL8Noprrh+VEiB1/yST3rkqY4qid86QdA6qCkGhYunlZnsnqrqUz1L155LUvmTEQ1YnYAaNa6yPv/2HsTqMuK6u5bV9So2DSTRBuCLUOEdCNICwjaGnChMmggIIO8QfPqJyKf+CqighBjlEFxeFUQMRCNERkiQgzIFDEBZQYFGsEwiKRpDTK3RmO+LL9f9zY7RZ1z7nPvM9y+z+3fs3rd1Kmza9euX517zfmzqyq/LK1PI5W9H+ZVGHnV9UzDnGn/1XC6LvNXl3i6bKyXgAQkIAEJSEACEpDATBNAH+tQzlZUm60Wrw9+zhSByy+/PFyTUrTuuuv22U357o2AcuGFFx5yyCG0veGGG3baaSdSTpp+yDc57rjjqKct9vG9irahv5x99tkHHnhgsyHpMwcccAALjtCekGNCPOKTMjWsWj399NNptc8++0Tbc845p+kkakjNo4BIscsuuzRtvva1r1EZA0HbmjD5rpTJGBHCFs0ZY2vOWrO7rMGe7mgeHmI4ebdZKJUFGoYcA/ljjjmmadx/Tesv3cEHH9y/h7QkdY7pjgXF8EyhkwKXTCUTmsYzWojsJ9KdZrSXpvNIPSNTr3lrwpqciHjIeVwhRnZSa0LihN76Nwhtd9GiRf03mTnL8svFY4N8E+Gx3hAUM9fvdHmeOszej+7U/U/LSBcsWJB+Bv3dy4YWJCABCUhAAhKQgAQkMKMElNVmFK/Op4EAYtxuu+32uc99DmkpJAA2a6skAFYpovvQGRrQxRdfjH10HG2pCTELIaZag8a7ZUgwSE7XXnstOkVof3xSvuuuu6Ih3qgh340C8lw4b36edtppVKaTyiDWMSEkhZ8LLrigMuhxyYiy35NOOqmHZfPWV7/6VSrfsvKPQvppWjZrNt54Y7Y0CginnHJK02CV1Bx66KEx3UifPBhbbbVVhEGBS1QSnpPhBLZ8+XI6ik2ghtNj9PLYY49RePTRR6fSaTzkEMMJQwjZdyoOe7fl24Sid+yxx/Y2G/5dHhu+lXz944vJcz7FtclDGMLUYfZ+dKfufwgQ7EICEpCABCQgAQlIQAKjQEBZbRRmwRj6IoC0dPzxx2NKClUpASCxnXDCCdSTlda1rfWHP/zhyL84+uijy87CISoMYlMIauVdyogO6XPPPfekht5b8ybYmCm0nj322KNywmWkjBED7/Dhh7f3ShxstiprULgi7W4gMYUuQkkkgS5y6Ih/wkS5sl/K8+fPr2pW4SVKaCiDrIdtTdeC8MMPP7wKI5xdXSfDkOpmV/DTGC1f/5NPPjl+JY488shp9KwrCUhAAhKQgAQkIAEJSGCMCSirjfHkjtbQ1lprrakHRFJJvPdGXlg4ZOllpAsddthhXV1krhmiErpMmCGEhUCDsoBo1dU26zGLNKjI/8r6KMQKUMLLXLnSIJpEOkz6iSalWe/yQDJcRgUccvEYIH+TSJTrHdLw72Ym0Zvf/Ob+e0fWZHFfHm7Q4wgINrOPRZ08HjSJYxnCvuQfyzAXL14cMeQW+KlSRT1NSKXkZIAwwBs+m1vjEx4G0ZYyhbCnIc3LYcatOBuR7MvsN7GUxv2Uy0E17dFkWW+bvdA74TXNqMEP50UkYVpV6m34qeLEc5N2F6XoN/jEvNAcRFUKamt4/VTyK/GRj3wES74yVfBU9tlvPDbJoYsY/nOWm08X3SUZLMMbn/nbNRWY/Ty6rf6JitGVZ8IwC4yilX94IOD4CsQQwj5HgUP/JCABCUhAAhKQgAQkMOsJdO275pEFuQORhakQiAQrvifljl09HIY9n102eS5BbIKGWa7T7GoS9blbee5nTyG+wLkXW28P2RfiWtMydi5rHikQlqHH5S5gEXPrMDPOcvsnnNA2oq1IdtlHv6Gj5ckAMWSCSXrlQAJ+5R+Drklpjad0SBlvYVbVT/oydFVo9+8hY4hIys8kk97ibj4bpTGdJrdyM/XSBuDpiimLaDGAIX/xGHCZD2EYxyRikA9z6ZPK9BkTWt6NcnMg2SQKCaGqz4FUzxsjJZ5wzsAp51jKeMJb18Lb8usQ3qqnK/zH+u5qULDK70vGnF9/gsFhfOloWE5NGjcLvb8s2DPqCKOMnPo++0W1jynmswyvGkjrLNOE5hlzhFE9hzlHU4GZM14BLx/dVv+t0xROyrYxhPBAXwGk7IuaCkiOuirkdNA8x17ZeCkBCUhAAhKQgAQkIIGZJtD7yIInKavN9ASs5v7znap6ne7CEi9jfHYZ5HtmvmVN2CRc5RtaRpJCA7e6uqvqebGM98NKieMtMepbXxcjZt7801v6KV+k427zzZ/w8BAkUROqaJv22QvOI6psQiFqcJhmWQiSyYd6PIQE0PomHK5K+3SVhYScNVMsRKeV6tHDZ6LmzT9nh8pUZKqpDP98MuSgBLRUVSr1KuG3BhBd8FnOcvIsK9MP/WLPJQ4xiBmhMiOPjoJqj69JM57mROA/K5uySAwZCBFMOIwnmXhKaPDJhzPr84nNSJpPF7dwFX9Jm8psy9OezSngPIzLWYBM9N7PI5Gcy0GVXVAO9bBk23+/Mbm0zW8ckHNCo6NkTsDxDPAJf4bGrQzmt1yK54GRptupw0wU2WNZaPonyODMcHKWCSkiJ9qKf3iIUTCuiDyfn+bzVvZelpNDdlretSwBCUhAAhKQgAQkIIEhEFBWGwJku2ghwHtUmZQRL5Atdk+sipcxPp9Y/T9X+TaYL8YTNsnG+Y4XNfl+mwb9FOKtm6GVxqFBVCpAGsSbZ6kFcCveUcsX6bDPAeb7ZBYYab5Xp/O0TyB5ix5pW73BRjCthINkdpcFQm19pw2D5hAyAAoJOb1loQJStupR7qfTsnlTJYm7kIxbyASlffinsnpiqeFWxS3hlx6iHAoC6JpTFv2Ww08/PFelPeXW8QbVKphmDGVNj4moBBFaMfbot/lQxZe6fKjiMcO+0v64LL8R8XRVT0v0Atty1ASQPssAglvlAeNEXY63tZycS7eVZcRZsu2/39YxVv7ji18CDAPAlo9EkMG4eg7DuLWjgWAmiiq8Lv8x763Pc/yk0Hs5iREh9hXq+KnEuLXfZmXAx56HpHrAmsbWSEACEpCABCQgAQlIYCYI9JbV3Fst3kT8nGYC7J6z3nrr5dmRvPeysdc097GK3MU7JNsJlZtSxR5tRxxxRDModiOKu3FiQBrEa2ocD5qVPQq8VZ5xxhmt5yp0tTrxxBO5FSckpM1BBx1EmW25mjt8pU1VYKup3XffnT2VqvrRv+Q5DIWoue8eJGO+OGiinMoY1Ic+9KHqiX3961/PraZlF4Tzzz+fW+w81ZyyeITOO++8ZlvO1ijtKYc8MXPnCfAcNk/nzI0CX/ayl1VBxokc8UjHrRgIg+KwiNKYSw6ULGu6yp/61KfKUWO2zz77hDH/AxaFnMq8ld7im8VT2rXvW1pOojBQv/HM8KXu+nIRIXESRvNUBE5HYe/IKkIqq+ewMmhe9gOz2WrCmthAjaelmika5lg4TbXyg331CO26665h0+dX6dxzzw0hku/p1ltvzdaEVRdeSkACEpCABCQgAQlIYNUSeMqq7d7ex5XA8uXLc2hklyAu5OUUC0uXLp2ch64X3UG97bvvvscddxzvxkgPMa588a6Es/AcCgWiWPV6HH4QfXjTrt48oyFZHtTz8okHXiZ5q2QX8Ouvv77PgLui4kQFXlOJn9NU85DT0ifzVdYT3kknnYSMwqgxa0owZdseZf6jQY+7M3TrmmuuCc+t50gsWLAg7t5+++3VFKy55pqtIcVhr623qsqwvPTSS5m16lYPsampWUTbG2+8sXIy6cuYCL4OPAAcfYD2zfNQTSsPD/45ULUZfFMNue666zDeZpttJh1SsyEcSFPi25F6InMUZjMtrFSzM1C/73nPe5CfCJvgUZSQIKsH77bbbotRVBJkk0DUbLjhhl23+q9vwuy/bVjyPIQamKJY6SHHsmTJkmq8c+fOLS3LcvNLV97NMs75Kr3qVa8KfXy6fsbTvwUJSEACEpCABCQgAQlMkYCy2hQB2rydwLx58/IGr+68G1fv7Xl30MKtt94aTVIHiTNGSb/q7YptBMNgxx13rCy7hK3KLC55zUMj402PdKSQ1c455xxukVVUCWdhHylj2HO0X6tDDgnNsTQNeCWmF1Qe8sVwwkt7nxplHrlI2mDTLTXk1JTyWasNlcTG36OPPgphlLV3v/vdXdJPl4eZqL/88sv7CT5FmZmIobfPUAH4jELTuPVpaZrNUA29AxA+zCl/HKtaxhPiBUpK19cql+YRXggu0x4nZ0eCLvXE++67L7roCglxcM6cOVMMA9Ew5mvnnXcOVwP1C0O+pB//+McRK+MPUJ/5zGdSbFpVD2QFc1BK5X8mGbTtFO2ZERIh80s0LSdKTzEkm0tAAhKQgAQkIAEJSKAk4CLQkoblaSPA6yX77JCvER55b4/8l6l3EKvPELbSVabJ9O7ioosuiiZbbLFFFGJ5HeW8lT57F97ylrdgQCSRuRMhvelNb2q2IqR8IWzejZpYXdV1N+p5LY9ojz766N6WeXdCtwTWm1i6opCLKDN5p7w7zHKsoERbaaZNDTOMCfuKlWvNjcByqT/r+yZ0MtMGiKQRJ0pQ2VeIFzxyGW1VqFK6yrbTVY4uUt7KvKcqkrwkty7TpiYdQ+SW0nzhwoXhZNB++eljZvn1Y6O0SLhDEJ/wyzjpgPtsWMHss9UomJ1++ukolREJCbyrnOQoMDEGCUhAAhKQgAQkIIGRIqCsNlLTMVbBkNPE62VmtXTlmAw0Zt6pQqU6/PDDs2GqY5mflbeygARD8giXiDKZbMVLeITHrYE0mlzsyUt4CmdZmZ1SiEQ2RMB8+S8L7MCNDck+/bwrhrDF8L/5zW+WXbSWsYkconIT8bLrEFN6EGt1OwqVuVUc79sTxpOZiSQkNo1zRR7peM27U6zZbrvt8HDTTTdN0c+MNue7ENp39RUIqTpWd04YQHwBp3ekpMvFNz1VrVyx278WPGHkTYOQrflZyPyyyfULWDZKQ8wKFTjV8HwgZ3QU1biaMCuDCS/zC5Jb3ZVNciw5uvLuFMu5+yRnHWQYU/RpcwlIQAISkIAEJCABCUwjAWW1aYSpqxYCLD5qqZ1UFS9vsa0SKlW5EBJ1LF7skQZa9SkkM7aICpkpd9eOED7ykY9Q4NYxxxzTGtTHPvaxsq+wISEl3pa/9KUvhXBWqnWln9DyIrutrI9y6nqxvX3ToKzhPT9EQNaUlfWt5S9/+cvUd0XFrRhUK64eDrmVuX6tZkOoJPLgcMIJJ+T7fNkvldtuu23cItoQENkerrShzFMR63NjKqu7g142t3zaa6+9cEImY2uQg/pvtZ+WlDGWf4bzUqaMLxTfi36E10WLFsVIKwhcMhGtkVeV73rXuypdm33fwibVaiSVmMrjjz++aj5dl/y8hJZXfsWm2G8IlGTSRZD59WmCpYZfm6mPpR+YZS/VrJW3ynI8Eohc1UxhEzPC7MyE7BUzQi+t27qVEVqWgAQkIAEJSEACEpDAKiGgrLZKsK+OnbIZ1uSGzVscqUa88XIMHO/5vLyddtpplSvS4uKV+4ADDsAyhQzaohxtv/32sYyIA0mrZWJoNCnJIQGQ5BUvjdEQTZCN4dZZZ52qOy4jZ4oUvFgBGsdrVmaZMpbSQGXAZWg6OOnn5fatb30rTei0tzHBR1SZ2NXsN85zhOeEyhowoRQOSRjJXL+mz6HVoGbSF8HzSKBE5HRTiOeE6Y5ttoj2/e9/P8bEzyjSkqlBaeWNnceGFcqTjjz3EIxFlMxLpsVxYGU8kzvttBOQ47miI2IgZh6tDGYSvW+00Ua0Iv6YPlyV3niS2ciP8fbjGY04FZO0T6n6bW97G9Hm80aBHvFfqkIpzPEwAzacYBZbEKbPHgXmiy9ptAUUzvneYU9ghJcNW6cSexoy2Gq8/UMAHdEyIyGCk76XqWrRdf/98ltRPpA8DH/3d3+HE3bcD1dlemCChSrBgzpHOpVCnzB7PLqtvUfCHY8cX5ycZdARefw4fOUrX2ltOJXKfPCm4sS2EpCABCQgAQlIQAISmFkC7OPe+sdaj3LJmGUJTI5AvLHzEFPox0Patz733OW9rtUPCyojiam1IQIHmlprw3IPuGZbemxdR0llGuO81XNIZl0rQKNJrAPFFTsxRQ37B4VnCpVbxh63ePPPW017XIVZa+TZMEQfgsya3vCxrBxGL62fSZvNxVoNorLH1mMZVWuBUUf8TefNuc49/ipjLC+88MLKf9g04edAKvsKGpdpwOR2BUkv3E3LnMSsyUL4L91yi4moPJckc5jphEJX/NxisqJJzlp0waObrqpCPq7RRXqozMoHNQZSxknbsG+dIHqvnjfsWy3DSfkkp2duRYTxmZyrOOMSpNW4sm2f/Xa5LeeaQbWCpffSLFw1n8MIaVpghpOMuXzGWv13zTIeqmklyFYP1OcUdA0tmZfGdNGPfdnWsgQkIAEJSEACEpCABKaLAPpYq24WlWar5TuFhZEg0HrQG29o5EnxWnXxxReX2StlxOTXsCaOFz/erkvFgba8Kt95551VMku2JX+EZDec8+acwhwe8IPmQo+t+VlUElI46XrlvvTSSzHoWgEabQk73rG//e1vR02eZpjpJFHPZy4+Dc9d9uGK+FsjT28RdumqFT5McAUfMnoqhyXndFsVcm+sqn6Klyw3Y06Z2Xh7D2+Q5PWebJ1qrpnf6sHAkunDsspLyqhyFrImBtIc8hlnnAHJqIdVrP2MVkwuQRJSKaPEw4yAwt10HoWmc+pjUqqpYSKYZeYlGuK/3NYqusu7YRPx5xMelfEJruj6iiuuyHq6uP766+FWEWawfC/YOCwtKeCBESUHauKZgXxpRrn1eXjDG95A8wyYIIHW+tWLryqWySqeT+I8+eSTy75aITSnlSbhIX4lqnGlwz775WtCbAmZAo8Zz0A51wGW7vKpwIzxVmbRdWvAGdUUYfZ4dKOLyj+zXP1OEjmTTmXXsbyVB9zmiLKQw7EgAQlIQAISkIAEJCCB2UjgyahrrXHfe++9O+ywQ+stKyXQPwFWDMVhBbyc857cf0MtJSCBsSfAYlXGiC4zE9tyjT29aoDjB5NVtIsXL45h+pBU0+2lBCQgAQlIQAISkMDQCFx99dXz58/v6s5stS4y1k8PgdjOHF+kkuX2UtPjWi8SkIAEJDC+BPKsXoaYpz2M73AdmQQkIAEJSEACEpDArCSgrDYrp20WBb3llltGtOwLtt5667Vu/z+LhmOoEpCABCQw0wRYck7yXR7jwGrTagX6TAegfwlIQAISkIAEJCABCfRJQFmtT1CaTZIAh2DmLki44PTGSTqymQQkIAEJrB4E7rvvvnKgcQhyWWNZAhKQgAQkIAEJSEACI0JAWW1EJmJsw6j2Vi+3Px/bMTswCUhgEALuXj8IrQlsxwPmwoUL47/HxHkOXUciTMDC2xKQgAQkIAEJSEACEph5Ah5ZMPOM7UECEpCABCQgAQlIQAISkIAEJCABCUhgFhLwyIJZOGmGLAEJSEACEpCABCQgAQlIQAISkIAEJDDaBFwEOtrzY3QSkIAEJCABCUhAAhKQgAQkIAEJSEACI0lAWW0kp8WgJCABCUhAAhKQgAQkIAEJSEACEpCABEabgLLaaM+P0UlAAhKQgAQkIAEJSEACEpCABCQgAQmMJAFltZGcFoOSgAQkIAEJSEACEpCABCQgAQlIQAISGG0CymqjPT9GJwEJSEACEpCABCQgAQlIQAISkIAEJDCSBJTVRnJaDEoCEpCABCQgAQlIQAISkIAEJCABCUhgtAkoq432/BidBCQgAQlIQAISkIAEJCABCUhAAhKQwEgSUFYbyWkxKAlIQAISkIAEJCABCUhAAhKQgAQkIIHRJqCsNtrzY3QSkIAEJCABCUhAAhKQgAQkIAEJSEACI0lAWW0kp8WgJCABCUhAAhKQgAQkIAEJSEACEpCABEabgLLaaM+P0UlAAhKQgAQkIAEJSEACEpCABCQgAQmMJAFltZGcFoOSgAQkIAEJSEACEpCABCQgAQlIQAISGG0CymqjPT9GJwEJSEACEpCABCQgAQlIQAISkIAEJDCSBJTVRnJaDEoCEpCABCQgAQlIQAISkIAEJCABCUhgtAkoq432/BidBCQgAQlIQAISkIAEJCABCUhAAhKQwEgSUFYbyWkxKAlIQAISkIAEJCABCUhAAhKQgAQkIIHRJqCsNtrzY3QSkIAEJCABCUhAAhKQgAQkIAEJSEACI0lAWW0kp8WgJCABCUhAAhKQgAQkIAEJSEACEpCABEabgLLaaM+P0UlAAhKQgAQkIAEJSEACEpCABCQgAQmMJAFltZGcFoOSgAQkIAEJSEACEpCABCQgAQlIQAISGG0CymqjPT9GJwEJSEACEpCABCQgAQlIQAISkIAEJDCSBJTVRnJaDEoCEpCABCQgAQlIQAISkIAEJCABCUhgtAkoq432/BidBCQgAQlIQAISkIAEJCABCUhAAhKQwEgSUFYbyWkxKAlIQAISkIAEJCABCUhAAhKQgAQkIIHRJqCsNtrzY3QSkIAEJCABCUhAAhKQgAQkIAEJSEACI0lAWW0kp8WgJCABCUhAAhKQgAQkIAEJSEACEpCABEabgLLaaM+P0UlAAhKQgAQkIAEJSEACEpCABCQgAQmMJAFltZGcFoOSgAQkIAEJSEACEpCABCQgAQlIQAISGG0CymqjPT9GJwEJSEACEpCABCQgAQlIQAISkIAEJDCSBJTVRnJaDEoCEpCABCQgAQlIQAISkIAEJCABCUhgtAkoq432/BidBCQgAQlIQAISkIAEJCABCUhAAhKQwEgSUFYbyWkxKAlIQAISkIAEJCABCUhAAhKQgAQkIIHRJqCsNtrzY3QSkIAEJCABCUhAAhKQgAQkIAEJSEACI0lAWW0kp8WgJCABCUhAAhKQgAQkIAEJSEACEpCABEabgLLaaM+P0c1OAi896DT+zc7YjVoCEpCABCQgAQlIQAISkIAEJCCBvgg8pS8rjSQggUEI/OKX/zmIubYSkIAEJCABCUhAAhKQgAQkIAEJzD4CZqvNvjmbXRG/9UPf2Pr1p1xx449nV9gzEe2nz7gGFHu+88yZcK5PCUhAAhKQgAQkIAEJSEACEpCABIZMQFltyMBXu+5+8asVeVuP/+I/VruRNwZ83ZL7qbt32aONO1ZIQAISkIAEJCABCUhAAhKQgAQkMPsIKKvNvjkz4llKYMEm6xP5/HlrrcL42fGNjLlVGIBdS0ACEpCABCQgAQlIQAISkIAExoaAe6uNzVQ6kFEncNRbFvNv1Ubppm+rlr+9S0ACEpCABCQgAQlIQAISkMA4ETBbbZxm07FIQAISkIAEJCABCUhAAhKQgAQkIAEJDImAstqQQNuNBCQgAQlIQAISkIAEJCABCUhAAhKQwDgRcBHoOM3mbBrLu068+NvX/egj73jlHi//g1v+5d+++Pffu+7WpbFEcbuFG7xup82p7xoPR2qy/f9tdz3QakDzL3zwdXHrtK/fdNKZ1+776oWsvrzgin8586JboxU2HzzkjzZYf83SA8bEcNvdD0QYbIK2cNP1D9lv28osm9z/wON/842baRKnEDx77TV22u75b3zdVl32EUwZXrqigLevXfaDclwLNl0f43ce+JLSLMqD0uM81jgwIZqX26tV8VSDWuMZT2VLuN7T0QzPGglIQAISkIAEJCABCUhAAhKQwOpAQFltdZjlURzjAw//IsI67rQrz7lkSRkiAhD/fvrgz9/yJ9uU9ZQRfQ499sL+D9PMXkLSSm/4/94dP039C7fv/dRllU5HL/z79vU/Ov6du7x80fOybRSuuPHHR376snKrsp898gsGglZ4zMGvqIzjMoKJo1ErA7x9+NR/xkNZTzz8w+HJH9g9Qy1dUR6IXum8tdzEywBjOtZc43ebEFqdWCkBCUhAAhKQgAQkIAEJSEACElhNCCirrSYTPaLDPO3cG5GuSIna/eUviDwvBKZTv3YDchJZZiRSvfAPfq8M/UOn/FPY/9me24ToRqYbaWghzH3m/bu1Sj/33v8IBvQSrWiCVPSizZ+TnkOqIz1t/123XLzNRqFh4fYb374DS+SzU45+bRkJ8hMqGJJTNNn/NQtxReRfueDmsE/P/RSIJxQ6xpt5YXRx5U33nXXRrYyX8M7/9AFNV/3Ty/S9yFP7/t8d0vRGzcf/5iq6KwdFbAiLF/zzv6w15+mtTayUgAQkIAEJSEACEpCABCQgAQmstgSU1VbbqR+JgYeI8+6Ddkw5jAL/dnnrlyP5qxSzQg4j7jJ9DIOwQThD1Uo/5fCQutDUslU2CRsS2QiD9ZufOuI1ZStWofIvlluyRrW8y9pPwmPVZ5lHFpHj7Yvn31T6mbCMcxS6//eA7cvsPKQ91Do0vpD8cFveDZ8D0ZswDAxY0MrnXx66c2IPVq0LUftxqI0EJCABCUhAAhKQgAQkIAEJSGCMCXhkwRhP7iwYWihTTS1sv5X5Xz9a9mg5BtKmuCSlq2kfG7Ehn5X2Zfkdb3hJs1UYnH3xikS297xxx9I+y1HPSsysoXDhFT/k881/sk21NpNKxC/0u9K4d3lFOth1P2IbtaZqRsMV4tquW1KIsVeuBqJXtW29LNe0thpYKQEJSEACEpCABCQgAQlIQAISkEASUFZLFBZWAQFyxJrKFHE8Z71n8Vltdhaiz/wN1m4GmtlVzVvUIFrFOs3mXVZukneGz9YwsKee5hRYExrNaUIkKHFdPrv0u2bv1IRexrEArXepjF4qFGE8EL0u/2V9jJTsubLSsgQkIAEJSEACEpCABCQgAQlIQAKtBFwE2orFytElwEZpzeDI+WpW9lOz7GfLMUO0Kg/H7N0wmrSqe70btt792cqjG1jBGtvDtdoMrfLgfV7MLm9kzx145LmvfcULunTDocVjRxKQgAQkIAEJSEACEpCABCQggVEmYLbaKM+OsT2BwMtetBHXt939QFNEC02K9aFPaNDHxT1LW0S6Zjty0zZ6ztyo77NJ00lrTbXQtdWGSo4R6Lo1jfXk2bGClb7QGU84/Up2uOOkUQ5PmMYudCUBCUhAAhKQgAQkIAEJSEACEhgbAmarjc1Ujv9AEH1YpYjic/jHL2Ffs8ilQmJDU4sVmhyjOTkKuD3j+L0n13ZaWu376oVHvWXxtLiaohMg8w+e37r2HtLWYMtGcnnu6hSd21wCEpCABCQgAQlIQAISkIAEJDBOBJTVxmk2x3wspE3FClB2QyOXin/lgDlJMw4uKCsnLG+8YctObb1brb/OGr0NBrr7/JWpYQM1GYJxnIIKcM48RVk76cxrn/XMp7kmdAjk7UICEpCABCQgAQlIQAISkIAEZhEBZbVZNFmre6hIPJwV8Gd7vmiNZzyNnf5jF3+WZ2635Yav3H7jSWhqAJ337Dl8tu7X1oU7jlMYqEmXK+qfvVKkmy5vPTqaxC2OayCHDsJfPP97Z110q7LaJBjaRAISkIAEJCABCUhAAhKQgATGmICy2hhP7rgNjV3VGNI7D3wJn2/5k22mZXgseEQ2Qq076+IlfcpG6HdHf/ZbNGGlZKuWd9rXb+o/thdt/twvPul71y25n9SwrtNI+/fWp+VAfW3y++vg9t5lj/bpXDMJSEACEpCABCQgAQlIQAISkMBqQsAjC1aTiR6HYa7x9KcyjHedeHHzyIKpDG/3l7+A5qd//SbEpj797LTd87E87dwbm/afPuMalkw267tqYsM47n7olH/qspnGejREvF150339+/z5v/8a4+GcmdB/VFpKQAISkIAEJCABCUhAAhKQgARWOQGz1Vb5FBhAvwT+1x5bkbDGPvr8yzbIPWs882lcskkZG/+/8A9+L2/1WXjj67a67talZGPt+55zkNg4bxSpK9qSj3b3vz5Md+yn9oUPvi4d/tkfv4hKmuz5zjPfsveiyFkj3+0f/vmHLE0NBar/9K6D93nxkZ++jIQ1Tt7c7zULOc80RoHM9707fnrNzf967a337/GKP4g0vYxhcoUFm6xPR6zo/MONn00vV9z443/58UOR+ocgyKBQDEmgCwIEcNF37vri+SuS71hpO7kebSUBCUhAAhKQgAQkIAEJSEACEhhXAspq4zqzYzgutB7EnVJTY5CpXqFnxarMj7zjlQMNnqWXJ39g90OPvRBXbM/Pv2bz5z/xZAMEKU5IICuNJiwI5V824VDRj71rl/d+6rKsmbDAuI5/5y4oaxzF0JXpxnZyE/rpx4DDUpHVCPugD3w97Ak4ZDWWtVLPNmosSq1cobWNyEGlVWBeSkACEpCABCQgAQlIQAISkIAEViEBZbVVCH+16DpWbq65xu9WoyX/67YnPSnWJFa3uNzoOXP5rO4ed9qVaGrPXnuNYw5+RSaUYUbK1eO/+I9vXXsPd1HWXrLV7+eWZ3FqZ8TQ7CVrUNbO//QB7IlG2hoJcQhMcQvJiSS4hZv9XnPbNaQo0sq++Pffo0nYc4nq12PTtx7BMJxzPr7v1y77AZpXHMVAAAx//gZrk19WJtBFYJOgFw0hw6LOyKqjBpivfcWKNbD8kbVHjytEt/sfiRFxSe8occkzLP2UgAQkIAEJSEACEpCABCQgAQlIAAJPXrZsWSuIe++9d4cddmi9ZaUEhk+A/dRIsELoOeXo13at9GTbNZQ1loKaWjX8CbJHCUhAAhKQgAQkIAEJSEACEpDA+BG4+uqr58+f3zUujyzoImP9aBG476ePERDZW12aGnfJvRqtoI1GAhKQgAQkIAEJSEACEpCABCQggfEloKw2vnM7jiN74KFfdA2L/fVj27VYa9llZr0EJCABCUhAAhKQgAQkIAEJSEACEpgWAu6tNi0YdTLjBF60+XNYAcqm/hy+uccrXpDHZdIxe6t9746fXPDP/8JdTuHssbvZjEdpBxKQgAQkIAEJSEACEpCABCQgAQmsNgSU1VabqZ7lA+VUgT/bc5svnn8Tp1V2HZcZp3DO8oEavgQkIAEJSEACEpCABCQgAQlIQAKzg4Cy2uyYJ6OEAGlou75s0zguM0+rpJ4MtedvuPb2W27YPK9TbhKQgAQkIAEJSEACEpCABCQgAQlIYIYIKKvNEFjdzggBctbeeeBLZsS1TiUgAQlIQAISkIAEJCABCUhAAhKQwCAEPLJgEFraSkACEpCABCQgAQlIQAISkIAEJCABCUhgJQFlNR8ECUhAAhKQgAQkIAEJSEACEpCABCQgAQkMTEBZbWBkNpCABCQgAQlIQAISkIAEJCABCUhAAhKQgLKaz4AEJCABCUhAAhKQgAQkIAEJSEACEpCABAYmoKw2MDIbSEACEpCABCQgAQlIQAISkIAEJCABCUhAWc1nQAISkIAEJCABCUhAAhKQgAQkIAEJSEACAxNQVhsYmQ0kIAEJSEACEpCABCQgAQlIQAISkIAEJKCs5jMgAQlIQAISkIAEJCABCUhAAhKQgAQkIIGBCSirDYzMBhKQgAQkIAEJSEACEpCABCQgAQlIQAISUFbzGZCABCQgAQlIQAISkIAEJCABCUhAAhKQwMAElNUGRmYDCUhAAhKQgAQkIAEJSEACEpCABCQgAQkoq/kMSEACEpCABCQgAQlIQAISkIAEJCABCUhgYALKagMjs4EEJCABCUhAAhKQgAQkIAEJSEACEpCABJTVfAYkIAEJSEACEpCABCQgAQlIQAISkIAEJDAwAWW1gZHZQAISkIAEJCABCUhAAhKQgAQkIAEJSEACymo+AxKQgAQkIAEJSEACEpCABCQgAQlIQAISGJiAstrAyGwgAQlIQOceebEAAEAASURBVAISkIAEJCABCUhAAhKQgAQkIAFlNZ8BCUhAAhKQgAQkIAEJSEACEpCABCQgAQkMTEBZbWBkNpCABCQgAQlIQAISkIAEJCABCUhAAhKQgLKaz4AEJCABCUhAAhKQgAQkIAEJSEACEpCABAYmoKw2MDIbSEACEpCABCQgAQlIQAISkIAEJCABCUjgKSKQwGpI4PQLf3zW5Uu7Bv6qbdc/Yv/N8u7/+ewtt927/Ivv32bDZz8jKym89shr1p7z1C8ftaisbJY/+/V7vvHdn/zv3Z53wCs3bN7Nmn/6/oPH/u0PF79w3T9/4+ZZSYH6T5x9169+/V/NW6VZBHnY3pu8dsfnlPVZXvqzX15y3QO33vPYsod+9cjy/4z6jeetsfD5a+J5603npqUFCUhAAhKQgAQkIAEJSEACEpCABPohoKzWDyVtxo3AdXc80mNIT3/a75R30dSoqTS1f7jqp0hd68x5ZmnZWl7yo8epf+66T2+9m5XXrwxp7TlPy5ooUE9HlK+85aHv3/VYl/5197J/x6ZLUzvxrDuvuPmh8FP6v2fZL/iH6lcpiaWNZQlIQAISkIAEJCABCUhAAhKQgARaCSirtWKxcswJLHvwV4zwsk+8dMJxkiyGzbz1alHs3p+ukLE2eGL+Wqu36OuPtl6v9W5W3v+zX1Ke/5xap7vr/l9Qjyr3k4d+hbLWKqshtyGZtSp3JKkd9Vc/oC1OFsyfs+XGcxe9YK1wQqsbf/goCiPK2qXXP7Dt5mtPGGRGa0ECEpCABCQgAQlIQAISkIAEJCABZTWfgdWOAEoZIhTrH/sZ+d0rVa1NN6iNlz24QgXbfKM5vZ2E4NVPX6zNxFUz3SxUOdaQskQ0MtqaPd7+4+VUbtDQ/uj9mNNvD8UND5VqhrjGvzfv/rwzv7X0vCuXVXebvVgjAQlIQAISkIAEJCABCUhAAhKQQEnAIwtKGpZXCwKhlDVFqNbB33X/z6mvVoBSc//KfLcXbTbBlmRdglfVF/oX+501081ClaMezYt93Eg6o6ZqyyUpaXxuusGzyltUfvKcFZuyvfgFa7EBXA/VjE3fzvmL7cq2liUgAQlIQAISkIAEJCABCUhAAhKYkICy2oSINBg3AvevTDTbYL0nnD/QNciQz7Z43hOy0lCsULjQuZpyW+XnzqUrVLkJ++pS38r6xS9csYyUfdCqLriMhaKbPDGl7q+/+WOCJFHu+LcuaDaxRgISkIAEJCABCUhAAhKQgAQkIIEpElBWmyJAm88+AqGUscVYP6GHfFbtaPa9O1ekjM2b6BQCbKKvSvBq9tuaboZZ1M9bqQByXic1cQBC5aG5fRtJbWzExkkLxxz0gsrYSwlIQAISkIAEJCABCUhAAhKQgASmhYCy2rRg1MlsIsAO/ehNlVLWOgCO+6S+KZ/dcd/Kvcz6OK+AvvDQYwFm9NuabsatqI9zDAiY1aCsFY2ooiGfsVC02r7t7MuXcuvlW607YT5d+rEgAQlIQAISkIAEJCABCUhAAhKQwEAElNUGwqXxrCfQdbJn68C6jvuMUzsnPK8g+qoEr9aOmulmYRb1eY7BK7ZasQ70qiUPlU44zZPLaqu4JT9aIfyxaVppaVkCEpCABCQgAQlIQAISkIAEJCCBaSTgSaDTCFNXs4BAnFdAEtkuh3+3Ge5he2+SGhZ3u477jFM7JzyvoM+zEVrTzeg96stzDF693fpnXb40JLMMvrlVHOlsnFSwYP6cZqravn9xHflu2TYKr3vpc9/xJxtXlV5KQAISkIAEJCABCUhAAhKQgAQk0JuA2Wq9+Xh33AiECNU1qjnPfILQ3HrcJ/udoUz1c15BU/Bq7bc8l6A0aNYjkyGWIZmd+a0Vazzjr7l9W481qk1NDSc4/G9n/l8JSEACEpCABCQgAQlIQAISkIAE+iXwBBGh30baSWDWEggR6sRDFvazt1rrcZ9xXsEm89aYkEH0NeHZCHEuQfO00NZzDLb/w3Vuu3f5tT94OBd4dm3f1kxVI+DLPvHSMuwjv3DbDT98tNWyNLMsAQlIQAISkIAEJCABCUhAAhKQQJOA2WpNJtaMM4HpOq8gTufsTarPvnqfV1CdIoqaxnkLKGshuvXYvu1Zz5hYNA/hL84Y7T0W70pAAhKQgAQkIAEJSEACEpCABCRQEVBWq4B4Oc4EpvG8gjidswes/vvqfV5B8xTRhc+fQ7+XXPcAnz22b4vzFnpEyK3WdLzeTbwrAQlIQAISkIAEJCABCUhAAhKQQBBQVvNJWI0IhAi16QYTr98ESu/zCsqTDVoJ9tlX7/MKWk8R3XHhuvT4zzc/yGfr9m2ks2X8rbFFJScbUJi37tN72HhLAhKQgAQkIAEJSEACEpCABCQggS4CympdZKwfQwIhQvW5lVgskKyO+4zzCsrTObsw9dlX81yCcNhVz10UPQ5MINEMSS6CrBaKxqJONk2LjLmuCCOdbYNnP6PLwHoJSEACEpCABCQgAQlIQAISkIAEehBQVusBx1vjRiBEqC2et2IR5YR/rQsk47yCDdabOMOrz756n1fQPMcgwl74/DUpXHnLQ63nFXAaQ6S5/fU3f4z01jXSrnS8LnvrJSABCUhAAhKQgAQkIAEJSEACEigJKKuVNCyPOYE+zxCAQtcCyTvuW87dVXVeQU7P6176XMpX3rJiHWjrQtFD/vj5LAVFGTzm9Nv/8m/uiOFEc4Q2Lk88684lP1oxliodL2z8lIAEJCABCUhAAhKQgAQkIAEJSGBCAhOfFTihCw0kMCsI9H+GAMPpWiB5/89+yd1vfPcn/GuO+rC9N4k916KvX/36v3Y5/LtNM4SwUw/fOuoHPa8gWpGPxkJUVDMuW1PnMDh8v03JVsOGpDb+febcu6tI0N3233nDPpfEVm29lIAEJCABCUhAAhKQgAQkIAEJSEBZzWdgdSEQIlQsn5xwzI8s/zU2226+9oSWpcGcZ/b1hXrG036bJcoKUKS3BfPrRalxjkGzvuxr1+1/76v/uJTmL9psrbI+yxwhyr8zv7X0lrsfu3vZLx5Z/p9xCz0OJe6Fm8w94JUbprEFCUhAAhKQgAQkIAEJSEACEpCABAYl8ORly5a1trn33nt32GGH1ltWSkACEpCABCQgAQlIQAISkIAEJCABCUhg7AlcffXV8+fP7xqme6t1kbFeAhKQgAQkIAEJSEACEpCABCQgAQlIQAKdBJTVOtF4QwISkIAEJCABCUhAAhKQgAQkIAEJSEACXQSU1brIWC8BCUhAAhKQgAQkIAEJSEACEpCABCQggU4CymqdaLwhAQlIQAISkIAEJCABCUhAAhKQgAQkIIEuAspqXWSsl4AEJCABCUhAAhKQgAQkIAEJSEACEpBAJwFltU403pCABCQgAQlIQAISkIAEJCABCUhAAhKQQBcBZbUuMtZLQAISkIAEJCABCUhAAhKQgAQkIAEJSKCTgLJaJxpvSEACEpCABCQgAQlIQAISkIAEJCABCUigi4CyWhcZ6yUgAQlIQAISkIAEJCABCUhAAhKQgAQk0ElAWa0TjTckIAEJSEACEpCABCQgAQlIQAISkIAEJNBFQFmti4z1EpCABCQgAQlIQAISkIAEJCABCUhAAhLoJKCs1onGGxKQgAQkIAEJSEACEpCABCQgAQlIQAIS6CKgrNZFxnoJSEACEpCABCQgAQlIQAISkIAEJCABCXQSUFbrROMNCUhAAhKQgAQkIAEJSEACEpCABCQgAQl0EVBW6yJjvQQkIAEJSEACEpCABCQgAQlIQAISkIAEOgkoq3Wi8YYEJCABCUhAAhKQgAQkIAEJSEACEpCABLoIKKt1kbFeAhKQgAQkIAEJSEACEpCABCQgAQlIQAKdBJTVOtF4QwISkIAEJCABCUhAAhKQgAQkIAEJSEACXQSU1brIWC8BCUhAAhKQgAQkIAEJSEACEpCABCQggU4CymqdaLwhAQlIQAISkIAEJCABCUhAAhKQgAQkIIEuAspqXWSsl8CQCNx8883777//k1f+veY1rxlSr3YjAQlIYPoI8DvGb9g666xTuoxftlNPPbWsXIXlb37zm0RInJtuuunHPvaxVRiJXUtAAhKQgAQkIAEJjA2Bp4zNSByIBGYjgYceemjvvfe+++67I/hLLrlkNo7CmCUggdWcwPLlyyHwyCOPlBweffRRLh977LGychWWlyxZEhHyk/u+972PSN773veuwnjsWgISkIAEJCABCUhgDAiYrTYGk+gQZjGByy67LDU1hrHJJpv0HkzmtUV2W3xuu+22b3/720nE6N2Wu2SUfOADH8A+m0fb73znO73b3nPPPSR3kEwXDcn4IJKzzjorW0VgeMua1kJ4INoed+miRyJJJMVk/FEg9wSfraNIe4bQ2imVdBd+emcLtsKnCc2RR5vOIy+mpNS0IZGnGkt5OcU0Hx4JYgZO+GR2mP0eHJrhrT41rRMxTGI8wDxLvZ+WmZ6O/LKUD2GWuRsB8AjxXBFt1vQf2FTa9t9Ll+XcuXPLW1/4whfKS8sSkIAEJCABCUhAAhKYBAFltUlAs4kEpo3AfffdF74Q1B588MG77rqrt+vI/qhsbrjhhlNOOWX33XdHBeh60UX3QVLZeuutjzvuOOzTQ7RdvHgx78mt2hCWvOq/+MUvJrkjk+nI+Dj77LMPOOAAXq2j1U477YQl3roC4C5v1OHh5S9/eQaQhbxLTY/X3UiKyVZRQJqEAKNgjNWttF+2bFl1Ky+zO8IjjKyvCq3waQKZ5FA2ibyYnOLyVpZnKJGHSSEkHgmmKXVbZofZZypXrXaTYx+pQutEDJMYDzDP0pe+9KVViCW/LL1j4KvEc0W0/PW2bN6dStumt0FrDj744N/85jef//zno2F+NQb1o70EJCABCUhAAhKQgASSgLJaorAggVVA4PLLL49eSSlad911+4zg1a9+NS+H8YcYd+GFFx5yyCG0RQVA3moVthBZkFSwoS32ZVtqqOc9+cADD2wGgASDfIZChPB35pln0h1t+aRMDe/Vp59+Oq322WefaHvOOec0nUQNqXkU1l577V122aVp87WvfY3KGAivuxMm31155ZW/RfCb3zAi1CKaM8bWnLVmd1mDPd3RPDzEcPJus/DRj340+6Uhl9hA/phjjmka91+TPssCKkD/HtIyNLWQPOD5/e9/P3xS4JKpZELTeEYLPIrkOlX7bc1oj+E8Us9QiifRV/KPh5zHFWKkknWJzpPoorVJZKouWrSo9e6QK8svVwLZaqutIow5c+aAhfLChQsHDWwqbQftq8t+wYIFeWvQn4tsaEECEpCABCQgAQlIQAJBQFnNJ0ECs5sAYtxuu+32uc99DmkpJAA2a6skAFYpovswTjSgiy++GPsYc7SlJsQshJgqjwlZJCQYJKdrr70WnSK0Pz4pk1sXDfFGzX777UcBeS6cNz9PO+00KtNJZRApYwhJ4eeCCy6oDHpcMqLs96STTuph2bz11a9+lcq3rPyjkH6als2ajTfemL2ZAgLZRk2DVVJz6KGHxnQjffJgpBpCgUvEtdBEhhBb635bQ+g3Us9aswv77z0ecojRBGUtZN/+mw9qybcJAevYY48dtOHw7XmQHn74YaLNX5L+Y5hK2/570VICEpCABCQgAQlIQAJDI6CsNjTUdjQSBNCbWCcYu02RREMSSmtu10jEOmAQvOIef/zxNCKFqpQAGPIJJ5xAPVlpXftzf/jDH45kmaOPPrrsNhyiwiA2haBW3qWM6JA+99xzT2rovTUBhMWVofXssccelRMuI2WMGHjrDj+oVJU42GxV1qBwRdrdQGIKXYSSSAJd5NAR/4SJcmW/lOfPn1/VrMJLnudQBo866qjWdK3QNVZhhLOr62TYukp0do3FaCUgAQlIQAISkIAEJCCBaSegrDbtSHU4ugRQHLbffnvWCSKdECUZKGg3rJqsUrRWyQDWWmutqfdLqleoY5EXFg5ZeslIKR922GFdXWSuGWRSZ0QIC4EGZQHRqqtt1mMWaVCR/5X1UYgVoITXmuESTSJPLf1Ek8pPj8uBZLiMCjjk4jFA/iaRKNcjnlVyK085ePOb39x/AMiaSMx5uAEFLlvl0VzUyeOBTRzLEPYl/1iGyW53EUNue58qVdTThFRK9gQMg1C6m9vbEQkG0ZYyhbCnIc3LYcatOOSR7MvsN7GUxv2Uy0E17fnpYHl19kLvrdBoiJ8U9LGnVaXehp8qTixjCW1Ju4tShBd8Yl5oDqKZ+H2LIedvRZNMj5pm2/7nN93GcRzhqvqM5yQtLUhAAhKQgAQkIAEJSGBGCSirzShenY8WAdb5haBWhoWqgjrQfJMvbYZQ3mabbaallxCGyAtLOeCKK64Iz616Vna66667Rvn222+PwnXXXReF1vyybFgW4oW29TU+lL4Ir2wS5Wiy7777xmX4GWj7dt7wIxtu5513bvrvqjn//PO5xYMRBpEoRzBJr6thWR8b5EWuXFm/SsqXXnop/YZQ2GcAKFPoX0jM+e2gwCWVlcoTDvnKgAiFFJtQbMMeYWggbiFzI4ExcdALgPjEc+sjRB4iX1WiyoW6NKQ5lX2OdBJmmfi54447ls0ZKeNliTTiHbQJnrAJjPCa8TDSzTbbLAV9/NCKAyWaJ2w0c+IgjIREF0mbGsrUNFUtHAYfZDVCwgZEBIm4NtDUlCPtUe7ziINWD822/c8vw4zjOGAe5Fu76KrcYostum5ZLwEJSEACEpCABCQggUEJKKsNSkz72UqAV9OQXZoD4DV1wo3qm62mpSalq2nxhpMtt9wyXKU6FophaBY9eslXzTy5Mguk+PVoWN4KAS6EgLI+Na8Uzsq7aCg0QQJgfWLUhx+kh37kTvQCPMRRpLxm95+lhfMQaPK8hVgHSjB9JsrhAQ2FOEnTi7MLynGtknJIY6961av67J3vReR2oXjm4QZ5BMTb3vY2DJquUGoYMnu3scEWW/uz4BQbvl8pQsWRi+x8H21z2/tSLwuZm3knZjb4448du2KjOqg2px7OISfFhvq0iqeayhSY8E9fMRfczX4ncfgDASA4QoAhAOdlL3tZyeGTn/xkzDvBXH/99QTP5mgAwYZ4Smg8nzycPFQ8nHlaCJYAjFNESretZSQk6oM2I4q2OGQXxdKeTsMhJ10SDCERWGylx9QQcGk8guV+5pewmesYJhximEkewjyN5TPWOsxyPfvjjz/eamOlBCQgAQlIQAISkIAE+iSgrNYnKM1mPYElS5b0GMONN97Y4+5M3OJlG+2Ad+NwnsrOFPvacMMNJ+ehfNWsPPS4VVmSEMebLZXVgQNxPCi3UjgrG1YpY9zCT6wnTZmmtI8yWTmx+Gu99dZD5YEkMgrnKvQfbWhnKCbZhELk0/VIlEOEykVnjAgNhVC/8pWvtA6tGXZXTfrMQmumWFfzqn7u3LlVTddlLA0GHWJEDgH+iDIxlR/84AebbSMNKpIKgcZG+9Rgdt555zWNW2voDq0HdHTE8tu0Ybc++mU2W5VNRDfsQ+Gi1RlnnBENUWTSwxQLyZ8wQnBENKyUGhS3UHa+8Y1vlHIbQEIW/PKXv5xh8AzH1/zcc8/NjFEsv/3tbwfhtOwqwPbOO+8M2thQyF0UyzWnMZVIiqWGyJzGqQs8qF3+m/X55UoasRa1aTm9Nf3Mb8w1TBIIMVAGJkpr62PTDDLJ83inJts0s0YCEpCABCQgAQlIQAITElBWmxCRBhKYfgK8yCEG5YsuaRelsjD9/Q3RY8hSyBDlorNICjviiCOagaBQxN3IFEuDkCfieNCs7FHgNRuRJQWyHpZ568QTT6QcCz+z8qCDDqLMq3szWyptqgKiSeuCvspsBC95DiO7rbnvHiRjvhC/yqmMUXzoQx+qntjXv/713Gpado06tFTUkOaUxSPUqtBxtkZpTzkS1pprJ7v6HbSe57B5OmdoN0gzpaYWniPRMh7pqImBMKhULaOeS9Ks+onnU5/6VDlqmqQKf9VVV4WHnMq8lZ4zB7PU4PLuSBX6n98KyKCjQOIM4Z7He+utt26u2x3UofYSkIAEJCABCUhAAqstgaestiN34KsbgYULF/YY8qJFi3rcnfZb5b5CZJeUaRdT7Gvp0qWT89C/itTbP8s8SeSJbKMYV77wV8JZ+AmFAlGskmnCD6IPWkBTvKAti++oR8fBA2/FvB6z1xWr3nqHl3e7oopEOeInySgPOc1WFJivsp7wTjrpJGSUSF9qSjBl2x5lFvf1uDtDt6655prwnFlUZUcLFiyISxYUV1Ow5pprlpZZZhay3LsQluwEx6xVlj3Epi4xZRqzTWMi+DrwAJCtFtmI1bTy8BAzS1abwTeFxVjoPV2bJwYrOERyVuqJueh7WhSi+HJV8zKEy37mFyGVeUH4RrvPX06W64ZAvN122/UTJ5omTyBrpaPVdP369dO1NhKQgAQkIAEJSEACY0ZAWW3MJtThdBJAOEC7aX3tJ22h/w25OjsY5Ma8efPSnFdE3o2r9/a8O2jh1ltvjSapg8QZoxOuklu2bFk0rLZmp7JL2GqNjffV4Ew6Urz0xgpQXoYr4SyaR8oY88Jys1aHHBKaY2ka8B5OL6g85IvhpHzTbhqXNbnEkrTBsj7LJMqV8lnWVwVi44/d1iGMsvbud7+7SxqoGs7oJaco9BN8ijIzGkyr85Az+IxC06b1aWmazVANvQMQPswpf/w+lPGECoP22vW1yjWGhIfZTATJ6augSz0xd0LsColfuTlz5sxEJEP2yS8MPyYMk6XfRx99NBzQYeMpYlO5cpp6BIb6Sf5gPnvTchBzj+68JQEJSEACEpCABCQwxgRcBDrGk+vQagIcRlm+7sZt3jbZe6jPl7Ha42Sv6Y6ttWOdIz54b4/8l8n6+592sfoMYSurMk2mdxcXXXRRNMmzC2J5HZV5K332LsTBmkQSmTsR0pve9KZmq0wZa97Kmmpbq6wvC2imES2v2WV9j/KEbnnl7k2sdJ6LKDNpqLw7zHKsoER0aKZNDTOMCfuKJXik/uWpAlUhdgSb0M+MGiCSRpwf//jHy45CheGRq2LOyx4Jd6WfqZSjizz3NnfTyxiqArl1CFJT6XFE2qLy83jzE8ejzqAo80mZDLtyU7ne0XJGTf4nFhpO+GvQ25t3JSABCUhAAhKQgARWZwLKaqvz7K92Y+etki3t2YA8xDVemBG22Dg8VxINkwg5TbE7e3TKy+HUe+flMPIvDj/88PSW6ljmZ+WtLCDBxEZvvJ1mshW4AhS3BtJocrEnyzNTOMvK7JRCJLLxhlxJAHHJIYbYkOzTz0tvCFsMvzyEseyrLGMTOUSIm61dh5jSg1jpbaTKuVVcP4fbZmYiUkVzFLfddltUko7XvDvFmlisd9NNN03Rz4w257sQ2nf1FQipus9jfOMLOL0jJV0uvumppuWK3f614BlFN3POWXONc3b342cBQY3vL5+UB3pKc9NG/udgoIYzNy49S0ACEpCABCQgAQnMUgLKarN04gx7kgR4T2a5JYke8TKGsLVqMzhYwTTJkTSa8Tod2yqhUpVCIQOMF3ukgVZ9CsmMLaJCZjryyCNLxx/5yEe45NYxxxxT1meZLY3KvqKeXLzImeI8zRDOSrUu21IILS+y28r6KKeuF9vbNw3KGhLWQgT8zGc+U9a3luOgxq6oaBKDasXVwyG3Mtev1WwIlUQeHE444YRWhYXKbbfdNm4RbQiIIVWU4fFUxPrcmMry1iTKzb2r9tprL/yQydga5CS6aDaZlpSxXB5eypTxheJ70Y/wGvs2MtIKApdMRDPsZs273vWuStfOE3JTrUYbiqmMQ0KbTsamhgXXjIWvcMVkoAGGKEmTXXfddaCGGktAAhKQgAQkIAEJSKAioKxWAfFSAquGAJthTa5j3i1JNUJQ4zw73vN5tWata+UK9TBeudmNCMsUMmiLcrT99tvHeigOJK1ERjSalOSQAEjyilfZaIgmyMZw66yzTtUdl5EzRQperACN4zUrs0wZS2mgMuAyNJ2mJNG0pOatb30rn3Ra6ReVMcFHVJnYVRlwGec5wnNCZQ2YUAqHZL5krl/T59BqUDPpi+B5JNA9c7opxHPCdMc2W0T7/ve/H2PiZxRpydSgtCI98NiwQnnSkecegrGIknnJtDgOrIxncqeddgJyPFd0RAzEzKOVwUyi94022ohWxB/Th6vSG08yG/kx3n48oxHHVyDzm2iVUvXb3vY2os3njQI94r+U21KY42EGbHSKGfJ3rkPsHQlmfEmjLaBwzveOJgRWrl5vnUrsachgq/EOBKF3eEO+G+teeWLZFZF5jD8eV/4gkw9Sj6hyvnrYeEsCEpCABCQgAQlIQAL9EmCf8ta/q666qnVtlJUSkMA0Eog3dr6uFPpxm/at33DuIiW0+mFBZSQxtTZE4EBTa21Y7gHXbEuPresoqUxjnLd6DsmsawVoNIl1oLhiM/KoYSOk8EyhcpsZKCzcy1tNe1yFh9bIs2GIPgSZNb3hY1k5TALNQtJmc7Hm3azpsfVYRtVaYNQRf7rKQnOuc4+/tIkClhdeeGHlP2414edAKvsKGpdpwOR2BUkv3E3LnMSsyUL4L91yi4moPJckc5jphEJX/NxisqJJzlp0waObrqpCPq7RRXqozMoHNQZSxknbsG+dIHqvnjfsWy3DSfkkp2duRYTxmZyb81uaZfPSLNuWlj0GNWHb8NOcX0YdlRXMuGzFUoZEOUOlSRlGZealBCQgAQlIQAISkIAEggD6WKtuFpVmq7X+f+ZWSmBECbSeWMdLJnlSvB9efPHFZfZKOQbya1gTx+s9b9el4kBbJIA777yzSmbJtiQ0keyGc97YU5jDA37QXOixNT+LSkIKJ12v+pdeeikGXStAoy1hh3jBFnhRk6cZZiZU1POZi0/Dc5d9uCL+1sjTW4RdumqFDxNcwYf8o8phyTndVoXcG6uqn+IlSwKZU2a2FCAgiWpD6lM118xv9WBgyfRhydLa1khyFvJuDKQ55DPOOAOSUQ+rWPsZrZhcgiSkmOKojIcZTY276TwKTefUx6RUU8NEMMvMSzTEf+4iR010l3fDJuLPJzwq4xNc0fUVV1yR9XRx/fXXw60izGD5XlR75+OBESUHnMQzA/l0GIXW5+ENb3gDzTNgggRa61cvvqpYJqt4Ponz5JNPLvtqhZDT2vxylW2znPbURDn7DZuYl9ZBlW3DuGpbeijnlx0byUgl/vI/IcAHJjThoc0VsuHBTwlIQAISkIAEJCABCcwogSejrrV2cO+99+6www6tt6yUgASmiwALl+KwAl7OeU+eLrf6kYAExoAAKxwZBaKt2+rHbLLGc7PNNmOBcyuT+Dmd8LeUlciLFy8Oh61+xuDJcQgSkIAEJCABCUhAAtNI4Oqrr54/f36XQ7PVushYL4FhEIjtzOmJVLJ+dgUaRkz2IQEJSGAkCdx+++1oaoTWqjPGT2j+qHaNII+4xWCVnzHSFaT1EpCABCQgAQlIQAKzhYCy2myZKeMcTwJbbrllDIwFTezA3br9/3iO3FFJQAISGJBArk7l8I3yv0NQ5uwIVoDir8fhnqzUJgGQgyaiW1bIVgu3BwxHcwlIQAISkIAEJCABCTzpKTKQgARWIQEOwWRHoci/IIwsrMKQ7FoCEpDAaBJg/0S2qDvlv/9yY7tYSk/M7CLXmsgWw7nvvvvKccXZwWWNZQlIQAISkIAEJCABCQxKwGy1QYlpL4HpJFDtrZ5vidPZh74kIIHZTKC5u/9sHs1UY89jGcg1Q02LP04w4JANcn6r4ziqzhYuXBgHI8SxD+9973srAy8lIAEJSEACEpCABCQwKAGPLBiUmPYSkIAEJCABCUhAAhKQgAQkIAEJSEACqwUBjyxYLabZQUpAAhKQgAQkIAEJSEACEpCABCQgAQkMk4CLQIdJ274kIAEJSEACEpCABCQgAQlIQAISkIAExoSAstqYTKTDkIAEJCABCUhAAhKQgAQkIAEJSEACEhgmAWW1YdK2LwlIQAISkIAEJCABCUhAAhKQgAQkIIExIaCsNiYT6TAkIAEJSEACEpCABCQgAQlIQAISkIAEhklAWW2YtO1LAhKQgAQkIAEJSEACEpCABCQgAQlIYEwIKKuNyUQ6DAlIQAISkIAEJCABCUhAAhKQgAQkIIFhElBWGyZt+5KABCQgAQlIQAISkIAEJCABCUhAAhIYEwLKamMykQ5DAhKQgAQkIAEJSEACEpCABCQgAQlIYJgElNWGSdu+JCABCUhAAhKQgAQkIAEJSEACEpCABMaEgLLamEykw5CABCQgAQlIQAISkIAEJCABCUhAAhIYJgFltWHSti8JSEACEpCABCQgAQlIQAISkIAEJCCBMSGgrDYmE+kwJCABCUhAAhKQgAQkIAEJSEACEpCABIZJQFltmLTtSwISkIAEJCABCUhAAhKQgAQkIAEJSGBMCCirjclEOgwJSEACEpCABCQgAQlIQAISkIAEJCCBYRJQVhsmbfuSgAQkIAEJSEACEpCABCQgAQlIQAISGBMCympjMpEOQwISkIAEJCABCUhAAhKQgAQkIAEJSGCYBJTVhknbviQgAQlIQAISkIAEJCABCUhAAhKQgATGhICy2phMpMOQgAQkIAEJSEACEpCABCQgAQlIQAISGCYBZbVh0rYvCUhAAhKQgAQkIAEJSEACEpCABCQggTEhoKw2JhPpMCQgAQlIQAISkIAEJCABCUhAAhKQgASGSUBZbZi07UsCEpCABCQgAQlIQAISkIAEJCABCUhgTAgoq43JRDoMCUhAAhKQgAQkIAEJSEACEpCABCQggWESUFYbJm37koAEJCABCUhAAhKQgAQkIAEJSEACEhgTAspqYzKRDkMCEpCABCQgAQlIQAISkIAEJCABCUhgmASU1YZJ274kIAEJSEACEpCABCQgAQlIQAISkIAExoSAstqYTKTDkIAEJCABCUhAAhKQgAQkIAEJSEACEhgmAWW1YdK2LwlIQAISkIAEJCABCUhAAhKQgAQkIIExIaCsNiYT6TAkIAEJSEACEpCABCQgAQlIQAISkIAEhklAWW2YtO1LAhKQgAQkIAEJSEACEpCABCQgAQlIYEwIKKuNyUQ6DAlIQAISkIAEJCABCUhAAhKQgAQkIIFhElBWGyZt+5KABCQgAQlIQAISkIAEJCABCUhAAhIYEwLKamMykQ5DAhKQgAQkIAEJSEACEpCABCQgAQlIYJgElNWGSdu+JCABCUhAAhKQgAQkIAEJSEACEpCABMaEgLLamEykw5CABCQgAQlIQAISkIAEJCABCUhAAhIYJgFltWHSti8JSEACEpCABCQgAQlIQAISkIAEJCCBMSHwlDEZh8OQgASGTmDpz3555reW3nrP4z956Fd0/vSn/c4m8575ykXrv3bH5ww9FjuUgAQkIAEJSEACEpCABCQgAQkMm4Cy2rCJ298oEEAM+utv/riKZO05T91k3hr77bzh1pvOrW41Lz/79Xu+8d2fICSd8u6tNnz2M5oGUfNP33/w2L/94eIXrvvnb9y8skGTOvm8e2744aOv2nb9I/bfrLf96Rf++KzLl2Lzv3d73gGv3LBylZevPfKaX/36vy77xEuzpirQ6SXXPXDrPY8te+hXjyz/z7i78bw1Fj5/TYLsZ+DpkKF94uy76C5rKN9273L+/fyX/1+PINO+WWjV6bbceO6bd39eZfyXf3PHlbc8VFXmJSM69fCt85LCQcfdGNpfVnaJgP9w1U8/c+7dL37BWse/dUEatxa+f9djx5x+O6P+4vu3iWega7pHcPpaR2SlBCQgAQlIQAISkIAEJCABCQxEQFltIFwajwkB5I/mSJCZELmW/Gj54ftt+kdbr9c0yBrUn0uvf4BLJJXv3flYD1nt+jsewWztOU/LtlHAw1F/9QOEHuSbUoHqsr9upR/annflstK+dMugiAdFqawsyyeedecVNz+ETVlJ+Z5lv+AfKmEp8FU21SXxh6ZGd7CKkJCZvnTRj5HVLrr237qCrPyUl2idX/3HpWV4lEOn+/f/+K93/MnGpXEPTQ2zdeY8tTRGKas0Ne6m8+/d+Wgpes555opfxYf/W3Ms/VTlsy9fES1yZD4As2X6qoF4KQEJSEACEpCABCQgAQlIQAKTI6CsNjlutprdBJY9uGLRYpnVhU5EGtf53/kJQgn6Tm9ZjSwzzBbMn4Poc+9P/70Hi/t/9kvuzn/OM0ubUlOrUqJa7WmL7MXnc9d9OvIQ8llreHffv8Jmg/WeXvYV5eyRS8Im/2vRC9aK3DS0sBt/+CiyHV2gFW67+dqtziuf5125AhSu/u87Xpi3cMjlLod/t6lhpU1XgUGFpobPPRfPixgitkuu/7eqVaiizZS0yiwvY44q0RCt7Vs3PsAMotCVSOmaBMN4QtJDs0ATRFhS3sgfzLuzZfoyYAsSkIAEJCABCUhAAhKQgAQkMBUCympToWfbWUkAsQZJqMrqIuGIlYbPfPrvsDg0NKyusSHHoKeQZbbjwnURZR5Z/usuS+pZa8lnuddYKlytywyb9jRPFYmlmuSUXXFzu6x2/4MrJLwN1qtXpDLeWKuIKocGVKlmaGH8Y+yIiaTCVXdx2Pp39/0/p55t1Kq7jI6aim1l03p5/pXLmJRK+crYqiYhIG66QWdeXmW/bCWZzTeaU9YzKfzb9y+uI0uRLLNy4CwHppKxZBpa2TDK4KLw8q3+J1WNy9kyfc3hWCMBCUhAAhKQgAQkIAEJSEACkyDgSaCTgGaT2U3g9h8vZwCtWV3PesbEQvMFV/+UHCW2YHvRZiu2YLt/ZeJbKxH0LNQZxKy8m5ra61763CpPDZumfTTMNDTWG1Kz5EePp8OyEJGQhlZW0uMnz1mxAxoq3pePWlSKR6UZZZZtnvMX21WVg16G2LTd5msP2hCBEqq5x1zv5netFPV6aF5V87tX5vrFfFW3UCqrGi5j0S7Le5u3ogZpFe0V9a0MeAymr2u81ktAAhKQgAQkIAEJSEACEpBAKwFltVYsVo4zgTuXrsi0amZ15ZhLISwro8De8+gp5CiRSBWyTo/VgpV+R9LZIZ+8mQWS+++8YbVTWDiv7LPrTEOjU9ZIItWFepUGUSAwlClsynqS7+iR9LGmileaDVreYOUpDQ888h9lQ/ZuYxkp+l3zhIHSrKs8r235aqtxCIhbPO8J2WetllQiLEIMCaxVhgtX6zxx87vIg6tGV/r/u3+6n8u9Fs8rK2fR9JVhW5aABCQgAQlIQAISkIAEJCCBSRNQVps0OhvOVgKtWV0xmKuWrDhccsuNWzKYqEegYfM1pKvcjx+5ikQw6ltZRP28lasy0dRij380tS7VKew33eBZlbcIeJOVax7ZFo27t9xdJ1LFQtFKmSJ/io3DCPiYg15Q+ZziJVuw4SEPUiB7i6M2Q1ObtH6HLNhFsooWoRCZrBIQK5u8jKQzznjNmizAh065rFL8QmV7uGN5L9JqKJX5GITDWTR9ScCCBCQgAQlIQAISkIAEJCABCUyFgLLaVOjZdlYSaM3qYiTIJWyahl5TySU5SHLEENH2fNlzM+8pTpzsWi1418ozBDivIDQ1/LC1WZemxt2wD/ksO6UQ0k+s33z1diu2M+O40kqBat1ujKMqMa72/yo9T7pMMEiKBPbZr99z8Ce+/5lz74YMo5u0pkaOG8F8/Kw7q3E1I0TCo3JesbS2aVPW3HHfijW/IW6W9XTE8lhqWFpbKXTrr/271Md0lE0o0yqOUGg+JLNo+qpBeSkBCUhAAhKQgAQkIAEJSEACkyMw8U5Sk/NrKwmMJoGurK7LbniAZCsSu96+58apmpVDILMJA9aHlrrYOms+DZuuw0BjfeicZz6FPDXMDt9v0x5bm2EQ9pVNBJyHABAbChTyH+eWlpG0bjeG+obbpgBE5dT/2JUMWY0jFIDGUQP0UnFD/2I7s6qyq99D99r4qL/6ATusvfvkW//0VRuVhzxUTYI2lhw5Wt0ikn84/iVVZfN0TpDees/jV97yYOx8Vx7lGW3pHaGw9TAKpFVaMQXVNNFwdk1fRclLCUhAAhKQgAQkIAEJSEACEpgEAWW1SUCzySwmEFld6EFNUYY8tU8eumWXDHTK3/+IYb/+jzYoB8/hkmhtrfoLMhwJXPiMtZ+H7b1JU4gpXYV9ymd5K88ryJoXbjIXWe3We56wDrS53RiqFgGwF1tzRHH8ZTqMAqcotO74VplxSajQiBw6LknfKwW+sCeLDcWtf58Eedz/84dkq6GXIWl968YH3rTr86oksvAcx3pGufqs1sD+1n7lYaz45F9lT54amlqTD2ZMHPJZZU+q2hU3r1hUiwhY3ZpF01dF7qUEJCABCUhAAhKQgAQkIAEJTJqAstqk0dlwVhKI7f9bQ0dGIVWKbLWm/oVEhYqE5lVlUf3++s/AVUhalc/YwJ4tvchoQ3pj17aqbat983zSPK8g7ckL++o/LkV+QuVJSYjdvpB7Sh0qFj/G2QLZNgpNwYh6NLjKrPUyFrRiTIYaqiJaFfvNsTQ1I4lWd688rLNrl7pWz3j4v+94Iag5EIDRHXP67a2CXdD+4vu3qXps9Qmi1sHCqnfyIIeB0pDBlg/DyefdEwNvdj3heQUZ3qqdvgzDggQkIAEJSEACEpCABCQgAQlMnYCy2tQZ6mE2EQhR5sRDFpYKFOILW/ujoaCdfe78e0olJcb2t5feR+GQP35+NdRwknlb5V18csmWXnstfu71dzxCfhmCUQ9lLeyb55NGwNWe+ttuvhYBn3flTyK/DM8r+3p6GUCUmwIQ9Zd94qWl5ZFfuI3wWi1LM8qhqVH4wJ++ICgh3iEakmWGIpbGjOXuZf9OwleTZNp0FUDEv0h2O+vypc98+v8cEBFN4ryCfqLFPra9Y81mbvrGKs6Lrv03nHBGao/wOAyUacUs4yQfDUoM6oj9N8vKLMyK6ctoLUhAAhKQgAQkIAEJSEACEpDAtBDwyIJpwaiTWUMAraTK6iJ0NBpyiE49fOtY+hcqVQ7pxLPujIynI05ZwtLR6l+YobmkfRRiA3vOK8D5XovnURnaXGWWlz02vG8G/PKt1qMhal00j+3GUILSWxae9YyJpfNQ7lgRma1aCyhHaI7cKvO80JjYb47kMoSwbBVnO8RpoVk5UAG5kCNTaXLelcvKhr8VEKdwXgETzWpTJhrJjEMqSudlOQ4DDbEs6mMVcExlaRnl0Z++ZszWSEACEpCABCQgAQlIQAISkMAUCSirTRGgzWcTAZKtCLd1B64YRlMJQlhhO60JB/mvD6zITSv/YgP7SE9DymEBKdocCl1pU5Z7bHjfDJg0qxCGQs6L7cZaE7i6jlMou+4z/4vkOIZAolyV5PXufTdF+GMntdC8CCk2IGPUZS+DltmvLVTOsmEMp3Vla2mW5eZ5BdwC1OIXrtAl45yHNC4LcRjow4//OioZGoIsk9g1qNGfvnJ0liUgAQlIQAISkIAEJCABCUhgWghMnMkyLd3oRAKjQCC2/2/N6orwUkbJaHM7rdalf5ihlLEKkrWQ5QJPpCU24SrPH2ABKZuFoTft8uL1y/Wn0VHTPup7BIwCSL+IWXiLdLMtnjcnw6aA1MVnjw3+w7j//K8lP3qcJi/abK1omJ8E8NbXzmeTtS/8w70ce8riSsbedRRAtuqnsHIITzg3IIbDnm79NMdm2cpVnOXUREOyCCkEt1ZXNGFED//3qQVs94ZZl6Y2K6avdZhWSkACEpCABCQgAQlIQAISkMBUCJitNhV6tp1lBGL7/9asLkZCYtqSHy2n8KLN5sbAkJx6bKcVNuGt0uOaG9ijPb18q3XRm2ItYbTNz6Z93OoRMPIcNiF1kW7WXCgaizqJP3L0sq+qMGj+V9U8LhGhWLPJ6I792x8SDHuZdSlQrc1bK9GqYlzl3RDCcoLKW80yE0p6HWtUm7dCaMN/81bWgDR2zWOtaAyqStNLy9k+fTkQCxKQgAQkIAEJSEACEpCABCQwEAFltYFwaTy7CbRmdcWQkGDYdx9hCDUqdbcLrl5xFEDXdlrRMFSbTGtKbxSq8wfId2NVI0oNW4+FWX7Se9Oemh4Bo9PRNbJRbGrWXCiKQaTLkT6GRJV9VYVB87/igNHKCZccqhD5cZRfvd3vNQ0GqgHIJ8+5iyZokWVD5C0Y5gSVt5rlOK+gebhqWOKHQg/NMZCC7pLr/42hHbrXxs0uomYWTV/XEKyXgAQkIAEJSEACEpCABCQggUkQUFabBDSbzFYCrecVoJuQjvTuk29l332EKlYvxvCo7L2dVphFBlOkNSWXrg3s//RVG2HDNvwhxExo3xpwtnrFyoMLrrxlxYZxrStbWXmKHoQUxfrTv/ybO2K9ZzRn1FyygrVK0EvnzUJ0wcpTWqVOF/T+z2dv4TwHRMkQ8shZw6YaY9MhktZrj7yGc0jRGSuHTAdhMx1l1lv/61Wjr1AAOYy12TU181ZmscUy21aD0OPILkS7RN3roeV1TfdITV/rGK2UgAQkIAEJSEACEpCABCQggakQcG+1qdCz7WwiEHlJSD8c5dka94L5c96z/2ahniAJkaOE2R47PKfVuKxE/UEDQhgiQSzqWzew5xZrD7914wPod2SQ/fkbN08nrfYRcDMNLVu9erv1z7p8KaIPNa2iD/Fwaid9Ed6VtzzEP/YLy+ZRQHdj/WZr88qSbDv0I6QilDX+VXcR1GDFAJEjiSpsXrXt+l170mVzlqnyLy+zgMNjDnpBGVisV4Ve1wwetvcmsboznLSeV5D+OfcAV7HMNivLwtpznsYl4yWvrfcoZsX0lUOzLAEJSEACEpCABCQgAQlIQALTQkBZbVow6mQWE0A02WTeGjsuXLdUZOLUSxaElpVdg1xnzlPRrR79+W8310eSQ7xDpGu1f9OuzyN3DIUr73bZRyLVwuevmZZVAckJ3QoBC2ksdlKrDLgkmY5/pIPdcvdjdy/7RWhw1CMFko31wk3mlulgzeZVzamHb41qdt0djyA2xa3wU9LjBE+O0WT9LDa9zxYgMDLgQM0OcShTQMNn63RUYXRd/v76T0hMY2UuZLpmMAS7alO80vOWG6/JiRDU9F4FPIumrxydZQlIQAISkIAEJCABCUhAAhKYOoEnL1u2rNXLvffeu8MOO7TeslICEpCABCQgAQlIQAISkIAEJCABCUhAAmNP4Oqrr54/f37XMN1brYuM9RKQgAQkIAEJSEACEpCABCQgAQlIQAIS6CSgrNaJxhsSkIAEJCABCUhAAhKQgAQkIAEJSEACEugioKzWRcZ6CUhAAhKQgAQkIAEJSEACEpCABCQgAQl0ElBW60TjDQlIQAISkIAEJCABCUhAAhKQgAQkIAEJdBFQVusiY70EJCABCUhAAhKQgAQkIAEJSEACEpCABDoJKKt1ovGGBCQgAQlIQAISkIAEJCABCUhAAhKQgAS6CCirdZGxXgISkIAEJCABCUhAAhKQgAQkIAEJSEACnQSU1TrReEMCEpCABCQgAQlIQAISkIAEJCABCUhAAl0ElNW6yFgvAQlIQAISkIAEJCABCUhAAhKQgAQkIIFOAspqnWi8IQEJSEACEpCABCQgAQlIQAISkIAEJCCBLgLKal1krJeABCQgAQlIQAISkIAEJCABCUhAAhKQQCcBZbVONN6QgAQkIAEJSEACEpCABCQgAQlIQAISkEAXAWW1LjLWS0ACEpCABCQgAQlIQAISkIAEJCABCUigk4CyWicab0hAAhKQgAQkIAEJSEACEpCABCQgAQlIoIuAsloXGeslIAEJSEACEpCABCQgAQlIQAISkIAEJNBJQFmtE403JCABCUhAAhKQgAQkIAEJSEACEpCABCTQRUBZrYuM9RKQgAQkIAEJSEACEpCABCQgAQlIQAIS6CSgrNaJxhsSkIAEJCABCUhAAhKQgAQkIAEJSEACEugioKzWRcZ6CUhAAhKQgAQkIAEJSEACEpCABCQgAQl0ElBW60TjDQlIQAISkIAEJCABCUhAAhKQgAQkIAEJdBFQVusiY70EhkTg5ptv3n///Z+88u81r3nNkHq1GwlIQALDInDqqafyC8cP3bA6nKl+vvnNb66zzjqMZdNNN/3Yxz42U93oVwISkIAEJCABCUhg9hB4yuwJ1UglMIYEHnroob333vvuu++OsV1yySVjOEiHJAEJrN4EHnvsMQA8+uijsx3DkiVLHnnkEUbBj/b73vc+Cu9973tn+6CMXwISkIAEJCABCUhgKgTMVpsKPdtKYKoELrvsstTU8LXJJpv09ph5bZHdFp/bbrvt29/+dtIoerflLplxH/jAB7DP5tH2O9/5Tu+299xzD6kZJNNFQ/I1iOSss87KVhEY3rKmtRAeiLbHXbrokQbCEDL4LJA5gs/WUaQ9Q2jtlEq6C1e9swVb4dOE5sijTeeR1VJSatpEFk8OpCpwt9mk/xoeCWIGTrhldpj9Hhz69zx+lq0TMUxiPMA8S72flpnGnl+W8jnk+eEpav1yTXs89AIEumv9Qk17d5NwOHfu3LLVF77whfLSsgQkIAEJSEACEpDA6khgWcffVVdd9Rv/JCCBGSbw0Y9+NH53ENQefPDBCXt79atf3eN36sUvfvH3v//9Vic4P+qoo3q03W+//boCOPPMM9dee+3WtsQTrT7/+c+HQVcARJUCIg6bQeZd/ECjaRA1V155ZWskUckYq4ZpT6G6lZelmkkYWV8VesCHfJNehMQUV37Ky3wAWgcF1dK4/zLBdEXLVLby79/5WFr2mIjhEIsHgFlbhXjzy9L6NE7lsQm8E44uZ6HHt3UV8smu8+cOUFlpQQISkIAEJCABCUhgXAmgj3UoZyuqzVZrfX2wUgJDInD55ZdHT6SErLvuun32Wr6dIqBceOGFhxxyCG1vuOGGnXbaiZSTph9yQI477jjqaYt9/N5FW2qoP/vssw888MBmQ9JnDjjgANY9oT3xXh3iEZ+UqWHV6umnn06rffbZJ9qec845TSdRQ2oeBUSKXXbZpWnzta99jcoYCNrWhMl35Ys3I0LYojljHDStBnu6o3l4iOE0w8sa3vzzfy1oGEIA5I855pi0mUQhfZaFgw8+eBKuyPRhumNBMTxT6KTAJVPJhE7C7SSaRPYTWXuTaDuVJlPZySv5x0PO4woxUslmOn8qtN1FixZNZeDT1TYhUMgvF4/NTKc6brTRRgwB5vPmzZuuscyEnwULFqTbQX9wsqEFCUhAAhKQgAQkIIHxIKCsNh7z6ChWXwKIcbvtttvnPvc53n5DAmCztkoCYJUiug+M0IAuvvhi7INXtKUmxCyEmGoNGrJISDBITtdeey2Ls0L745PyXXfdFQ3xRg35bhSQ58J58/O0006jMp1UBrGcCiEp/FxwwQWVQY9LRpT9nnTSST0sm7e++tWvUvmWlX8U0k/Tslmz8cYbs7NSQDjllFOaBquk5tBDD43pRvrkwdhqq60iDApcIq7xnAwnsOXLl9NR7EU1nB6jl2nZySsecojFEEL2nblR8G1Cwzr22GNnrovJeS6/XDMNgR8HIDz88MN8syYXra0kIAEJSEACEpCABCQwZALKakMGbnermAB6E9tLxW5TJNGQhNKa27WKo5xU97z9Hn/88TQlhap8+2XIJ5xwAvVkpXXtrv3hD384kmWOPvrosvNwiAqD2BSCWnmXMqJD+txzzz2poffW9A3yXELr2WOPPSonXEbKGDEg/YQfVKpKHGy2Kmt4D4+0u4G2RaeLUBJJoIscOuKfMFGu7Jfy/Pnzq5pVeMnzHMog62ERKZqRQBjZollvTSuBZBhSXavN2Fcqco39FDtACUhAAhKQgAQkIIFJE1BWmzQ7LIWyAABAAElEQVQ6G84+AigO22+/PesEkU6IniQatBtWTVYpWqtkYGuttdbU+yXVK9SxyAsLhyy9jHShww47rKuLzDWDTOqMCGEh0KAs9PNejVmkQUX+V9VXrAAlvMyVKw2iSeSppZ9oUpr1Lg8kw4WrgEMuHgPkbxKJcr1DGv7dPOXgzW9+c/+9I2siMefhBhS4bJVH2cw+FnXyeGATxzKEfck/lmEuXrw4Ysgt8FOlinqakErJyQBhEEp3c6UhkWAQbSlTCHsa0rwcZtyKIxrJvsx+E0tp3E+5HFTTnp8O1ttmL/TeCo2G+ElBH3taVept+KnixLJJu4tShBd8Yl5oDqIZ/X3DOaOunpz8DWkSK2toG+gSGoUccloyxVQGGZrk09JkmE0wTrPoIj9LwiWr3lTTswUJSEACEpCABCQgAQlUBJTVKiBejjMB1vmFoFYOMjZOar7JlzZDKG+zzTbT0ksIQ+SFpRxwxRVXhOdWPSs73XXXXaN8++23R+G6666LQmt+WTYsC7xgc9n6Gh9KX4RXNolyNNl3333jMvx86Utfalp21fAmH9lwO++8c5dNs/7888+nkgcjbkWiHMEkvWaTZk1skBe5cs27Q6659NJL6TGEwj67RrZA/0Jizm8HBS6pLDWI9MZXBkQopNiEYhv2yBwDcQuZGwmMiYNeAMQnnlsfIfIQEfKIKhfq0pDmVGZs017IxM8dd9yxdM5IGS9LpBHvoE3whE1ghNeMh5FuttlmKejjh1a77747Qlvpk3IzJw7CCHB0kbSpoUxNU73CYfBBJCIkbEBEkGhMA01NFVXKXhUEvqc4Z9TVk9O1w2PplimOBeasoX7Zy15W3oqHqqyhfN999zEKmsTXnJpg2HxUMHvb296GWcxL15JnqJasIBZUq35bL7fYYovWeislIAEJSEACEpCABFZHAl3HGXgSaLlns+UxIMDWYz2+4c0TJIcz5HzlKzfC79F1SA98dtmwnVYMM3f0n7BJuGKD9miYkcRm/FTGMQVdPZb1CZlCWc9+XuE8t88v70bMvANnZfrhdT0ro5CHFeYAc2t5ukDaqKJt2qfD1AKyCYWIk5DSLAtBMvlQj4fYWI15bA4tXJX26SoLCTlrpliITvt/nhM1imcOgUqmI1xVUxmVfDLkoAQ0uov66ujShN86qOiCz3KWk2dZmX7oBfuYegxiRqjMyKOjoNrja9KMpzkR+M9K4FRNYshAiGDibn77Smjwia85D2fWYxmV6bb5dHErqPKZtKnMtjjM5hRwHvblLEAmOurnkUjOldvwwNSU9ZSJGTLEk5NFDGFcEatmJEFVUbUGkLPA6HAbfWHJ8INMGVWc0UkM5SMRD1UVUjQvA8AnDUtvPcqBms+c0x7G3pKABCQgAQlIQAISmNUEep8E+iRltVk9uwbfP4Hy3SzfiLIw0Bt4/532sORlO172IoZ8L+3RhFvx7t0j2nwvpRCuJmySPUYkgIqaJJYG/RTiZbV6Aw8NglutHnjdpetSC8AsXs4zmGyYA8y5ywIjhWpaRiHtE0gaxBt49bIdwbQSDpLZXRYItfXVOgyaQ8gAKCTk9JaFCkjZqke5n07L5jFfzfFCMm4hY5X24b/SwjCghluVn4RfeohyCCuga05Z9FsOP/3wXJX2lFvHG1SrYJoxlDU9JqJUXqIJ39bot/lQNRWceMywL4Ue/HBZfiPi6aqelugFtuWoaZs+ywCCW+UB40Qdwff4TM7Rb/nZP8yMreyonJHU1CiUNpQzgLI+p6Z8JDBIGbGEEBirKcv5Kn9mY3Rl27LTCctBGyfMTjWzE7bVQAISkIAEJCABCUhgdhHoLau5CLR8cbAsgSERYPXWeuutx5qj6I/XSzb2GlLfM9xNyFKszCoXncWqvSOOOKLZee7gFicGpEHIE3E8aFb2KPBye8YZZ7Seq9DV6sQTT+RWLPxMm4MOOogy68v6XxfMmrXWBX3pc2QLPIehODT33YNkzBeL6cqpjLF86EMfqp7Y17/+9dxqWnaNPZbfsoqwOWXxCJ133nnNtpytUdpTDhmluXay2XZyNTyHzdM5c6PAavUiXcSK6VymSk0MhEHlkawRCZec/tlPVJ/61KfKUdNkn332iYb8D3wUcirzVnqObxZPaa7lzFv9F/hGsIFac9lp08OCBQualVmTaz/50Yu13nmrd4EvOHtHlja5qv3xxx8v6ynPnTu3qmlehi7GwcH9P7Slk3PPPTekf74gW2+9dXPlb2lsWQISkIAEJCABCUhgjAk8ZYzH5tAkUBJYuHBheVmVFy1aVNXM6OXy5cvTP7kYA71eZsPWwtKlS1vrJ6zsX0Xq7Yr90dhDind4pIcYV77wV8JZ+AmFgnfmSqYJP4g+aAFN8YK2pJlQzysxHnin5eWWva6uv/763uHl3a6oeFfnbZn42VQrDznNVhSYr7Ke8HgzR0Zh1NxtSjBl2x5l/nNNj7szdOuaa64Jz6lQlB2lPsJ2e9UUrLnmmqVllpmFLPcuhCU7wTFrlWUPsalSl7LhjTfemOUpFmIi+DrwALBxG9o3z0M1raEucaBqM/imRhN7FE7X5okxOjigCvHtSD0xt0ScFn2nfBpBwRBwS3dsmsbEVV9VNilbsmRJ7DBIeE0COSPMbISHWDnoj17X1OOc3vMB3muvvVAAOfsYvTV0TOLJbNky8s/8/+3dC7RlVXnge+yQmDThTdAGgiWg0VAogoDQlAlmoKAMWgWRohyEDGkQSXAAioBwGVx5CaS50CDiqBoo1xJEUELzEkaotkCeAhqK9sHTGsA1KA9FNFe7b99/8SWf07nW2mefc/bZ55y9/2cwTuaeaz5/c+1j1ldzrXXBBUTD+eZyEjIe/uBUcc8cdmuCwlC8853vjMD0oP5+tvZlpgIKKKCAAgoooMBcFjCsNpdXx7ENUoDrLmI3rZf9XDZP6rWJ0x/WZpttlo1w6c61cXXdnkcnm3jwwQejSsZB4h2jXGr2bor7waNA9VRyMrsCW60NcrUZzmxHiivnK6+8kpJc5ZbXtFk3toyxLryqLzPLBC8JzbmU+ZHmYpteiPJwhUwj7IXp83I9H8bPtsFms+SwUa4Mn7WWIZOx8cPT9BEmsnbMMcf0uP7vamTg+cQ4+hl8BmUGPoAJG4xgBL8j0SzferY0i81QDr0DiA9ryg9/H8rxRAyF2GvX1yrvEGR4FJuJQbJ3DLqMJ/JE/+ila0j8lVt33XWnMBImzs8WW2zBA/6Zy7Jly/KPFeHF/fbbr2sFm30xZv4cEcnie8rWs0mFsZqttebQLO8rYJzsIOMPEV9GYoJ8ZPrVK1D4XwRC86eddlp8c1ll/kYRNO9zVETr2IGYcx/Iq5xbZ2SmAgoooIACCiigwBwX8CbQOb5ADm+QAryMsrzcjaa53PrsZz/LdeMge5qoLbrjYUlxnyNluaKL/S8T1Zv4eNx9xvVkFs1tMr27uPHGG6NKvuQubq8jMw9lm70T8WJNRhL7VmJIhxxySLMWQ8rr0ubRyOEKvOtQ5nOFHKM96aSTMrN3YsJmGVhvsbL9vIkyNw2VR4eZjjsoiRT02DQ0zPF09cX3jkNEMbqeqsC3sqvu0PIJksY4zz333LLTiKFwynUNvseGu7Kd6aSji3zvbd722DUk9tb1GTBqHRWx4/irkoE8TjA2r/E1IZ/HnOXT34hVtbYQmRdddBHliXMRj5uJU5TX2tIR3wJWhzg7XwRe8clfWtJMoRoYOTfddBNTYDsbC03hft5hGo0QXqTNSDPlCf+eVF37UQEFFFBAAQUUUGBkBAyrjcxSOpGJBbiqvPvuu7mCiuAa11Fcbq1YsaLP/U0TdzCZEmyjIHCQYT6u6CZTu70sl3YRpTr22GOzREbHcn9WHsoE17fxoDcuR3OzFVwxPA5N6gI4b/bk9swMnGVmdkoiNrJxmd0aC+BB4JThCryfS9YIbDF9bkkru2hNU4ZmOZSxgGoAEUzpIdba7FzIzEfFcdk/4XhyZ2LrU7ceeuihaKEZj5iw5QkL7LzzzpS5//77Jyw5iwX4LkTsu/oKRKg67u6ccHjxBRzsTNkuF9/0jKblHbv9x4InHHnvAny740tE3Jy4dv7d6F2LYvzzBt8vxr9kyZLehadwlNs/qUXwjnhZfKmJP/b+hxP+kYP9dw8//DB/7phRn9/6fOwj/4MyE1+QKczdKgoooIACCiiggAKzImBYbVbY7XTWBLio4wqKCy2uuNi+weXWdHZwTH8a3BU1/UaiBS6n47lFRKnKQCETjAt7QgOt8SlCZjwiKq6QTzjhhHI83CHFRw6dfPLJZX6m2RtS9hX5XKbGninuuorAWRmty7okIpYXu9vK/EhnXC8eb98sUOZwYR9BQB6ZVOa3pi+77DLyu0bFoZhUK1ePBjmUe/1aiw0hk5GHA/GF1ggLmTvttFMcYrQRQOTxcNXYOCvi/txYyuroZD82nzzFM7BohIhM6yAn235r+YFsGcvbw8swZXyh+gzBxHMbmWmFwEcWonXkVebRRx9dxbV57luUyWg1kZ1YyjPPPLOqPpCPLFNszsrHUOZtp9VW34zGdvXL9/pLX/oSR/m3hPiT1VVyCvnxd6xcrD4b4X8a4q8x/7vQT5UIa1Jy77337qe8ZRRQQAEFFFBAAQVGVcCw2qiurPOaZwL5wO/JjpvrbbYacXXKs4S4pOTSms0gVSNED+OSe/HixZTMQAZ1iRztsssuccHMu/mqICMxmgzJEQJgk1dc3kdFrkJ5MBz3WFXd8TH2THHZHHeAxus1q2K5ZSxDA1UBPkZMpxmSaJYk57DDDuM3nVbxi6owg49R5cauqgAf432OeE4YWQMTpWiQfSt97tlp9jjAnHiGFIPnlCDumctNIs4Tljses8Vojz/+eLpm/MwiS7I0RFoJHHDacIfylMeWzxCMmyhZl9wWxwsr45zktjuQ47yiI8bAmDm1cjBT6H3LLbekFuOP5aOpsjXOZB7kx3z7aZmYUXwFcncStTJUzWO8GG2ebyTokfbLHU8ZmONkBjY6pRjh77yLsPdIKMaXNOoCReN876jCwMqQVutSUp6KTLaab/8ItMBoWSZ6ZMlyOrnVsZwsGpj0ng5HCYJz/y+Jrlj/hC10FYjFwocljh/+QHEyM/04GaIi5yHnGDm5dqRj+2HMtKv9yM9avYt5VAEFFFBAAQUUUGAsBHhOeevPHXfcUd0V5UcFFBi4QFwE8reGRD+NZ/nWP08cJZTQ2g43VMYmptaKXC0TU2utWD4DrlmXHlvvoyQzC9N4a8sRMuu6AzSqxH2gNPW5z30ucvLJTSSqZnP/CDfu5aFmeZqKsbWOPCtG0IdBZk5vfEpWDaZAM5HaEVxoFoicHo8ey1G1Jph1jL/ZcnOt4z7H1pI8M6tqP4o18XMiVfkKjY9ZgMXtGiS9cDRL5iJmTiai/bJZDrEQVculZM40GyHRNX4OsVhRJVctuuDUzaaqRJ6u0UW2UBUrT9SYSDlO6kb51gWi9+p8o3xryWikPJOzZQ7FCON3OlfjjI+QVudDjJmjDIZ0mCdL2XLwVssUfwGonmudA5iwbhSIgZVoEQuO/ObvBM+OqjKtquVgIl1WJ90sYI4CCiiggAIKKKDAKAkQH2uNm0Wmu9Wq/6fajwrMaYHW981xsco+Ka7ueJxQuXulnAn7a7gnjst7LmXLiAN1CQHwXKFqM0vWZUMTm91onCvSDMzRAu1wjU2PrfuzyGRI0UjXpf7NN99Mga47QKMuw46rdB6BFzn5NsPcCRX5/GbucaEeLXeVj6Yo2TrybC2GXTbVio8JTeHDbpeqwdI5m60S+WysKn+aH7klkDVlZVnfbApJAhBsfarWmvWtTgxKsnyUZFdRVi8TuQqZGRNpTnn58uVIRj5Wce9n1GJxGSRDiiWOzDiZibNwNBuPRLNx8mNRqqVhIVjlOBkoQ/u5tSo+8juPkuYnxp9neGTGb7ii65UrV2Y+Xdx77724VcJMlu8F76PMkiRogRmlAzlxziBfFiPdej4cdNBBVM8BM0jQWr968VWlZFrF+ck4edxY2VeYZ5txqLmskc8c6ZHFqs4HxhDLx6nCLlH64pSDhd5zANFCzKtapnh9AQVi812U5HdVN/KrupEZJUs09kWyTxPqMubI1zNmyua42LfIFyTWLvsCJAZffYtzVCYUUEABBRRQQAEFFGgVeAXRtdYDTzzxxK677tp6yEwFFBiUAHcncTlKa1y4co06qGZtRwEFRkCA2xiZBVEhH4rfz2pya+eiRYuIlBEBbEbHApM44HHHHddPaz3KREdRwNXpAeUhBRRQQAEFFFBgNATuvPPOBQsWdM3F3WpdMuYrMAyBfP43W8ny8VLD6Ng+FFBAgdESYHM+E+Ils82YWv51Xbhw4fQnXb6WYdbfUjL96diCAgoooIACCiigwHQEDKtNR8+6CkxXYLvttosmeCTQJpts0vr4/+n2YX0FFFBgDATiVRXs/y3fosC8ecPAkUceSYKNbLz8YToS3OvNrrd8LQP3vTZDeNNp37oKKKCAAgoooIAC805g7Xk3YgeswCgJ8BJMrvR4GFBMKhOjNEfnooACCgxBgD+nPCKNB70R9jrhhBPYtkan7FMjhwR/aXni3jSjYKtXry4nEm8fLnNMK6CAAgoooIACCoybgLvVxm3Fne/cEuAar3y2evn487k1UEejgAKzJND1JoFZGs7c7ZY/p+V7JNi2xg8xNf6uxotZmu/BmOxkuIeU8By14sUR039M22QHYHkFFFBAAQUUUECBuSbgKwvm2oo4HgUUUEABBRRQQAEFFFBAAQUUUECBOSHgKwvmxDI4CAUUUEABBRRQQAEFFFBAAQUUUECBURLwJtBRWk3nooACCiiggAIKKKCAAgoooIACCigwJAHDakOCthsFFFBAAQUUUEABBRRQQAEFFFBAgVESMKw2SqvpXBRQQAEFFFBAAQUUUEABBRRQQAEFhiRgWG1I0HajgAIKKKCAAgoooIACCiiggAIKKDBKAobVRmk1nYsCCiiggAIKKKCAAgoooIACCiigwJAEDKsNCdpuFFBAAQUUUEABBRRQQAEFFFBAAQVGScCw2iitpnNRQAEFFFBAAQUUUEABBRRQQAEFFBiSgGG1IUHbjQIKKKCAAgoooIACCiiggAIKKKDAKAkYVhul1XQuCiiggAIKKKCAAgoooIACCiiggAJDEjCsNiRou1FAAQUUUEABBRRQQAEFFFBAAQUUGCUBw2qjtJrORQEFFFBAAQUUUEABBRRQQAEFFFBgSAKG1YYEbTcKKKCAAgoooIACCiiggAIKKKCAAqMkYFhtlFbTuSiggAIKKKCAAgoooIACCiiggAIKDEnAsNqQoO1GAQUUUEABBRRQQAEFFFBAAQUUUGCUBAyrjdJqOhcFFFBAAQUUUEABBRRQQAEFFFBAgSEJGFYbErTdKKCAAgoooIACCiiggAIKKKCAAgqMkoBhtVFaTeeigAIKKKCAAgoooIACCiiggAIKKDAkAcNqQ4K2GwUUUEABBRRQQAEFFFBAAQUUUECBURIwrDZKq+lcFFBAAQUUUEABBRRQQAEFFFBAAQWGJGBYbUjQdqOAAgoooIACCiiggAIKKKCAAgooMEoChtVGaTWdiwIKKKCAAgoooIACCiiggAIKKKDAkAQMqw0J2m4UUEABBRRQQAEFFFBAAQUUUEABBUZJwLDaKK2mc1FAAQUUUEABBRRQQAEFFFBAAQUUGJKAYbUhQduNAgoooIACCiiggAIKKKCAAgoooMAoCRhWG6XVdC4KKKCAAgoooIACCiiggAIKKKCAAkMSMKw2JGi7UUABBRRQQAEFFFBAAQUUUEABBRQYJQHDaqO0ms5FAQUUUEABBRRQQAEFFFBAAQUUUGBIAobVhgRtNwoooIACCiiggAIKKKCAAgoooIACoyRgWG2UVtO5KKCAAgoooIACCiiggAIKKKCAAgoMScCw2pCg7UYBBRRQQAEFFFBAAQUUUEABBRRQYJQEDKuN0mo6FwUUUEABBRRQQAEFFFBAAQUUUECBIQkYVhsStN0ooIACCiiggAIKKKCAAgoooIACCoySgGG1UVpN56KAAgoooIACCiiggAIKKKCAAgooMCQBw2pDgrYbBRRQQAEFFFBAAQUUUEABBRRQQIFREjCsNkqr6VwUUEABBRRQQAEFFFBAAQUUUEABBYYkYFhtSNB2o4ACCiiggAIKKKCAAgoooIACCigwSgKG1UZpNZ2LAgoooIACCiiggAIKKKCAAgoooMCQBAyrDQl6bLs57NRrt//AxSvv+9HYCkxn4k898/M9D7sMwCtuWjWddqyrgAIKKKCAAgoooIACCiiggAIDFzCsNnBSG/wdgZf+5Td8/vlL/+/v5PqhP4EHvv/jnzz/EmUfe/L5/mpYSgEFFFBAAQUUUEABBRRQQAEFhiRgWG1I0HYzZIHzl9/FJq8zlt425H4n213vcb7lDa9e549+nza32mLDybZseQUUUEABBRRQQAEFFFBAAQUUmFGBtWe0dRtXYLYEXvrVml1yc/+n9zg333S9b1126NyfhSNUQAEFFFBAAQUUUEABBRRQYAwF3K02hovulBVQQAEFFFBAAQUUUEABBRRQQAEFpitgWG26gtZXQAEFFFBAAQUUUEABBRRQQAEFFBhDAW8CHcNFnxNTPvqcm1bc8/hpf/dX+7z99f/0w3++9B8euOfBJ+OOyJ0Xbr7vHm8gv3Wg16384bUrvv/Qo89E4QWbbbDzdlv89b5v5n5JyvPK0aPOuiErXvmNVfyXHy84/t1v3/E18ZE3bPI2gO989QjetvnFa797/cof0OCfbLjOB/daeOj7d4gy//HgpWRedvr73/T6V2UjmeCxaJde88AeO7/2vE/slZmZYJz/ePdjqx5+Jt45MM1xliPPLkgw36/f+r3shZxtt9l0j51eu/fu2wRIWRjngz/1NQosP3M/8pd+7f7rvvmDJ55+gTQTZyLJWNYiHUQsUBTmcW/bbr1pjzWqqvtRAQUUUEABBRRQQAEFFFBAgZEUMKw2kss6Dyb1zHNrXnDJD28VKCNf5Nyz6in++/FPf5HhrZcLrvlFJOjCy+/OjyQI9Kz576nnP3/KvmX+hOmIdhEwOvL06yNaRBUyV9z7ePYbkbvVP/5Za1gtjuZEyh5P+q//SFitzIlxErw74dC3d0UMy/KZjnG2vkq12Qu1HnrkGf77yk2rTj78LzKGGK0xkUgQjPsvl92RsyaTXlgFAmcXfeo9VTyuIqIwE481Wm+dV1ZdRPv+VkABBRRQQAEFFFBAAQUUUGAcBAyrjcMqz905Lr36PoI77H56z9v/LLZKEfG55KpvExgifMa2tTKexWariKkd8K6FRKbi0BU3rbr7wSdzhkR52IDGx4jWUfLEQxfl0Wbi1Iv/OwOgo79dvAsNEgv7xS9/3Sw2qZyMdlXj/G/f/AHzuvzGBxn8ZMfZHEBs9yOf1t652zYR3oKIgNel19xPmOyE82+58twDqhgZ5Z95ds0hQmNsW1u893ZUJ3B21S3/g7AaFOd+8Y5q8x055LPb7sC9tztwr4W0QC8EH6/75g83WPcPmwMzRwEFFFBAAQUUUEABBRRQQIExETCsNiYLPUenGfGaYw7eLTc9keC/uEOTQE8ZViOUwzS4V7GMlBHoiVjP1GZIEKq8i5MY09TayVqEnGKfWtzfmvkxTu4bJbKWmVNO0AW30FK9ujkULv7jDtBDTrqGyFozRkaV2P5WBhwJvX1sydvW+aM/IGpJs0TZymAcW9io9X8e+Y5ci+iFKlMevxUVUEABBRRQQAEFFFBAAQUUGAEBX1kwAos4j6fAI7246zBjajkTHnBG+vGXH/uVmXHTZX4cSIJNWNXmrGk2Gze0EqprjdARiprszaqt4+HpcuQTGmvSkb8mTPahNTGviJE1W/ib976lDE1GAW59ZTlIP/D9H5dVZoK9bN+0AgoooIACCiiggAIKKKCAAvNUwLDaPF24ERk24adyY1TO6tWb/DHpamNX7JZi8xQ3imbJaSYO3W/HabZQVV/18ma0Xbbbosof7Ec22dFga+QuOuJQa4wsjnZtNNt04zVhNTbcRbH4zb2iJHinRJlpWgEFFFBAAQUUUEABBRRQQAEFDKt5DswbAUJFhOHYPMWjwXh0WhX9mSPT4LZWRrJohy1nbjxxkylRs7wrs7Wv1hhZa8nemYfv/1YefsfGtyUnXM2T7HoX9qgCCiiggAIKKKCAAgoooIAC4yNgWG181noUZsoNm9z5SGSNey0P/tTXDjv12ogxzbW5tW7BG+wgI2rWo81tt16zy2z6P9xneubH9uRuWTYPnrXsNh57R0yT569Nv2VbUEABBRRQQAEFFFBAAQUUUGBeCxhWm9fLN46D56Fg11+0hKeDsV2LeyF57Sa7qIzyzOipQGTtmvMX8xIGdgvyxgNimgd8/MqlX7t/Rju1cQUUUEABBRRQQAEFFFBAAQXmuIBhtTm+QA6vRWDNI/mXvO2Wzx9MoCd2UR15+vUt5WYvawhhvmeefan3/J546nkKbLrRmselDeSHm3DZLUhMMzYM8tpQ7wkdCKyNKKCAAgoooIACCiiggAIKzFMBw2rzdOEc9hoBAj28SJRtazzRbCZCPDxTbLLQ8aKA2+5fPdmK/Zd/yxteTWF2jfUO3j3+1JqnvL3+NRv333I/JYlpsmGQ3YIUvuLGB/upYhkFFFBAAQUUUEABBRRQQAEFRlLAsNpILusYTYooTzxl7LEn12zOqn5++atfVzmT+rhg8w0p/+Of/qK1VmwHqw4tfN2aJ5rd/eCTVX7vj5MaJ1Nmjx4NfvHa73Y1yx2axN2I8XH/ZleZ6eRv/acbUT3ezzCddqyrgAIKKKCAAgoooIACCiigwPwVMKw2f9fOkf+rwEu/XBM722qLNSGw/ImNZqseeSZzppB47cvRq680Xn/JNjHelsCT3Zpt/tUuW5HJezNb36Vw/vK7qFjWmto49/mLP6OR61f+YOV9PypbizSZl16z5sFnH9xrYfPoQHJ+8bJ5RPcG0qCNKKCAAgoooIACCiiggAIKKDDvBAyrzbslG98B8w7Ko8+5iZs98+ZH4kdEqdgzRXBq0Q5bljRvecN/4COHiGSRoAobuP7ph/9clpkwzUPEKMO2L96KEAGsaOeQk64hptYaVOK+1J0Xbk4t3qXAGzOzR4ZNI5de88Azz/3OM9GmNs5D378DvfNG1BPOv4VeMrhGd3wkk0PbbrMpxSacY+8C6L33Y5fzO7sIgf/65TWqO2+3Re/qHlVAAQUUUEABBRRQQAEFFFBghAXWHuG5ObUREyC8xS4w/jtr2e/MjJjamR/bk1sjy1xufiSu9NAjzxDJ4r84xCsO3vT6V5XFeqcp/LeLd+HZ/LRz1Fk3lIV5uBg3QhI7KzMjfcoRf8krFIjo8cZM/isLMNQD996uzJnyOHmo3HHn3cLAmr3QPqE9hlF2NLU04TkmssZwrX81zHZ4KygPWcuPJhRQQAEFFFBAAQUUUEABBRQYNwHDauO24sOe7zp/uOap/+ut88qqY95Q+dBaa8UtkNUhPm756vX5XR0lKPaPdz/2+JPPE+iJKuzYYsPUX+/75iqmFkfPPnrPc794x6qHnyEeRw5hoHjYfxzluWPkNwcWR/M3G75evckfX7vi+3HLJ0Oix7/5T28h4ha3eTZftclgrjl/MZvjVtz7OGGvaIoYH6Gu/ff88+ZQpzZO2ll+5n70cs+DTz706DPEv+iISfFwN25EZdNcTiETrap5lERzUbBlysydB8lFF3zcdutN993jDa1dlK2ZVkABBRRQQAEFFFBAAQUUUGC0BV7x9NNPt87wiSee2HXXXVsPmamAAgoooIACCiiggAIKKKCAAgoooMDIC9x5550LFizomqbPVuuSMV8BBRRQQAEFFFBAAQUUUEABBRRQQIFOAcNqnTQeUEABBRRQQAEFFFBAAQUUUEABBRRQoEvAsFqXjPkKKKCAAgoooIACCiiggAIKKKCAAgp0ChhW66TxgAIKKKCAAgoooIACCiiggAIKKKCAAl0ChtW6ZMxXQAEFFFBAAQUUUEABBRRQQAEFFFCgU8CwWieNBxRQQAEFFFBAAQUUUEABBRRQQAEFFOgSMKzWJWO+AgoooIACCiiggAIKKKCAAgoooIACnQKG1TppPKCAAgoooIACCiiggAIKKKCAAgoooECXgGG1LhnzFVBAAQUUUEABBRRQQAEFFFBAAQUU6BQwrNZJ4wEFFFBAAQUUUEABBRRQQAEFFFBAAQW6BAyrdcmYr4ACCiiggAIKKKCAAgoooIACCiigQKeAYbVOGg8ooIACCiiggAIKKKCAAgoooIACCijQJWBYrUvGfAUUUEABBRRQQAEFFFBAAQUUUEABBToFDKt10nhAAQUUUEABBRRQQAEFFFBAAQUUUECBLgHDal0y5iuggAIKKKCAAgoooIACCiiggAIKKNApYFitk8YDCiiggAIKKKCAAgoooIACCiiggAIKdAkYVuuSMV8BBRRQQAEFFFBAAQUUUEABBRRQQIFOAcNqnTQeUEABBRRQQAEFFFBAAQUUUEABBRRQoEvAsFqXjPkKKKCAAgoooIACCiiggAIKKKCAAgp0ChhW66TxgALDEfjud7974IEHvuLln7322ms4ndqLAgoooMDICNxwww0bbbQR/zOyzTbbnH322SMzLyeigAIKKKCAAgrMfYG15/4QHaECIyzw7LPP7rfffo8++mjM8Rvf+MYIT9apKaCAAgrMhMCqVauef/55WuZ/TT75yU+SOO6442aiI9tUQAEFFFBAAQUUqATcrVaB+HFcBC655JL4t/3bb799Fud8yy23ZEyNYWy99da9B5P72mJ3W/zeaaedPvrRj7JboXddjrIz7lOf+hTls3rUnRDhscceYwcEm+miInSM5IorrsgeY2C0ljmtiWiB0fY4Shc9dlswhRx8JtigQZuts8jyTKG1UzLpLprqvVuwFZ8qVCc82mw8TrBSqVmG8zBn0UxwtFml/xxOCcYMTrTM6rD6PRz6b3n0SrYuxDDFOIE5l3qfLTPN3s+XZabHMNfa58RgXfjizLWBVeNZf/31y5zPf/7z5UfTCiiggAIKKKCAAjMo8HTHzx133PG//VFgFAW+853vvOtd78ov1W233TaLs/zMZz4TIyGg9tOf/nTCkZQjzylk4q1vfSuza22Exk888cQs2Ux88IMf7BrA5ZdfvuGGGzarkMN4otbnPve5KNA1AEaVAUQabA4yj9IOGs0CkcN6tY4kMpljVTHL91joMprJMKoW8mMPfOSbejEkljhbaCbyBGidFKrNKv3kMJiu0bKUrf79NDvCZXosxHDE4gRg1WYRuZ8vyywOb1a6zu/RrPQ+2U7z7zCn02TrWl4BBRRQQAEFFFCgS4D4WEfkbE22u9VaL2bNHFkBNhZtv/32c+dey1tvvTWs2VK08cYb9+leXnsTQLn++uuPOOII6n7729/eY4892HLSbIcNF2eccQb51KV8/L2IunHd+JWvfGXJkiXNimyfWbx4MbcXEXsiHBPBI36TJgfJZcuWUWv//fePuldeeWWzkchhax4JghR77rlns8xVV11FZkyE2NaEm+/KMBkzIrBFdebYumet2V3mUJ7uqB4txHTyaDNRhsmoGOEY5E8++eRm4f5zWv+CH3744f23kCXZOsdyx0mOZwY6SfCRpWRBs/CMJmL3E7v2ZrSXZuOx9Yydes1DE+bkQsRJzumKGFvJWjckTtha/wUitrvjjjv2X2X+loyNn9PcjDnA6cfG0ta/nFtttRUdxR+HAfY4Q01tu+222fJk/xJmRRMKKKCAAgoooIACkxIwrDYpLgvPbwGu4uKhM4RCCMTM78n82+gJxr373e/+7Gc/y4wiBMDD2qoQAMFE4j7UYOI33XQT5aN21CUnglkEYqp70LjOjBAMV5V33303F8MR++M36UceeSQq0ho57HcjQXguGm/+Xrp0KZnZSFUg7loikBTtXHfddVWBHh+ZUfZ74YUX9ijZPPTlL3+ZzENf/iGR7TRLNnO45OYBRoFw8cUXNwvMSs6RRx4Zy03okxPjzW9+cwyDBB8JrnGeDGdgL774Ih3FI5+G02P08rOf/YzECy+8MJ1O4yRHjEaYQoR9p9Ng77p8m4jonX766b2LjcbRWJpYprkwozhF43StxsMJwLrce++9Vb4fFVBAAQUUUEABBRQIAcNqngnjJUAEhB1GhELWW2+9EZs5oaUzzzyTSTHBMgRAiO2ss84in11pXQ+x/vSnPx2bZU466aSSJRokCkOwKQJq5VHSXHNmm+9973vJoffWXRI80itiPfvss0/VCB9jyxhjIPQT7RClqoKDzVplDhGu2HY3qWAKXUQkkQ10sYeO8U+4Ua7sl/SCBQuqnFn8SCQ0IoPcD0sEszkShJ977rlmvjmtAmk4d2JAreM0UwEFFFBAAQUUUEABBWZFwLDarLDb6ewIsBOKMFDc1DM7I+judYMNNug+2O8RJhjRsdgXFtW49TL2Yhx11FFdDeVeM4JKeScUgbAI0BBZ6AeNYrENKvZ/VX3FHaAML/fKlQWiSuxTy3aiSlmsd3pSYbhoKnDYi8cE+ZnCRrneQxr+0byx7sMf/nD/vRPW5D7HfLlBj1dA8PaDuKmT04MqcfdclC/94zbMRYsWxRjybQwZpYp8qrCVkjcDRAFao83mSxUYHgWiLmkSUZ6KVC+nGYdiUyq7L7PfZCkL95MuJ9UsT0yW+22zF3pneM1i5NAOj71PYWpV0dtopxonLTe1u5Si3/CJdaE6RNUW1Nbh9cjsHz8aqda0GkAMLO5QZpmSLv/ssKBk4kA7nAxRIN8YEOdVmFRjjqWvzocoQ608x8pzhk6j/SjG6Rofy/ZjPDRedcfwaLZcfdIx7Kpkzoh81iJH0jwHomJ8s/JUoWt+us6rqi8/KqCAAgoooIACCgxfwLDa8M3tUYEWgR122KEld/JZERhiXxhXfVF75cqVkWiNZ2UPe++9d6S/973vReKee+6JROv+sqxYJrj842PrZXxE+mJ4ZZVIR5UDDjggPkY7X/jCF5olu3K4Qo7dcO94xzu6yjTzr7nmGjK5ATQOxUY5BpN6zSrNnHhAXuyVax4dcs7NN99MjxEo7LNrLvsJKLA9kKBqVCHBRzIJEzQbIUoLERFSykTENsoTJpiUG0u2yy67EFth4dALQNqk5dZTiH2IxFkYVd6oS0Wqk9kc5KBycuPnbrvtVrbJTJkvt0gTIUKbwTNsBsbwmuNhpq973et48F8KU+s973lPRouy5eaeOIQJwNFFapNDmhyazYqRoMHwITDEkCgDEYMklDOppama5WP/+LCUaxoDaD2Rmr1kzurVq2mHaUbOfffdF4nwibMuC0eidZsqs2buH/nIRxhGFItzhsyqeu+PVePIMzyajfhg1CVNDvnNuDAFmBGdshY5kjgHqlOdurHWbCmNFeSkivOqudzNMb/xjW9sZpqjgAIKKKCAAgooMLMCXa8z8E2g+eBqEyMpMEfeeZdPuSofhN8DPEIP/O4qw+O04k9GPtF/wirRFA9oj4o5EhKRE68p6OqxzM8n1pEo83meVzSVj88vj8aYuZjMzGyHMERmRqK5cPloebogtFGNtlk+G8wYR1YhEeNkSFksEyGZPuTTQjxYjXVsTi2aKstnU5lI5MyZZiI6bb4RtavZpCbimVMgk+WIpqqljEx+M+VQAi1fMlu9ujTxW3uPLvhdrnJ6lpnZDv1Sno80SIFYETJz5NFRqPb4mjTH01wI2s9McKoqMWUQYjBxNL99JRo+8TXn5Mx8SkZmNts8uzjU1CYz69JgVidB41G+XAVkoqN+Tol0LieVmf3ghwA95vIxfdYUyXKorZONAmlOd6Spzk+ubx4tW4t0a5uRyXgwoR1KMp048co5hluZk+1Hj7STOSSiBZplvtFsebZwtCycY6YXTqSQoS+WjxwaKQvH+U930SyHKM9PnvZl4dZ0zIXfebK1FjNTAQUUUEABBRRQoH8B3wSa/0+mCQXmkADbKNjVktsu8k2a0xziFltsMbUWWh+dFk31OFT1xYa4uFasXjgQrwflUD4+v6xYbRnjEO1wtUki9wqV5SPNrpy4Y2uTTTZhDwiSXIvyXoX+Rxs3mXKhm1VI8JH2e2yUYydO9MtvZsSGGob6pS99qXVqzWF35WSbmZjsBp+y5fXXX7/82CMdtwZDx66ZnAL+vMgilvKUU05pVucin003sakQNB60H4GGr3/9683CrTl0RwvQ0RG332YZbtOmX1az9RZggg6U33333SlPreXLl0fFctNQNjW1RPozDNaaRghINbcUxXt1r7322hhM9AVIhEUuu+yy7J1zOL7mV199de4YpeSKFStCOEt2JbB9+OGHQ5syJPIpiuW9gbGUBHHKF8iyppBSK3d+dfUyYX4/+OzJop2dd94515TTo3wC44S9ZAHYeW4j1fnJMzOP9pNge1ecGHBhQjvUYr04hSBdd911+2mkWSZOXfJZfdYimmW+jJbgHfmc2NUdvtEIR6kbMgzjggsuIJ9zo1zE2OnGlttolgKU54d3JpRnWjTY+jtPKr65/Wxwa23ETAUUUEABBRRQQIH+Bf5d/0UtqYACgxLgaodgUF7osuWBC6dBNT677URYiqvH8qYzbmJiVJ/4xCeaY+MyMo7GGwOyQIQn4vWgmdkjwXUyQZa8Fu1RMg+dc845pOPGz8w8+OCDSXM13nonVxYrE1wYt97QV5aZm2nOQzbCMLbmc/eQjPUiRlAuZUzk1FNPrc7YD3zgAxxqluyaeMRSMypRFotTqDVCx7s1yiUmTUCQus17J8sGp5PmPGy+nTNCfsQvmpGOuGM6TunoNybCpKrYEB95+2c/YzvvvPPKWVMlo/D8u1m0kEuZh7Ll+GZV4Zs82n+iH/wtt9ySBvn6lKGi/rvIktg22fNon4mIqRG6LeOM1AWTKFW1HH22SbE4dfmD01x9Oop/D/jWt75VNUj5ahgZY/35z3+eheNrxd+9/v/+ZN1IEL2NMfDN3X777Zu3JFfl/aiAAgoooIACCigwTQHDatMEtLoCUxF48cUXsxq7S3IfSmZOOfHkk09Ore6Ur+Kq7uL5aFzD526jvOCvAmdRMYpxzVmFaaIdgj5d1+dxxxa3SsU9cVxD8lSjajA9PnaNasKNcqxXuVuYYUQYiO1LzUdl9RhAdahsM9LVRXhVfiAf77rrrmgnr/DLZrfddtv4mI/by6NdL9JlFbJM70SU5ElwrFr1U8akqkaq6FIezWdvZc6UE4HPiRf37hH7bi4rJw/t8/SrauR8bG7ui2cUDurhiTEvHGJTUsYTc40Io1SjWrJkyZQ1yor94POnjO8ytdhMyjCq8HrZWu80D+zvXaCfo/fffz/F2DrXT+H+y8TjCyOO3KwV3TVPyC49Wli1alW28/GPf5ygGKcf68tStu56y8KtCcKFfLni9KDAoP6wt/ZlpgIKKKCAAgoooAACa6uggALDF9hss82yU24049p4+lszosEHH3wwErmTIt4xGhs3stNmgscsRmb1aHYyCWxla82KVQ4XdVxXc13Hno4IF8YdoOwqqgJnUTG2jFGem++qpuIjLwnt0TsXq/RClIf9YjTCZXyfMcq8xZJtg639smGEu7paD5WZjI0fnmiOMJG1Y445psf1c1lxRtO8RaGfwWdQZkYH09p47JLjdySaZVrPlmaxGcqhdwDxYU354bWq5XgiVEHsuOtrlUENhkexmRgkgSfoMnwTd1/SUdeQCNZM+bbHSY2fWyyXLVt21llnMRJ+6Pf444/v52ycVC/9FK7eM9BPlX7KzNCCRtecZvwdO/fcc4nnxk+cS9wx2hr7bg6YHaME+vNrNZB3TDd7MUcBBRRQQAEFFFAgBdytlhQmFBieANdObLOK+xzplev22P8y/RHETp/YMBKt5TaZ3l3ceOONUT7fJRe315GZh/ocXrxYk5HELYExpEMOOaRZPbeMNQ9lDpGyTHcluOCM0Z500kldZar8CZvlurS3WNlg3kSZm4bKo8NMx9Y5whn93485zOFlX3GfWrX1r9yyF08Ey/KzkiBIGuMkzFEOIEIVnHLlgMt0n3d3lm1ONh1d5Htv82l65TDKNHvrpnzb46TGRliZIBrdsY0UIoJQ/MuBtyL2b8j/OnDy8z8QPIuNmBp/iPjhnw0m/JMVXRDTJDAXafbS9lmr/+FZUgEFFFBAAQUUUKASMKxWgfhRgSEJcPHJtVPuaiEOMv2OuYLiAox2jj322Gwt4k18zP1ZeSgThGDYGcFHgjK52YqL8BgehyYVo8mbPbnBMwNnmZmdkoiNbAQBy+v/TPP6P8pwWd7PlWEEtph+P7dNUSa2nOTr9rLTSEQwpYdYOYs5lc5HxXF1PeHAcmdi6522Dz30ULTAdrwJm5psgbhXLm7Tm2zdoZXnuxCx7+orEKHquLtzwsHEF3CwM2W7XHzTM5qWd+z2HwuecOTTLMC+UXauxVP8ARzI3Yjx7LY+BxYxxz6Xqc82KRYLyobQ1irRXYY7W8v0k8m5x23gBE/5m8wPVfr8N4N8HiXvfJiJb24/g7eMAgoooIACCigwVgKG1cZquZ3snBMYyCOEYlZcTseWEKJU5Y2QRMfiOpAr29b4FCEznoIUYaYTTjihNDrttNP4yKGTTz65zM/02WefXfYV+ey2iOtA3qcZgTM+ZrQu65JgSPyO3W1lfqQzrhfPCG8WKHPYsJZ3S5X5rel4UWPXqKgSk2rl6tEgh3KvX2uxIWQy8nDgLrzWCAuZO+20UxxitBFAvPDCC6uxcVbE/bmxlNXRyX5shlTe97730Qg7GVsHOdn2W8sPZMsYt39G42WYMr5QfC/6CbzuuOOOMdMKgY8sROvIq8yjjz66imvnG3IzWk0AJZYyXhJatTCLHzPeVz5QMsbzxBNPTHZg+abjKnrOV7X5LxMLFy6kfZap+iKDyZ/KZii5zwdTRsiM7pqnLudD/CGNM2Sys2stTww3wrhsAGwtUGVGvJXMvffeuzrkRwUUUEABBRRQQIGZEDCsNhOqtjkKAlzx8rSvZsxohubWtfdhwu64ROT6kKtEXvrGFR2X1kuXLq1qsS0uLrkXL15MybwapC4XnLvsskvcNMRNW9VtYkw/Q3KAcCkbl/dRkZggt3dttNFGVXd8jD1TXHnGHaDxes2qWG4Zy9BAVYCPEdOhkSok0SxJzmGHHcZvOu1dmMHHqHJjV7O1eJ9j84K8WRJMlKJBtoe0Rg+btWY0h2gm7TN4TgninrncJOI8YbnjMVuMludeUZjxM4ssydIQaeX6nNOGO5SnPNp8hmDcRMm6ZCyDF1bGObnHHntwEsZ5RUeMgTFzauVgptB77Gli/BFPoamytUl9tYkRx1cgNwExngxVf+QjH2G0eb6RoEfaL8NtGZjjZM5gEMXiEYT9zI714ksadYGicb53VGRgDC9baF1KylORxeUnS5KYFEJZsXea06aMWAESEVvWuvzbEsMGIdaFEeYJ0Lv9jB5+6EMfinOJLuiRv2zNihlqpwB9RRfUYpAR0M8qEYn++7//e8rwk8uUBcoEC9o8dRkGZwLnAyX5O1BOtqw7YZo/p+V3ltF+9eUfKr7zne+csDrDmLCMBRRQQAEFFFBAAQUGLMBzylt/7rjjjuquKD8qMN8FCBv1/v6UE8ySZebA07mpgUQ/jWf5HF6Z4CihhNZ2uKEyLh3L8pnmKhGc1orlM+CyfCbosfU+SjKzDI23thwhs647QKNK3AdKU9xKFjk8LShajjeBli3nNg1u3Mv8Zvm4K41GWkeeFePKmUFmTm98SlYNpkAzkdrxuslmgcjp8eixHFVrglnH+JstN9c6n/FXFabk9ddfX7UfZZr4OZGqfIXGxyzA4nYNkl44miVzETMnE9F+2SyHWIiq5VIyp5mNkOgaP4fy70auWnTBqZtNVYk8XaOLbKEqVp6oMZFynNSN8q0LRO/V+Ub51pLRSHkmZ8scihHG73Qu1zczy5KRbuJHTjVNPpZ01M02s2T2GAtRLWjZdSsmGgSzaK0C7DrHKr1c/RxP9tg6nq5mqd78O9DaQrQf3ZVjzgFUCc7n8huRw6sSJWySVmX8qIACCiiggAIKKDBZAeJjrXGzyHS3WvX/u/pxlAUm9d7DuGbmGmlOibS+1o1LUC4puYjiSUbl7pVy5Oye4J44rkiZURlxoC4hgIcffrjazJJ12dDEZjca54o9A3O0QDvEXOixdX8WmXGVSztdl/o333wzR7vuAI0BMOxYiBUrVkROvs0wd0JFPr+Ze6xXtNxVPpqiZOvIs7UYdtlUKz4mNIUP22GqBkvnbLZK5LOxqvxpfmRTD2vKypZhDiS5gGfrU7XWrG91YlCS5aNk18sHcxVynDGR5pSXL1+OZORjFfd+Ri0Wl0EypFjiyIyTmQhCc79Ps3GqxKJUS8NCsMpxMlCG9vMpcvGR33mUND8x/jzDIzN+wxVdr1y5MvPp4t5778WtEmayfC94KlaWJEELzCgdyIlzBvmyGOnW8+Gggw6ieg6YQYLW+tWLryol0yrOT8Z50UUXlX2FebYZh3JZm1+ubLBspInPAJhmLii1+Mjgq1OO8xOlLMYwqh6rBS07pamyLo0wO9ailS7OMU7mXNksX35beccCpFEmxlz2SLoaD83y7aDZnAK1mAUjaf4diKaqFiIzVMuR85eEdnK0JOiFH74pzW9ENUg/KqCAAgoooIACCsyKwCuIrrV2zENPdt1119ZDZiqgwKAEuB0pHgnExTnXyYNq1nYUUGAEBLgPnVkQaiEONQLTcQozLcBNo4sWLYpePG1mWtv2FVBAAQUUUGB8BO68884FCxZ0zdfdal0y5iswDIF4nDk9sZWMZ/oMo0v7UEABBRQYRYF8ey+Tm/XXp4wisHNSQAEFFFBAAQVaBAyrtaCYpcDQBLbbbrvoi+eCbbLJJq2P/x/aYOxIAQUUUGA+CnDzKXsb450JjJ+7R8u7XOfjjByzAgoooIACCigwXwQMq82XlXKcoynASzDj8ToxPd7eOJrzdFYKKKCAAjMmsHr16rLteC1ymWNaAQUUUEABBRRQYIYEDKvNEKzNKtCXQPVs9fLx533Vt5ACCoy6QL5JYNQn6vymLrBw4cL4Fxr2qfH6BV7CMPW2rKmAAgoooIACCigwGQFfWTAZLcsqoIACCiiggAIKKKCAAgoooIACCoyNgK8sGJuldqIKKKCAAgoooIACCiiggAIKKKCAAsMS8CbQYUnbjwIKKKCAAgoooIACCiiggAIKKKDACAkYVhuhxXQqCiiggAIKKKCAAgoooIACCiiggALDEjCsNixp+1FAAQUUUEABBRRQQAEFFFBAAQUUGCEBw2ojtJhORQEFFFBAAQUUUEABBRRQQAEFFFBgWAKG1YYlbT8KKKCAAgoooIACCiiggAIKKKCAAiMkYFhthBbTqSiggAIKKKCAAgoooIACCiiggAIKDEvAsNqwpO1HAQUUUEABBRRQQAEFFFBAAQUUUGCEBAyrjdBiOhUFFFBAAQUUUEABBRRQQAEFFFBAgWEJGFYblrT9KKCAAgoooIACCiiggAIKKKCAAgqMkIBhtRFaTKeigAIKKKCAAgoooIACCiiggAIKKDAsAcNqw5K2HwUUUEABBRRQQAEFFFBAAQUUUECBERIwrDZCi+lUFFBAAQUUUEABBRRQQAEFFFBAAQWGJWBYbVjS9qOAAgoooIACCiiggAIKKKCAAgooMEIChtVGaDGdigIKKKCAAgoooIACCiiggAIKKKDAsAQMqw1L2n4UDACjOgAAK6BJREFUUEABBRRQQAEFFFBAAQUUUEABBUZIwLDaCC2mU1FAAQUUUEABBRRQQAEFFFBAAQUUGJaAYbVhSduPAgoooIACCiiggAIKKKCAAgoooMAICRhWG6HFdCoKKKCAAgoooIACCiiggAIKKKCAAsMSMKw2LGn7UUABBRRQQAEFFFBAAQUUUEABBRQYIQHDaiO0mE5FAQUUUEABBRRQQAEFFFBAAQUUUGBYAobVhiVtPwoooIACCiiggAIKKKCAAgoooIACIyRgWG2EFtOpKKCAAgoooIACCiiggAIKKKCAAgoMS8Cw2rCk7UcBBRRQQAEFFFBAAQUUUEABBRRQYIQEDKuN0GI6FQUUUEABBRRQQAEFFFBAAQUUUECBYQkYVhuWtP0ooIACCiiggAIKKKCAAgoooIACCoyQgGG1EVpMp6KAAgoooIACCiiggAIKKKCAAgooMCwBw2rDkrYfBRRQQAEFFFBAAQUUUEABBRRQQIEREjCsNkKL6VQUUEABBRRQQAEFFFBAAQUUUEABBYYlYFhtWNL2o4ACCiiggAIKKKCAAgoooIACCigwQgKG1UZoMZ2KAgoooIACCiiggAIKKKCAAgoooMCwBAyrDUvafhRQQAEFFFBAAQUUUEABBRRQQAEFRkjAsNoILaZTUUABBRRQQAEFFFBAAQUUUEABBRQYloBhtWFJ248CCiiggAIKKKCAAgoooIACCiigwAgJGFYbocV0KgoooIACCiiggAIKKKCAAgoooIACwxIwrDYsaftRoBA4+pybtv/Axecvv6vIM6mAAgoooIACCiiggAIKKKCAAvNJwLDafFotxzoyAs889xJzeelXvxmZGTkRBRRQQAEFFFBAAQUUUEABBcZNYO1xm7DzHY4Au7FW3PN4/30d8K6FJx66qP/yllRAAQUUUEABBRRQQAEFFFBAAQVmV8DdarPrb+8KKKCAAgoooIACCiiggAIKKKCAAvNSwN1q83LZ5v6gz/vEXs1BnrH0tiu/scqNaU0ZcxRQQAEFFFBAAQUUUEABBRRQYN4JuFtt3i2ZA1ZAAQUUUEABBRRQQAEFFFBAAQUUmH0Bw2qzvwaOQAEFFFBAAQUUUEABBRRQQAEFFFBg3gkYVpt3S+aAFVBAAQUUUEABBRRQQAEFFFBAAQVmX8Bnq83+GjiCVoErblp1692PPfToMy/96jcUWOePfn/brTd9xy5bHbjXwtbyPTKfeubnV93yP+5Z9dRDjzyTTe27xxv2efvrm7UofOPtj6y49/EoTIE/2XCdha/b9H3veOPbd3xNs3zkTK1Ws7WV9/3o05d88yfPv/S3i3c59P07NAuYo4ACCiiggAIKKKCAAgoooIACc0TAsNocWQiH8VsBQlTHnXdLRrXiAME14mL899+++YOzj95z803X+22FnqkMVGWpbOraFd///Cn7Zj6JZmEyCXKtuOdx/iMMd9rf/VVZPtJTq9Xazgnn38Lw9tj5tcbUmj7mKKCAAgoooIACCiiggAIKKDCnBAyrzanlcDBrEVM78vTrn3j6Bban8c7QPXZ67Zte/ypcCF3d/sBqXiRKuI2g2/Iz9+sH659++M8RqFqw2QYH7r1d7HQj87qVP7x+5Q8I0pHIPWt0kYX3+Ys/23v3bSJ4RxkCcFH43//RH5x46KKy66nVKluIdLZDTK31ParNKuYooIACCiiggAIKKKCAAgoooMAsChhWm0V8u24R+OK13yWmxn2XXzjtveWWNG7A5L/d37LlUWfdQGRt6dfu72c/16X/8ACbv7bdZtMyDEecjv+Ipv0fF9263jqvzEFcctW3Kbzzws2rLWyU5L/zl9916TUPENcjHZG+qDi1WtlpJDKmRiSxCttVJf2ogAIKKKCAAgoooIACCiiggAJzRMBXFsyRhXAY/yrAJjJSH/vQ28qYWuoQWSPwxMfrvrmmWO8fNr5x5yZlPvk3uzdLEhq75vzF+bg0AltE69gid8oRf9ksTM7HlryN8BwJImtZYGq1snokMqbG89SMqVU4flRAAQUUUEABBRRQQAEFFFBgzgoYVpuzSzOOA+N2S/aLsVWNHWFd849D7GjrKpD5t92/mjS3f5aby/JoleAOU3J23m6L1nBeFOaOVBKPF11PrVbZdRlT62f/XVnXtAIKKKCAAgoooIACCiiggAIKzKKAN4HOIr5d1wI89YwsXrtZHyg+Z4ysfCxacfy3yceefJ4PC1/eYvbb3I4UrxzlCC8b7Ti+JvvVm/wxv8t3KUytVnbxxFPPx+68C45/d+6by6MmFFBAAQUUUEABBRRQQAEFFFBgLgu4W20ur86Yjo3dar1nHjdj9i6TR3nJQKYnTETgrKtY1x66qdXKXtig98MfPZsfTSiggAIKKKCAAgoooIACCiigwLwQMKw2L5bJQY6mwILNN/y7g97G3C68/G42343mJJ2VAgoooIACCiiggAIKKKCAAiMqYFhtRBd2Pk/rJ8+/1Hv43DtJgS1fvX7vYnH0l7/6dT/FosyPf/qLHoV5DhpHm5vpplYrOjpwr4W8qYD0mUtXRvs9BuAhBRRQQAEFFFBAAQUUUEABBRSYOwKG1ebOWjiStbbaYkMUHn/5mWhdHDx/jbsmeWVnPmStq+SmG625mXTVI2semjbhz2s324AyEbDrKhy3ar528zUl42dqtf6t9r/+X95UsMfOr2VSn77km7y9tDrqRwUUUEABBRRQQAEFFFBAAQUUmJsChtXm5rqM6agW7bAlM+ctnz3uiLz0Hx6gDK/snNBo54WbR2vxJoTe5Re+7lUUWHHv4z0CW1+5aRVlyq6nVqs5kvM+sRcPjGOb3pGnX99jAM2K5iiggAIKKKCAAgoooIACCiigwGwJGFabLXn7bRHYfNP12LfFgaVX39caXVr6tftX3PM4Bf7mP72lpf7vZrGdLV5u8JlLb//dI2s+EWtbcsLVGb/jZkzu7mTL2LlfvKNZmJyjz7mJsBdl2FyWBaZWK6uXibOP3nPBZhsQUjz14v9e5ptWQAEFFFBAAQUUUEABBRRQQIG5KfB7xx57bOvIXnjhhT/90z9tPWSmAlMTuO3+1Q89+gyhrkU7vKarhc3+ZN2b73zkJ8//8pY7H/v1b/7X2r/371618R9TmOeO/V/L77ryG2v2ix3wroX77/nnXS2U+UTBbrz94Z8899JN33pkrVe8YuE2m3KUgNqyrz9w3v99x1PPvMjWs8gk/w9+//duf2D1E0+9cNsDq3/zP/+/Ddf7w/XWeSX5V9y06sxlt93z4FOkT/zPb3/9azYmkT9Tq/W1f/weoyop6OvPt96UuRNZ+8GPnt3rP26TXZhQQAEFFFBAAQUUUEABBRRQQIFZEXjyySc32OC3D4OqxrB29dmPCsyuAFvMzvzYnjxljK1hvB+zORhiaiceuqiZ35rz9h1fwwsBaIdY1VnLbuO/shh3icZtp5HJ1rNf/PLXl15z/0OPPMN/Zy0ry67F09x4a+c+b3/97+SutdbUalWNxMeY+1Fn3cCOvPOX3/WxJWteEuqPAgoooIACCiiggAIKKKCAAgrMTQF3q83NdRnNUd3/vf/nO9//8c7bbf62N/V6MtprNtvgr3Z57Sv/YG22jLGlKyy4QXL3t2x50mF/0ec+tRTc4Y3/Ybftt3zhF//y0i9/88t/+Q35bGHb5U1bHPr+HY/9691iP1pZeKdtN//N//xfbJR74cV/iXz2lBFNO+WIv9ztze37N+lisrViW1yTgrmvvfbv3bPqKaAYduzUy+GZUEABBRRQQAEFFFBAAQUUUECBYQr03q32iqeffrp1NE888cSuu+7aeshMBRRQQAEFFFBAAQUUUEABBRRQQAEFRl7gzjvvXLBgQdc0fWVBl4z5CiiggAIKKKCAAgoooIACCiiggAIKdAoYVuuk8YACCiiggAIKKKCAAgoooIACCiiggAJdAobVumTMV0ABBRRQQAEFFFBAAQUUUEABBRRQoFPAsFonjQcUUEABBRRQQAEFFFBAAQUUUEABBRToEjCs1iVjvgIKKKCAAgoooIACCiiggAIKKKCAAp0ChtU6aTyggAIKKKCAAgoooIACCiiggAIKKKBAl4BhtS4Z8xVQQAEFFFBAAQUUUEABBRRQQAEFFOgUMKzWSeMBBRRQQAEFFFBAAQUUUEABBRRQQAEFugQMq3XJmK+AAgoooIACCiiggAIKKKCAAgoooECngGG1ThoPKKCAAgoooIACCiiggAIKKKCAAgoo0CVgWK1LxnwFFFBAAQUUUEABBRRQQAEFFFBAAQU6BQyrddJ4QAEFFFBAAQUUUEABBRRQQAEFFFBAgS4Bw2pdMuYroIACCiiggAIKKKCAAgoooIACCijQKWBYrZPGAwoooIACCiiggAIKKKCAAgoooIACCnQJGFbrkjFfAQUUUEABBRRQQAEFFFBAAQUUUECBTgHDap00HlBAAQUUUEABBRRQQAEFFFBAAQUUUKBLwLBal4z5CiiggAIKKKCAAgoooIACCiiggAIKdAoYVuuk8YACCiiggAIKKKCAAgoooIACCiiggAJdAobVumTMV0ABBRRQQAEFFFBAAQUUUEABBRRQoFPAsFonjQcUGI7Ad7/73QMPPPAVL//stddew+nUXhRQQIG5LLDRRhvxR5E/jwMf5A033BCNb7PNNmefffbA27dBBRRQQAEFFFBAgbESWHusZutkFZhrAs8+++x+++336KOPxsC+8Y1vzLUROh4FFFBg+ALPP/88nb744osD73rVqlXROH94P/nJT9L+cccdN/BebFABBRRQQAEFFFBgTATcrTYmC+00a4FLLrkkNizcfvvt9bEhfr7lllsypka3W2+9de/Oc19b7G6L3zvttNNHP/pRtmD0rstRtn586lOfonxWj7oTIjz22GNs62AzXVSEjpFcccUV2WMMjNYypzURLTDaHkfposcWEqaQg88Eu05os3UWWZ4ptHZKJt1FU713C7biU4XqhEebjccJVio1y3Ae5iyaCY42q/SfwynBmMGJllkdVr+HQ/8tj17J1oUYphgnMOdS77NlaOycz4yE8cQ5zPlDGqLW83xooxpUR+uvv37Z1Oc///nyo2kFFFBAAQUUUEABBSYn8HTHzx133PG//VFgFAW+853vvOtd78rvyW233TaLs/zMZz4TIyGg9tOf/nTCkZQjzylk4q1vfSuza22Exk888cQs2Ux88IMf7BrA5ZdfvuGGGzarkMN4otbnPve5KNA1AEaVAUQabA4yj9IOGs0CkcN6tY4kMpljVTHL91joMprJMKoW8mMPfOSbejEkljhbaCbyBGidFKrNKv3kMJiu0bKUrf79NDvCZXosxHDE4gRg1WYdma9w+Y0oz0zye3zBBzvy6LfH13aa3eWfLDqaZlNWV0ABBRRQQAEFFBhtAeJjHZGzNdnuVisvGUyPvgAbi7bffvu5c6/lrbfeGuhsKdp44437XIDy2psAyvXXX3/EEUdQ99vf/vYee+zR+jQiNpucccYZlKEu5eOvXtSN+MtXvvKVJUuWNAfAppXFixdzzxRX1IRjInjEb9LkILls2TJq7b///lH3yiuvbDYSOWzNI0GQYs8992yWueqqq8iMiRDbmnDzXXm9zYwIbFGdObbuWWt2lzmUpzuqRwsxnTzaTJRhMipGOAb5k08+uVm4/5zW/x06/PDD+28hS7KliOWOkxzPjIOQ4CNLyYJm4RlNxFZBdjzNaC/NxmPrGTv1mocmzMmFiJOc0xUxtpLN9EatiGTtuOOOE45wRguwZPwN4cRm4pzbJAKErxh/KPgYd03O6BiG0/i2226bHU32j0ZWNKGAAgoooIACCiiggGE1z4ExEuBiO64JuVzkKnE0Zk4w7t3vfvdnP/tZZhQhAB7WVoUACCYS92G+TPymm26ifMw96pITwSwCMdU9aFxjRwiGkNPdd99NnCJif/wm/cgjj0RFWiOH/W4kCM9F483fS5cuJTMbqQrErVgEkqKd6667rirQ4yMzyn4vvPDCHiWbh7785S+TeejLPySynWbJZs5WW23FU5kC4eKLL24WmJWcI488Mpab0Ccnxpvf/OYYBgk+ElzjPBnOwOLBWPEcq+H0GL387Gc/I/HCCy9Mp9M4yRGjEaYQYd/pNNi7Lt8mAlinn35672IzepS/G/z1YLKcIStWrODc5gyPHvmK8YeCM2pGB2DjCiiggAIKKKCAAgrMOwHDavNuyRzwtASIgLDhgsvF9dZbb1oNzb3KXPeeeeaZjIsJliEALpXPOuss8tls0vVk7k9/+tOxWeakk04qZxYNco1NsCkCauVR0gQdss33vve95NB769YPHukVsZ599tmnaoSPsWWMMRD6iXaIUlXBwWatMofr/9h2N6lgCl1EJJENdLGHjvFPuFGu7Jf0ggULqpxZ/EgkNCKD3A/bul0L4eeee24WRzi/uk7DCNXNr8FPdrT83eD8p9aXvvSljMaWjaBBcK3MMa2AAgoooIACCiigwJgLGFYb8xNgvKbPTijCQLn/Yk5NfoMNNpj+eJhgRMdiX1g0yK2XsV3oqKOO6uoi95pxUU1cJooRCIsADdfS/aBRLLZBxf6vqq+4A5Th5V65skBUiX1q2U5UKYv1Tk8qDBdNBQ578ZggP1PYKNd7SMM/ypbM6PTDH/5w/70T1uQ+x3y5QY9XQPD0+ripk9ODKvFI+yhf+sdtmIsWLYox5NsYWNxyVFRhKyVvBogCtEabzZcqMDwKRF3SJKI8FaleNhiHYlMquy+z32QpC/eTLifVLB/P9c9e6J3hNYuRQzu8LyKFuUu3it6SQzvVOMlpancpRb/hE+tCdYiqLaitw4vMc845h0TXl7S1IvNizDH4cCBNTpcbw+vzTGt2R5txqtBFHiWzPIUmNd9sxIQCCiiggAIKKKCAAlMX6Hrumq8syCfsmBhJgX6eZD+EiccGK77A3J7ZT3dRnt9dhfO9BPEQNIrlfZpdVSI/QbjPK3Lyhi9uL+1dN49GXwTXMicT8eSy5isFokDE4/IpYNFO6zRznOWz1WiEuvF3sJLsKh/9Rhwt3wwQU2YwqZfjJxH4VfuZ3xxt63jKBknTWhSr8qf8MeKqaPffQo4hRlL+TplsLY7muVEWptN0K58HX5YBPJtiyWK0FECPnzgN+JgnYRSORaRAnsxlm2Rmm7Gg5dFINyeSVSKRCFV+TqQ635gp44nGmTjpnEs5nmit68bb8usQrVVnV7Qf93dXk8Iqvy855vz6MxgajC8dFculycJVIvapUbgcVVWm+sgAsotqeOTTYFU+kavCfGwuUJRJdsCjr2riOQDmy0/UarZWjYSPNJjDyF6axcxRQAEFFFBAAQUUUKD3KwvWMqzmKTKeAnGhzmXV7F5QZRyhupzuWpS4buR3V4GMd+S8JqwSTeVFZo4kr4E51NVdlZ9PrKsicVx+xxVsMxBACzFmLo+ztWyneWXeXDiGRwshSTShGm2zfPaScYSsQiLGWYV1okpIpg+ZtBCBnupSP8pHU2X57DoTiZw500xEp/1HRpKagFSuDpkZraiWMtrnN1MOJdAymlOFMxK/dVLRBb/LVU7PMjPboV/K85EGKRArQmaOPDoK1R5fk+Z4mgtB+5lZRgOjbkwZhBhMZMaZzHhKNHzy5Mz8PGNzJM2zi0M0FT+pTWbW5WzP6iRoPAqXq4BM9D7hKZHIOciy8dZ0rGCMLb5EJRpHy1o5vEmdacFL49EXUy7XOsAZQJ4tlOQUYuHKrrvS/6b7O+vVVdh8BRRQQAEFFFBAgbEVMKw2tkvvxHsJ5DVkeVXcq8Kgj8XlX17X5WVh737i2rtHvKA5rwmrZI8xmLwizZhCFugnwXUv7VQbdiIGUUUBsrXYYVTGAjgUsYAcTBbOCSZdJphpXNtnYRJZvrnQ9EjdKmISg2kVDsnsLhMMtTUSEQWaUyiHl8jZWiYqkLJWj3Q/nZbVY72a80UyDlXBkWifzOqMjahH1U7ilz1GOgMizSWLfsvpZzucV2V50q3zDdVqMM0xlDk9FqIZkGLu0W/zpIqwYHlSxWlG+TIeRNd8LL8RcXZVZ0tql7OmbrZZDiDcqhYonNTlfJvpRC7bbBbLnGiWETbL5/DK70UMr7koTC0OtZ5pNE6BOLv4XTlMYaFz/CSiX6ZAy9XqlMVMK6CAAgoooIACCoy5QO+wms9Wi8sWfyswVAGeX7bJJpvkuyO5QOXBXkMdwYx1FmEpHudUPlwpntH2iU98otltPsEt3hiQBSI8Ea8HzcweCS6Mly9f3vpeha5a8SSpeENCljn44INJ81iu5hO+skyV4NF173nPe3hyVpU/9z9yHkaEqPncPSRjvXjRRLmUMalTTz21OmM/8IEPcKhZsgvhmmuu4RAPI2suWZxCX//615t1ebdGWZ50RKNm7n0CnIfNt3PmgwJ33333apDxRo444eNQTIRJVS8B4CNv/6yqt34877zzyllTZv/994+S/A98JHIp81A2Fd8sztKu575lyUklYgX53jUReMhjhMW/9a1vVcOb7Jn285//nCepcRLSEW9LqBy23HJL2ufbOrWpXX311TFO2t9+++156NukBCysgAIKKKCAAgoooAAChtU8DRSYBYEXX3wxe2XDBcGF/DjNxJNPPjm1FvqPIvVu/4ADDqAA1/D5woG84K8CZ9FOFOOauQrTRDsEfboumGOPDLtXCEpybcyFcfkg896D5GjXqHijQlxpl29TLVurdgMxjAgDnXHGGdOJrDX//YfYRNnvTKTvuuuuaLb1PRLbbrttHP3e975X9d71Il1WoSrZ9TFK3nzzzaxa9VPGpKrqVVQlj953332ZnmYiFoITL3ZCEftuLisnD73wQtVq5Hw85ZRTqgHcc8895Oywww5V/nQ+4hA7rTKemGtEbKga1ZIlS6bTV1dd1o5DEU5tltl5553JzHWZ8pmGZ5wqnBXN1ecvJ3866IiXYzDrKprfHFWVQ2STxnPP2qD+Bla9+FEBBRRQQAEFFFBgtAXWHu3pOTsF5qbAZpttlgPjrYVcGzd3xGSBSSUefPDBKJ9bSOIdo2zo6N0Oj1mMArvttltVksBWtlYdan7kSpULXS5W2cwS4cIrr7ySYuwqqgJnUTe2jFGe1wg2WyOHl4T26J0rbXohysN+MRrhurrPGGW+cpFtg639slHuuOOOaz1UZjI2fl544QWEiawdc8wxzYv/svxw0rfeems/g8+gzHBGVfYSu+T4HYnyUKRbz5ZmsRnKoXcA8WFN+eG1quV4Iv5C7Ljra5WRGoZHsZkYJC8VhS7jVqtXr45euoZEsHjdddftZyTsgOOUnrDkpOY15TPt0EMP5XvNYM4991ze49wcFVvYli1bdtZZZzFxfpjm8ccf38/JT1NsriQmnmfgQF7H3ByhOQoooIACCiiggAKjLeButdFeX2c3RwW4RGebVdznyBC5bo/9L9Mfbuz0iR0c0Vpuk+ndxY033hjl3/jGN0Yibq8jnYcif8LfXAlThpHELYExpEMOOaRZMbeMNQ9lDpGyTHcl2GwVoz3ppJO6ylT5EzbLxXZvsbLBvLUtNw2VR4eZjq1zxBf6vx9zmMPLvmJLYLX1r9yy1xpDyerDSRAkjXES0yl7jPgLp1w54DLd592dZZuTTUcX73jHO6Li+uuvH4lyGGWavXXVXahVj4TSYrJf/epXq0Oz+JEtk/EQN7YNZii8HA9RbIJozI5irAjBPv6hos/bOYnHRcyOBtl2OuHfhLJf0woooIACCiiggAIKhIBhNc8EBWZHgKtBAge5q4U4yPTHwWVh7Lw49thjs7WIN/Gx9aI0ihGCiQe9EZTJzVZchMfwODSpGE3e7MkNnhk4y8wcGInYyEYQsLz+zzQPEacM18n9XO5GYIvp33DDDWUXrWnKxF6b6gno2XXEF3qItTY7FzLzUXGEDCYcT+5MbL3T9qGHHooW+tm7NGFfVYG4SfD++++v8ufUR74LEfuuvgIRqo67OycccHwBBztTtsvFNz2jaXnHbv+x4ObIY6cnkabW86EqH/NiX2SVHx8DJ6N+0znTGFWswkc+8pEeA6MYO9fibQmsVz93dOajG3krxUyc5K0yZiqggAIKKKCAAgqMmIBhtRFbUKczzwS4k2tQI+ZyOvZoEKUqb4QkOhYXwFxqtsanCJnxWKIIM51wwgnleE477TQ+cujkk08u8zN99tlnl31FPnvxYs/UF77whQicldG6rEuCIfE7dreV+ZHOuF48HL1ZoMxhw1oEAS+44IIyvzV92WWXkd81Kg7FpFq5ejTIodzr11psCJmMPBy4La41wkLmTjvtFIcYbQQQL7zwwmpsnBVxf24sZXV0sh+bMY73ve99NMJOxtZBTrb91vID2TLG7Z/ReBmmjC8U34t+Aq877rhjzLRC4CML0TryKvPoo4+u4tr54L+MVudeszPPPLOq3v/Hj3/841G42WPkE4/OP1kRMuPfA5orCEv8PQko6k7zTONfIGIH7r777tvsrpxghhfL51eWBcp0hCbJ2Xvvvct80woooIACCiiggAIK9C9gWK1/K0uOlwBXvDztqxkzmiGFrk0fE3bH9TY7OAio8SY7LmWJkixdurSqxUVpRE8WL15MybwupS6Ro1122SXuhOIuquo2MaafITlAuKiOy/uoyAU291tttNFGVXd8jD1TXHLHHaDxes2qWG4Zy9BAVYCPEdOhkSok0SxJzmGHHcZvOu1dmMHHqHJjV7O1eJ8jnhNG1sBEKRpkz0vu9Wu2ObQcopn0xeA5JYh75nKTiPOE5Y7HbDFaHkRFYcbPLLIkS0OklaADpw13KE955PkMwbiJknXJ3Ua8sDLOyT322APkOK/oiDEwZk6tHMwUeo8XRDL+WD6aKlub1FebGHF8BXJnE+PJUDX7pxhtnm8k6JH2y3BbBuY4mYGN6VCMOFHegdh7jhTjSxp1gaJxvndUYWDlE99al5LyVGRx+Sl7aUWgtXhRAz2+7nWvY5A5tTgleIJhNsK8mitIeUBgoRhfh/x7Mv0zjZ1odMdZTRQ+zxbOUk7pPKnoPQLElMyuc8BVIqdW5ftRAQUUUEABBRRQQIHJCfCc8tYfHlqc90OZUGA0BOIZPT2+IeU0s1iZOfB07uYg0U/jWT6HVyY4SiihtR1uqMwbTssqkeYqFJzWiuUz4JoV6bH1PkoyszCNt7YcIbOuO0CjStwHSlPc2xU5PAIpWo43gZYt594TbhnL/Gb5uE2MRlpHnhUZNmUYZOb0xqdk1WCMs/V3akcUo7UMmT0ePZajak0w6xh/s+XmWucz/qrClLz++uur9qNMEz8nUpWv0PiYBVjcrkHSC0ezZC5i5mQi2i+b5RALUbVcSuY0sxESXePnUP7dyFWLLmL/VLZWJvJ0jS6yhbIM6fJEjYmU46RulG9dIHqvzjfKt5aMRsozOVvmUIyw/J1fkKhY/uZvSLkuPVaw+XXoMbw+zzS6q+YSaOUII12uVDm1Mp0nFVWa53NZ0rQCCiiggAIKKKDAmAsQH2uNm0Wmu9Wa/w+5OSMrMKm30cU1MxeHc4qj9V11XFuyMYQrQzZ0lLtXypGzd4N74rjaZEZlxIG6XEU//PDD1WaWrMs2Eza70ThX7BmYowXaIeZCj637s8hkSNFI16X+zTffTIGuO0CjLsOOhVixYkXk5NsMcydU5PObucd6Rctd5aMpSraOPFuLYZdNteJjQlP4sLWnarB0zmarRD4bq8qf5kduCWRNWdky7oAkURs2IlVrzfpWJwYlWT5Kcmtt60hyFfJoTKQ55eXLlyMZ+VjFvZ9Ri8VlkAwpljgy42QmgNLcbdRsnCqxKNXSsBCscpwMlKH9fLZXfOR3HiXNT4w/z/DIjN9wRdcrV67MfLq49957cauEmSzfi8MPPzxLkqAFZpQO5MQ5g3xZjHTr+XDQQQdRPQfMIEFr/erFV5WSaRXnJ+O86KKLyr7CPNssDzF4ItScANW60Mjdd99drgtpTpKyJP3SJiWbXwe6mNSZFlMozzS6o2XaYXNl7FCjQVRznFThI1bVGV7OzrQCCiiggAIKKKCAAoMVeAXRtdYWn3jiiV133bX1kJkKKDAoAW5iipcVcHHOdfKgmrUdBRQYAQHuQ2cWBG19oP7AV5PA3KJFi6JZhQfOa4MKKKCAAgoooMAoCdx5550LFizompG71bpkzFdgGALxOHN6YitZPjBoGB3bhwIKKDDGAvmiWwxm/U0jY7wOTl0BBRRQQAEFFJj3AobV5v0SOoF5LbDddtvF+LnrapNNNml9/P+8nqCDV0ABBeaUADeosg0w3qvAwLhPtrp9e06N1sEooIACCiiggAIKzHEBw2pzfIEc3ogL8BLMfAoSU+U9dyM+YaengAIKzKrA6tWry/7jDcJljmkFFFBAAQUUUEABBfoXMKzWv5UlFRi8QPVs9fLx54PvzBYVUGAeCpSP7Z+Hw59zQ164cGH8Y0a8/OG4446bc0N0QAoooIACCiiggALzR8BXFsyftXKkCiiggAIKKKCAAgoooIACCiiggAJDFPCVBUPEtisFFFBAAQUUUEABBRRQQAEFFFBAgfEQ8CbQ8VhnZ6mAAgoooIACCiiggAIKKKCAAgooMFABw2oD5bQxBRRQQAEFFFBAAQUUUEABBRRQQIHxEDCsNh7r7CwVUEABBRRQQAEFFFBAAQUUUEABBQYqYFhtoJw2poACCiiggAIKKKCAAgoooIACCigwHgKG1cZjnZ2lAgoooIACCiiggAIKKKCAAgoooMBABQyrDZTTxhRQQAEFFFBAAQUUUEABBRRQQAEFxkPAsNp4rLOzVEABBRRQQAEFFFBAAQUUUEABBRQYqIBhtYFy2pgCCiiggAIKKKCAAgoooIACCiigwHgIGFYbj3V2lgoooIACCiiggAIKKKCAAgoooIACAxUwrDZQThtTQAEFFFBAAQUUUEABBRRQQAEFFBgPAcNq47HOzlIBBRRQQAEFFFBAAQUUUEABBRRQYKAChtUGymljCiiggAIKKKCAAgoooIACCiiggALjIWBYbTzW2VkqoIACCiiggAIKKKCAAgoooIACCgxUwLDaQDltTAEFFFBAAQUUUEABBRRQQAEFFFBgPAQMq43HOjtLBRRQQAEFFFBAAQUUUEABBRRQQIGBChhWGyinjSmggAIKKKCAAgoooIACCiiggAIKjIeAYbXxWGdnqYACCiiggAIKKKCAAgoooIACCigwUAHDagPltDEFFFBAAQUUUEABBRRQQAEFFFBAgfEQMKw2HuvsLBVQQAEFFFBAAQUUUEABBRRQQAEFBipgWG2gnDamgAIKKKCAAgoooIACCiiggAIKKDAeAobVxmOdnaUCCiiggAIKKKCAAgoooIACCiigwEAFDKsNlNPGFFBAAQUUUEABBRRQQAEFFFBAAQXGQ8Cw2niss7NUQAEFFFBAAQUUUEABBRRQQAEFFBiogGG1gXLamAIKKKCAAgoooIACCiiggAIKKKDAeAgYVhuPdXaWCiiggAIKKKCAAgoooIACCiiggAIDFTCsNlBOG1NAAQUUUEABBRRQQAEFFFBAAQUUGA8Bw2rjsc7OUgEFFFBAAQUUUEABBRRQQAEFFFBgoAKG1QbKaWMKKKCAAgoooIACCiiggAIKKKCAAuMhYFhtPNbZWSqggAIKKKCAAgoooIACCiiggAIKDFTAsNpAOW1MAQUUUEABBRRQQAEFFFBAAQUUUGA8BAyrjcc6O0sFFFBAAQUUUEABBRRQQAEFFFBAgYEKGFYbKKeNKaCAAgoooIACCiiggAIKKKCAAgqMh4BhtfFYZ2epgAIKKKCAAgoooIACCiiggAIKKDBQAcNqA+W0MQUUUEABBRRQQAEFFFBAAQUUUECB8RAwrDYe6+wsFVBAAQUUUEABBRRQQAEFFFBAAQUGKmBYbaCcNqaAAgoooIACCiiggAIKKKCAAgooMB4ChtXGY52dpQIKKKCAAgoooIACCiiggAIKKKDAQAUMqw2U08YUUEABBRRQQAEFFFBAAQUUUEABBcZDwLDaeKyzs1RAAQUUUEABBRRQQAEFFFBAAQUUGKiAYbWBctqYAgoooIACCiiggAIKKKCAAgoooMB4CBhWG491dpYKKKCAAgoooIACCiiggAIKKKCAAgMVMKw2UE4bU0ABBRRQQAEFFFBAAQUUUEABBRQYDwHDauOxzs5SAQUUUEABBRRQQAEFFFBAAQUUUGCgAobVBsppYwoooIACCiiggAIKKKCAAgoooIAC4yFgWG081tlZKqCAAgoooIACCiiggAIKKKCAAgoMVMCw2kA5bUwBBRRQQAEFFFBAAQUUUEABBRRQYDwEDKuNxzo7SwUUUEABBRRQQAEFFFBAAQUUUECBgQoYVhsop40poIACCiiggAIKKKCAAgoooIACCoyHgGG18VhnZ6mAAgoooIACCiiggAIKKKCAAgooMFABw2oD5bQxBRRQQAEFFFBAAQUUUEABBRRQQIHxEDCsNh7r7CwVUEABBRRQQAEFFFBAAQUUUEABBQYqYFhtoJw2poACCiiggAIKKKCAAgoooIACCigwHgKG1cZjnZ2lAgoooIACCiiggAIKKKCAAgoooMBABQyrDZTTxhRQQAEFFFBAAQUUUEABBRRQQAEFxkPAsNp4rLOzVEABBRRQQAEFFFBAAQUUUEABBRQYqIBhtYFy2pgCCiiggAIKKKCAAgoooIACCiigwHgIGFYbj3V2lgoooIACCiiggAIKKKCAAgoooIACAxUwrDZQThtTQAEFFFBAAQUUUEABBRRQQAEFFBgPAcNq47HOzlIBBRRQQAEFFFBAAQUUUEABBRRQYKAChtUGymljCiiggAIKKKCAAgoooIACCiiggALjIfD/Az1K9bC/Oo4UAAAAAElFTkSuQmCC;fontStyle=1;fontSize=16;" vertex="1" parent="1">
          <mxGeometry x="80" y="40" width="678.28" height="559.07" as="geometry"/>
        </mxCell>
        <mxCell id="3vJb4fIJzxed-R8o1brO-3" value="Gutenberg" style="rounded=1;whiteSpace=wrap;html=1;fontSize=18;" vertex="1" parent="1">
          <mxGeometry x="359.14" y="720" width="120" height="60" as="geometry"/>
        </mxCell>
        <mxCell id="3vJb4fIJzxed-R8o1brO-6" style="edgeStyle=orthogonalEdgeStyle;rounded=0;orthogonalLoop=1;jettySize=auto;html=1;fontSize=16;" edge="1" parent="1" source="3vJb4fIJzxed-R8o1brO-5" target="3vJb4fIJzxed-R8o1brO-3">
          <mxGeometry relative="1" as="geometry"/>
        </mxCell>
        <mxCell id="3vJb4fIJzxed-R8o1brO-7" value="Inject" style="text;html=1;align=center;verticalAlign=middle;resizable=0;points=[];labelBackgroundColor=#ffffff;fontSize=16;" vertex="1" connectable="0" parent="3vJb4fIJzxed-R8o1brO-6">
          <mxGeometry x="0.2004" y="-1" relative="1" as="geometry">
            <mxPoint x="-10.2" y="-21" as="offset"/>
          </mxGeometry>
        </mxCell>
        <mxCell id="3vJb4fIJzxed-R8o1brO-5" value="key-value" style="shape=parallelogram;html=1;strokeWidth=2;perimeter=parallelogramPerimeter;whiteSpace=wrap;rounded=1;arcSize=12;size=0.23;fontSize=16;" vertex="1" parent="1">
          <mxGeometry x="80" y="720" width="120" height="60" as="geometry"/>
        </mxCell>
        <mxCell id="3vJb4fIJzxed-R8o1brO-8" value="data source option 1" style="text;html=1;strokeColor=none;fillColor=none;align=center;verticalAlign=middle;whiteSpace=wrap;rounded=0;fontSize=16;" vertex="1" parent="1">
          <mxGeometry x="80" y="800" width="90" height="40" as="geometry"/>
        </mxCell>
        <mxCell id="3vJb4fIJzxed-R8o1brO-10" style="edgeStyle=orthogonalEdgeStyle;rounded=0;orthogonalLoop=1;jettySize=auto;html=1;fontSize=16;" edge="1" parent="1" source="3vJb4fIJzxed-R8o1brO-9" target="3vJb4fIJzxed-R8o1brO-3">
          <mxGeometry relative="1" as="geometry"/>
        </mxCell>
        <mxCell id="3vJb4fIJzxed-R8o1brO-11" value="Inject" style="text;html=1;align=center;verticalAlign=middle;resizable=0;points=[];labelBackgroundColor=#ffffff;fontSize=16;" vertex="1" connectable="0" parent="3vJb4fIJzxed-R8o1brO-10">
          <mxGeometry x="-0.1033" relative="1" as="geometry">
            <mxPoint x="-9.28" y="-20" as="offset"/>
          </mxGeometry>
        </mxCell>
        <mxCell id="3vJb4fIJzxed-R8o1brO-9" value="" style="shape=image;html=1;verticalAlign=top;verticalLabelPosition=bottom;labelBackgroundColor=#ffffff;imageAspect=0;aspect=fixed;image=https://cdn1.iconfinder.com/data/icons/anycolor-common-type-files-pack/512/json_anycolor-128.png;fontSize=16;" vertex="1" parent="1">
          <mxGeometry x="678.28" y="710" width="80" height="80" as="geometry"/>
        </mxCell>
        <mxCell id="3vJb4fIJzxed-R8o1brO-12" value="data source option 2" style="text;html=1;strokeColor=none;fillColor=none;align=center;verticalAlign=middle;whiteSpace=wrap;rounded=0;fontSize=16;" vertex="1" parent="1">
          <mxGeometry x="673.28" y="800" width="90" height="40" as="geometry"/>
        </mxCell>
      </root>
    </mxGraphModel>
  </diagram>
</mxfile>
